<svg width="1261" height="565" viewBox="0 0 1261 565" fill="none" xmlns="http://www.w3.org/2000/svg">
<g clip-path="url(#clip0_13_7)">
<path d="M155.63 490.671L141.428 515.288L155.63 539.886L184.053 539.886L198.255 515.288L184.053 490.671L155.63 490.671Z" stroke="#00A583" stroke-width="0.25" stroke-miterlimit="10"/>
<path d="M212.152 490.671L197.95 515.288L212.152 539.886L240.575 539.886L254.777 515.288L240.575 490.671L212.152 490.671Z" stroke="#00A583" stroke-width="0.25" stroke-miterlimit="10"/>
<path d="M268.883 490.671L254.681 515.288L268.883 539.886L297.307 539.886L311.509 515.288L297.307 490.671L268.883 490.671Z" stroke="#00A583" stroke-width="0.25" stroke-miterlimit="10"/>
<path d="M325.424 490.671L311.203 515.288L325.424 539.886L353.828 539.886L368.049 515.288L353.828 490.671L325.424 490.671Z" stroke="#00A583" stroke-width="0.25" stroke-miterlimit="10"/>
<path d="M680.379 466.225L666.177 490.823L680.379 515.422L708.802 515.422L723.004 490.823L708.802 466.225L680.379 466.225Z" stroke="#00A583" stroke-width="0.25" stroke-miterlimit="10"/>
<path d="M736.92 466.225L722.699 490.823L736.92 515.422L765.324 515.422L779.545 490.823L765.324 466.225L736.92 466.225Z" stroke="#00A583" stroke-width="0.25" stroke-miterlimit="10"/>
<path d="M793.651 466.225L779.43 490.823L793.651 515.422L822.055 515.422L836.276 490.823L822.055 466.225L793.651 466.225Z" stroke="#00A583" stroke-width="0.25" stroke-miterlimit="10"/>
<path d="M680.379 515.174L666.177 539.772L680.379 564.37L708.802 564.37L723.004 539.772L708.802 515.174L680.379 515.174Z" stroke="#00A583" stroke-width="0.25" stroke-miterlimit="10"/>
<path d="M736.919 515.174L722.698 539.772L736.919 564.37L765.323 564.37L779.544 539.772L765.323 515.174L736.919 515.174Z" stroke="#00A583" stroke-width="0.25" stroke-miterlimit="10"/>
<path d="M793.651 515.174L779.43 539.772L793.651 564.37L822.055 564.37L836.276 539.772L822.055 515.174L793.651 515.174Z" stroke="#00A583" stroke-width="0.25" stroke-miterlimit="10"/>
<path d="M850.173 515.174L835.971 539.772L850.173 564.37L878.596 564.37L892.798 539.772L878.596 515.174L850.173 515.174Z" stroke="#00A583" stroke-width="0.25" stroke-miterlimit="10"/>
<path d="M1175.18 343.042L1160.98 367.64L1175.18 392.239L1203.6 392.239L1217.8 367.64L1203.6 343.042L1175.18 343.042Z" stroke="#00A583" stroke-width="0.25" stroke-miterlimit="10"/>
<path d="M1175.18 294.093L1160.98 318.692L1175.18 343.29L1203.6 343.29L1217.8 318.692L1203.6 294.093L1175.18 294.093Z" stroke="#00A583" stroke-width="0.25" stroke-miterlimit="10"/>
<path d="M1219.33 315.848L1205.11 291.25" stroke="#00A583" stroke-width="0.25" stroke-miterlimit="10"/>
<path d="M1221.05 312.852L1206.85 288.254" stroke="#00A583" stroke-width="0.25" stroke-miterlimit="10"/>
<path d="M1222.78 309.856L1208.58 285.258" stroke="#00A583" stroke-width="0.25" stroke-miterlimit="10"/>
<path d="M1224.52 306.86L1210.32 282.262" stroke="#00A583" stroke-width="0.25" stroke-miterlimit="10"/>
<path d="M1226.26 303.539L1212.06 278.941" stroke="#00A583" stroke-width="0.25" stroke-miterlimit="10"/>
<path d="M1228 300.543L1213.79 275.945" stroke="#00A583" stroke-width="0.25" stroke-miterlimit="10"/>
<path d="M270.621 493.915L256.419 518.513" stroke="#00A583" stroke-width="0.25" stroke-miterlimit="10"/>
<path d="M272.358 496.911L258.156 521.509" stroke="#00A583" stroke-width="0.25" stroke-miterlimit="10"/>
<path d="M274.095 499.43L259.874 524.028" stroke="#00A583" stroke-width="0.25" stroke-miterlimit="10"/>
<path d="M275.985 502.979L261.783 527.578" stroke="#00A583" stroke-width="0.25" stroke-miterlimit="10"/>
<path d="M277.722 506.223L263.52 530.822" stroke="#00A583" stroke-width="0.25" stroke-miterlimit="10"/>
<path d="M279.459 509.219L265.257 533.818" stroke="#00A583" stroke-width="0.25" stroke-miterlimit="10"/>
<path d="M281.196 511.738L266.994 536.337" stroke="#00A583" stroke-width="0.25" stroke-miterlimit="10"/>
<path d="M283.105 515.288L268.884 539.886" stroke="#00A583" stroke-width="0.25" stroke-miterlimit="10"/>
<path d="M214.366 493.915L200.145 518.513" stroke="#00A583" stroke-width="0.25" stroke-miterlimit="10"/>
<path d="M216.103 496.911L201.882 521.509" stroke="#00A583" stroke-width="0.25" stroke-miterlimit="10"/>
<path d="M217.821 499.43L203.619 524.028" stroke="#00A583" stroke-width="0.25" stroke-miterlimit="10"/>
<path d="M219.73 502.979L205.528 527.578" stroke="#00A583" stroke-width="0.25" stroke-miterlimit="10"/>
<path d="M221.467 506.223L207.265 530.822" stroke="#00A583" stroke-width="0.25" stroke-miterlimit="10"/>
<path d="M223.204 509.219L208.983 533.818" stroke="#00A583" stroke-width="0.25" stroke-miterlimit="10"/>
<path d="M224.941 511.738L210.72 536.337" stroke="#00A583" stroke-width="0.25" stroke-miterlimit="10"/>
<path d="M226.831 515.288L212.629 539.886" stroke="#00A583" stroke-width="0.25" stroke-miterlimit="10"/>
<path d="M327.142 493.915L312.94 518.513" stroke="#00A583" stroke-width="0.25" stroke-miterlimit="10"/>
<path d="M328.879 496.911L314.677 521.509" stroke="#00A583" stroke-width="0.25" stroke-miterlimit="10"/>
<path d="M330.616 499.43L316.414 524.028" stroke="#00A583" stroke-width="0.25" stroke-miterlimit="10"/>
<path d="M332.525 502.979L318.323 527.578" stroke="#00A583" stroke-width="0.25" stroke-miterlimit="10"/>
<path d="M334.262 506.223L320.041 530.822" stroke="#00A583" stroke-width="0.25" stroke-miterlimit="10"/>
<path d="M335.98 509.219L321.778 533.818" stroke="#00A583" stroke-width="0.25" stroke-miterlimit="10"/>
<path d="M337.718 511.739L323.516 536.337" stroke="#00A583" stroke-width="0.25" stroke-miterlimit="10"/>
<path d="M339.626 515.288L325.424 539.886" stroke="#00A583" stroke-width="0.25" stroke-miterlimit="10"/>
<path d="M863.688 540.039C863.917 539.925 864.127 539.791 864.337 539.677C864.337 539.715 864.337 539.753 864.337 539.791C864.337 549.733 858.973 558.416 850.975 563.111C850.879 563.054 850.803 563.015 850.707 562.958C850.765 553.245 855.938 544.753 863.669 540.039L863.688 540.039Z" stroke="#00A583" stroke-width="0.25" stroke-miterlimit="10"/>
<path d="M864.337 539.753C864.337 539.753 864.337 539.696 864.337 539.657C864.337 539.657 864.356 539.657 864.375 539.638C864.604 539.772 864.833 539.906 865.081 540.039C872.85 544.772 878.023 553.321 878.042 563.092C878.042 563.092 878.023 563.092 878.004 563.111C877.432 562.786 876.84 562.481 876.248 562.195C869.052 557.329 864.337 549.104 864.337 539.772L864.337 539.753Z" stroke="#00A583" stroke-width="0.25" stroke-miterlimit="10"/>
<path d="M863.688 540.039C859.908 542.043 855.594 543.188 850.994 543.188C846.126 543.188 841.545 541.89 837.593 539.638C841.545 537.387 846.107 536.089 850.994 536.089C855.575 536.089 859.889 537.234 863.688 539.238C863.898 539.371 864.127 539.486 864.337 539.619C864.337 539.619 864.337 539.619 864.337 539.657C864.108 539.791 863.898 539.906 863.688 540.039Z" stroke="#00A583" stroke-width="0.25" stroke-miterlimit="10"/>
<path d="M865.081 540.039C864.852 539.906 864.623 539.772 864.394 539.638C864.623 539.505 864.852 539.371 865.081 539.238C868.861 537.234 873.175 536.089 877.756 536.089C882.624 536.089 887.205 537.387 891.156 539.638C887.205 541.89 882.624 543.188 877.756 543.188C873.175 543.188 868.861 542.043 865.081 540.039Z" stroke="#00A583" stroke-width="0.25" stroke-miterlimit="10"/>
<path d="M850.726 516.567C850.726 516.567 850.86 516.49 850.936 516.452C858.915 521.108 864.279 529.734 864.337 539.619C864.127 539.505 863.898 539.371 863.688 539.257C856.014 534.581 850.879 526.185 850.726 516.586L850.726 516.567Z" stroke="#00A583" stroke-width="0.25" stroke-miterlimit="10"/>
<path d="M865.081 539.238C864.852 539.371 864.604 539.486 864.375 539.638C864.375 539.638 864.356 539.638 864.337 539.619C864.394 530.364 869.071 522.215 876.21 517.387C876.821 517.101 877.413 516.777 878.004 516.452C878.004 516.452 878.023 516.452 878.042 516.452C877.928 526.108 872.774 534.543 865.081 539.238Z" stroke="#00A583" stroke-width="0.25" stroke-miterlimit="10"/>
<path d="M750.167 540.039C750.396 539.925 750.606 539.791 750.816 539.677C750.816 539.715 750.816 539.753 750.816 539.791C750.816 549.733 745.452 558.416 737.454 563.111C737.359 563.054 737.282 563.015 737.187 562.958C737.244 553.245 742.417 544.753 750.148 540.039L750.167 540.039Z" stroke="#00A583" stroke-width="0.25" stroke-miterlimit="10"/>
<path d="M750.816 539.753C750.816 539.753 750.816 539.696 750.816 539.657C750.816 539.657 750.835 539.657 750.854 539.638C751.083 539.772 751.312 539.906 751.56 540.039C759.33 544.772 764.503 553.321 764.522 563.092C764.522 563.092 764.503 563.092 764.484 563.111C763.911 562.786 763.319 562.481 762.727 562.195C755.531 557.329 750.816 549.104 750.816 539.772L750.816 539.753Z" stroke="#00A583" stroke-width="0.25" stroke-miterlimit="10"/>
<path d="M750.167 540.039C746.388 542.043 742.073 543.188 737.473 543.188C732.605 543.188 728.024 541.89 724.073 539.638C728.024 537.387 732.586 536.089 737.473 536.089C742.054 536.089 746.369 537.234 750.167 539.238C750.377 539.371 750.606 539.486 750.816 539.619C750.816 539.619 750.816 539.619 750.816 539.657C750.587 539.791 750.377 539.906 750.167 540.039Z" stroke="#00A583" stroke-width="0.25" stroke-miterlimit="10"/>
<path d="M751.561 540.039C751.331 539.906 751.102 539.772 750.873 539.638C751.102 539.505 751.331 539.371 751.561 539.238C755.34 537.234 759.654 536.089 764.235 536.089C769.103 536.089 773.684 537.387 777.636 539.638C773.684 541.89 769.103 543.188 764.235 543.188C759.654 543.188 755.34 542.043 751.561 540.039Z" stroke="#00A583" stroke-width="0.25" stroke-miterlimit="10"/>
<path d="M737.206 516.567C737.206 516.567 737.339 516.49 737.416 516.452C745.395 521.108 750.759 529.734 750.816 539.619C750.606 539.505 750.377 539.371 750.167 539.257C742.493 534.581 737.359 526.185 737.206 516.586L737.206 516.567Z" stroke="#00A583" stroke-width="0.25" stroke-miterlimit="10"/>
<path d="M751.56 539.238C751.331 539.371 751.083 539.486 750.854 539.638C750.854 539.638 750.835 539.638 750.816 539.619C750.873 530.364 755.55 522.215 762.689 517.387C763.3 517.101 763.892 516.777 764.484 516.452C764.484 516.452 764.503 516.452 764.522 516.452C764.407 526.108 759.253 534.543 751.56 539.238Z" stroke="#00A583" stroke-width="0.25" stroke-miterlimit="10"/>
<path d="M836.238 540.096L807.815 540.02" stroke="#00A583" stroke-width="0.25" stroke-miterlimit="10"/>
<path d="M834.501 543.092L806.078 543.016" stroke="#00A583" stroke-width="0.25" stroke-miterlimit="10"/>
<path d="M833.184 545.86L804.761 545.783" stroke="#00A583" stroke-width="0.25" stroke-miterlimit="10"/>
<path d="M831.046 549.275L802.623 549.199" stroke="#00A583" stroke-width="0.25" stroke-miterlimit="10"/>
<path d="M829.099 552.386L800.676 552.31" stroke="#00A583" stroke-width="0.25" stroke-miterlimit="10"/>
<path d="M827.362 555.382L798.939 555.306" stroke="#00A583" stroke-width="0.25" stroke-miterlimit="10"/>
<path d="M826.045 558.13L797.622 558.054" stroke="#00A583" stroke-width="0.25" stroke-miterlimit="10"/>
<path d="M823.907 561.546L795.484 561.47" stroke="#00A583" stroke-width="0.25" stroke-miterlimit="10"/>
<path d="M722.66 540.096L694.237 540.02" stroke="#00A583" stroke-width="0.25" stroke-miterlimit="10"/>
<path d="M720.923 543.092L692.5 543.016" stroke="#00A583" stroke-width="0.25" stroke-miterlimit="10"/>
<path d="M719.606 545.86L691.183 545.783" stroke="#00A583" stroke-width="0.25" stroke-miterlimit="10"/>
<path d="M717.468 549.275L689.045 549.199" stroke="#00A583" stroke-width="0.25" stroke-miterlimit="10"/>
<path d="M715.521 552.386L687.098 552.31" stroke="#00A583" stroke-width="0.25" stroke-miterlimit="10"/>
<path d="M713.784 555.382L685.361 555.306" stroke="#00A583" stroke-width="0.25" stroke-miterlimit="10"/>
<path d="M712.467 558.13L684.044 558.054" stroke="#00A583" stroke-width="0.25" stroke-miterlimit="10"/>
<path d="M710.329 561.546L681.906 561.47" stroke="#00A583" stroke-width="0.25" stroke-miterlimit="10"/>
<path d="M269.399 490.747L283.677 515.326" stroke="#00A583" stroke-width="0.25" stroke-miterlimit="10"/>
<path d="M272.873 490.747L287.132 515.307" stroke="#00A583" stroke-width="0.25" stroke-miterlimit="10"/>
<path d="M275.908 490.499L290.187 515.059" stroke="#00A583" stroke-width="0.25" stroke-miterlimit="10"/>
<path d="M279.936 490.613L294.214 515.174" stroke="#00A583" stroke-width="0.25" stroke-miterlimit="10"/>
<path d="M283.62 490.728L297.879 515.288" stroke="#00A583" stroke-width="0.25" stroke-miterlimit="10"/>
<path d="M287.075 490.709L301.354 515.269" stroke="#00A583" stroke-width="0.25" stroke-miterlimit="10"/>
<path d="M290.129 490.461L304.388 515.021" stroke="#00A583" stroke-width="0.25" stroke-miterlimit="10"/>
<path d="M294.157 490.575L308.416 515.135" stroke="#00A583" stroke-width="0.25" stroke-miterlimit="10"/>
<path d="M1175.18 441.493L1160.98 466.091L1175.18 490.69L1203.6 490.69L1217.8 466.091L1203.6 441.493L1175.18 441.493Z" stroke="#00A583" stroke-width="0.25" stroke-miterlimit="10"/>
<path d="M1175.18 392.544L1160.98 417.142L1175.18 441.741L1203.6 441.741L1217.8 417.142L1203.6 392.544L1175.18 392.544Z" stroke="#00A583" stroke-width="0.25" stroke-miterlimit="10"/>
<path d="M1217.8 515.307L1203.6 490.69L1175.18 490.69L1160.98 515.307L1175.18 539.906L1203.6 539.906" stroke="#00A583" stroke-width="0.25" stroke-miterlimit="10"/>
<path d="M1219.33 561.393L1205.11 536.795" stroke="#00A583" stroke-width="0.25" stroke-miterlimit="10"/>
<path d="M1221.05 558.397L1206.85 533.799" stroke="#00A583" stroke-width="0.25" stroke-miterlimit="10"/>
<path d="M1222.78 555.401L1208.58 530.803" stroke="#00A583" stroke-width="0.25" stroke-miterlimit="10"/>
<path d="M1224.52 552.424L1210.32 527.807" stroke="#00A583" stroke-width="0.25" stroke-miterlimit="10"/>
<path d="M1226.26 549.085L1212.06 524.486" stroke="#00A583" stroke-width="0.25" stroke-miterlimit="10"/>
<path d="M1228 546.108L1213.79 521.49" stroke="#00A583" stroke-width="0.25" stroke-miterlimit="10"/>
<path d="M1202.13 346.191L1173.71 346.114" stroke="#00A583" stroke-width="0.25" stroke-miterlimit="10"/>
<path d="M1200.39 349.187L1171.97 349.11" stroke="#00A583" stroke-width="0.25" stroke-miterlimit="10"/>
<path d="M1199.08 351.954L1170.65 351.858" stroke="#00A583" stroke-width="0.25" stroke-miterlimit="10"/>
<path d="M1196.94 355.37L1168.53 355.274" stroke="#00A583" stroke-width="0.25" stroke-miterlimit="10"/>
<path d="M1194.99 358.48L1166.57 358.404" stroke="#00A583" stroke-width="0.25" stroke-miterlimit="10"/>
<path d="M1193.25 361.476L1164.83 361.4" stroke="#00A583" stroke-width="0.25" stroke-miterlimit="10"/>
<path d="M1191.94 364.224L1163.51 364.148" stroke="#00A583" stroke-width="0.25" stroke-miterlimit="10"/>
<path d="M1189.8 367.64L1161.39 367.564" stroke="#00A583" stroke-width="0.25" stroke-miterlimit="10"/>
<path d="M1161.19 515.307L1132.51 515.307" stroke="#00A583" stroke-width="0.25" stroke-miterlimit="10"/>
<path d="M1188.69 318.787C1188.92 318.673 1189.13 318.539 1189.34 318.424C1189.34 318.463 1189.34 318.501 1189.34 318.539C1189.34 328.481 1183.98 337.164 1175.98 341.859C1175.88 341.802 1175.81 341.763 1175.71 341.706C1175.77 331.993 1180.94 323.501 1188.67 318.787L1188.69 318.787Z" stroke="#00A583" stroke-width="0.25" stroke-miterlimit="10"/>
<path d="M1189.34 318.52C1189.34 318.52 1189.34 318.463 1189.34 318.424C1189.34 318.424 1189.36 318.424 1189.38 318.405C1189.61 318.539 1189.84 318.673 1190.09 318.806C1197.85 323.539 1203.03 332.088 1203.05 341.859C1203.05 341.859 1203.03 341.859 1203.01 341.878C1202.44 341.553 1201.84 341.248 1201.25 340.962C1194.06 336.096 1189.34 327.871 1189.34 318.539L1189.34 318.52Z" stroke="#00A583" stroke-width="0.25" stroke-miterlimit="10"/>
<path d="M1188.69 318.787C1184.91 320.791 1180.6 321.936 1176 321.936C1171.13 321.936 1166.55 320.638 1162.6 318.386C1166.55 316.134 1171.11 314.837 1176 314.837C1180.58 314.837 1184.89 315.982 1188.69 317.986C1188.9 318.119 1189.13 318.234 1189.34 318.367C1189.34 318.367 1189.34 318.367 1189.34 318.405C1189.11 318.539 1188.9 318.653 1188.69 318.787Z" stroke="#00A583" stroke-width="0.25" stroke-miterlimit="10"/>
<path d="M1190.09 318.787C1189.86 318.653 1189.63 318.52 1189.4 318.386C1189.63 318.253 1189.86 318.119 1190.09 317.986C1193.87 315.982 1198.18 314.837 1202.76 314.837C1207.63 314.837 1212.21 316.134 1216.16 318.386C1212.21 320.638 1207.63 321.936 1202.76 321.936C1198.18 321.936 1193.87 320.791 1190.09 318.787Z" stroke="#00A583" stroke-width="0.25" stroke-miterlimit="10"/>
<path d="M1175.73 295.315C1175.73 295.315 1175.86 295.238 1175.94 295.2C1183.92 299.856 1189.28 308.482 1189.34 318.367C1189.13 318.253 1188.9 318.119 1188.69 318.005C1181.02 313.329 1175.88 304.933 1175.73 295.334L1175.73 295.315Z" stroke="#00A583" stroke-width="0.25" stroke-miterlimit="10"/>
<path d="M1190.09 317.986C1189.86 318.119 1189.61 318.234 1189.38 318.386C1189.38 318.386 1189.36 318.386 1189.34 318.367C1189.4 309.112 1194.08 300.963 1201.21 296.135C1201.83 295.849 1202.42 295.524 1203.01 295.2C1203.01 295.2 1203.03 295.2 1203.05 295.2C1202.93 304.856 1197.78 313.291 1190.09 317.986Z" stroke="#00A583" stroke-width="0.25" stroke-miterlimit="10"/>
<path d="M1075.8 318.959C1076.03 318.844 1076.24 318.73 1076.47 318.596C1076.47 318.634 1076.47 318.673 1076.47 318.73C1076.47 328.672 1071.11 337.355 1063.11 342.05C1063.01 341.992 1062.94 341.954 1062.84 341.897C1062.9 332.184 1068.07 323.691 1075.8 318.978L1075.8 318.959Z" stroke="#00A583" stroke-width="0.25" stroke-miterlimit="10"/>
<path d="M1076.45 318.692C1076.45 318.692 1076.45 318.634 1076.45 318.596C1076.45 318.596 1076.47 318.596 1076.49 318.596C1076.72 318.73 1076.95 318.863 1077.19 318.978C1084.96 323.73 1090.14 332.26 1090.16 342.031C1090.16 342.031 1090.14 342.031 1090.12 342.05C1089.55 341.725 1088.95 341.42 1088.36 341.134C1081.17 336.267 1076.45 328.042 1076.45 318.711L1076.45 318.692Z" stroke="#00A583" stroke-width="0.25" stroke-miterlimit="10"/>
<path d="M1075.8 318.959C1072.02 320.963 1067.71 322.108 1063.11 322.108C1058.24 322.108 1053.66 320.81 1049.71 318.558C1053.66 316.306 1058.22 315.009 1063.11 315.009C1067.69 315.009 1072 316.154 1075.8 318.157C1076.01 318.291 1076.24 318.405 1076.45 318.539L1076.45 318.577C1076.22 318.711 1076.01 318.825 1075.8 318.959Z" stroke="#00A583" stroke-width="0.25" stroke-miterlimit="10"/>
<path d="M1077.19 318.959C1076.97 318.825 1076.74 318.692 1076.51 318.558C1076.74 318.424 1076.97 318.31 1077.19 318.157C1080.97 316.154 1085.29 315.009 1089.87 315.009C1094.76 315.009 1099.32 316.306 1103.27 318.558C1099.32 320.81 1094.76 322.108 1089.87 322.108C1085.29 322.108 1080.97 320.963 1077.19 318.959Z" stroke="#00A583" stroke-width="0.25" stroke-miterlimit="10"/>
<path d="M1062.84 295.486C1062.84 295.486 1062.97 295.41 1063.05 295.372C1071.01 300.028 1076.39 308.654 1076.45 318.539C1076.24 318.425 1076.01 318.291 1075.8 318.176C1068.13 313.501 1062.99 305.104 1062.84 295.486Z" stroke="#00A583" stroke-width="0.25" stroke-miterlimit="10"/>
<path d="M1077.19 318.157C1076.97 318.272 1076.72 318.405 1076.49 318.539C1076.49 318.539 1076.47 318.539 1076.45 318.539C1076.51 309.284 1081.2 301.135 1088.32 296.307C1088.93 296.021 1089.53 295.696 1090.12 295.372C1090.12 295.372 1090.14 295.372 1090.16 295.372C1090.04 305.028 1084.89 313.463 1077.19 318.157Z" stroke="#00A583" stroke-width="0.25" stroke-miterlimit="10"/>
<path d="M918.892 540.535C919.121 540.421 919.331 540.287 919.56 540.173C919.56 540.211 919.56 540.249 919.56 540.306C919.56 550.249 914.196 558.932 906.198 563.626C906.103 563.569 906.026 563.531 905.931 563.473C905.988 553.76 911.161 545.268 918.892 540.554L918.892 540.535Z" stroke="#00A583" stroke-width="0.25" stroke-miterlimit="10"/>
<path d="M919.541 540.268C919.541 540.268 919.541 540.211 919.541 540.173C919.541 540.173 919.56 540.173 919.579 540.154C919.808 540.287 920.037 540.421 920.286 540.535C928.055 545.287 933.228 553.817 933.247 563.588C933.247 563.588 933.228 563.588 933.209 563.607C932.636 563.283 932.044 562.977 931.452 562.691C924.256 557.825 919.541 549.6 919.541 540.268Z" stroke="#00A583" stroke-width="0.25" stroke-miterlimit="10"/>
<path d="M918.892 540.535C915.113 542.539 910.799 543.684 906.198 543.684C901.331 543.684 896.749 542.386 892.798 540.135C896.749 537.883 901.312 536.585 906.198 536.585C910.78 536.585 915.094 537.73 918.892 539.734C919.102 539.867 919.331 539.982 919.541 540.115L919.541 540.154C919.312 540.287 919.102 540.402 918.892 540.535Z" stroke="#00A583" stroke-width="0.25" stroke-miterlimit="10"/>
<path d="M920.286 540.535C920.057 540.402 919.828 540.268 919.598 540.135C919.828 540.001 920.057 539.867 920.286 539.734C924.065 537.73 928.379 536.585 932.961 536.585C937.847 536.585 942.409 537.883 946.361 540.135C942.409 542.386 937.847 543.684 932.961 543.684C928.379 543.684 924.065 542.539 920.286 540.535Z" stroke="#00A583" stroke-width="0.25" stroke-miterlimit="10"/>
<path d="M905.931 517.063C905.931 517.063 906.065 516.986 906.141 516.948C914.101 521.605 919.484 530.23 919.541 540.115C919.331 540.001 919.102 539.867 918.892 539.753C911.219 535.077 906.084 526.681 905.931 517.063Z" stroke="#00A583" stroke-width="0.25" stroke-miterlimit="10"/>
<path d="M920.286 539.753C920.057 539.886 919.808 540.001 919.579 540.135C919.579 540.135 919.56 540.135 919.541 540.115C919.598 530.86 924.294 522.711 931.414 517.883C932.025 517.597 932.617 517.273 933.209 516.948C933.209 516.948 933.228 516.948 933.247 516.948C933.132 526.604 927.978 535.039 920.286 539.734L920.286 539.753Z" stroke="#00A583" stroke-width="0.25" stroke-miterlimit="10"/>
<path d="M42.8922 490.67L28.6902 515.288L42.8922 539.886L71.3153 539.886L85.5173 515.288L71.3153 490.67L42.8922 490.67Z" stroke="#00A583" stroke-width="0.25" stroke-miterlimit="10"/>
<path d="M99.433 490.67L85.2119 515.288L99.433 539.886L127.837 539.886L142.058 515.288L127.837 490.67L99.433 490.67Z" stroke="#00A583" stroke-width="0.25" stroke-miterlimit="10"/>
<path d="M567.66 515.173L553.439 539.772L567.66 564.37L596.064 564.37L610.285 539.772L596.064 515.173L567.66 515.173Z" stroke="#00A583" stroke-width="0.25" stroke-miterlimit="10"/>
<path d="M624.182 515.173L609.98 539.772L624.182 564.37L652.605 564.37L666.807 539.772L652.605 515.173L624.182 515.173Z" stroke="#00A583" stroke-width="0.25" stroke-miterlimit="10"/>
<path d="M1062.44 343.042L1048.24 367.64L1062.44 392.239L1090.86 392.239L1105.06 367.64L1090.86 343.042L1062.44 343.042Z" stroke="#00A583" stroke-width="0.25" stroke-miterlimit="10"/>
<path d="M1118.98 343.042L1104.76 367.64L1118.98 392.239L1147.38 392.239L1161.6 367.64L1147.38 343.042L1118.98 343.042Z" stroke="#00A583" stroke-width="0.25" stroke-miterlimit="10"/>
<path d="M1103.14 364.492L1117.34 339.874" stroke="#00A583" stroke-width="0.25" stroke-miterlimit="10"/>
<path d="M1101.4 361.496L1115.6 336.878" stroke="#00A583" stroke-width="0.25" stroke-miterlimit="10"/>
<path d="M1099.66 358.499L1113.88 333.901" stroke="#00A583" stroke-width="0.25" stroke-miterlimit="10"/>
<path d="M1097.93 355.503L1112.15 330.905" stroke="#00A583" stroke-width="0.25" stroke-miterlimit="10"/>
<path d="M1096.19 352.183L1110.41 327.584" stroke="#00A583" stroke-width="0.25" stroke-miterlimit="10"/>
<path d="M1094.47 349.187L1108.67 324.588" stroke="#00A583" stroke-width="0.25" stroke-miterlimit="10"/>
<path d="M1092.73 346.191L1106.94 321.592" stroke="#00A583" stroke-width="0.25" stroke-miterlimit="10"/>
<path d="M1062.44 294.093L1048.24 318.692L1062.44 343.29L1090.86 343.29L1105.06 318.692L1090.86 294.093L1062.44 294.093Z" stroke="#00A583" stroke-width="0.25" stroke-miterlimit="10"/>
<path d="M1118.98 294.093L1104.76 318.692L1118.98 343.29L1147.38 343.29L1161.6 318.692L1147.38 294.093L1118.98 294.093Z" stroke="#00A583" stroke-width="0.25" stroke-miterlimit="10"/>
<path d="M1106.71 315.505L1092.48 290.906" stroke="#00A583" stroke-width="0.25" stroke-miterlimit="10"/>
<path d="M1108.42 312.509L1094.22 287.91" stroke="#00A583" stroke-width="0.25" stroke-miterlimit="10"/>
<path d="M1110.16 309.513L1095.96 284.914" stroke="#00A583" stroke-width="0.25" stroke-miterlimit="10"/>
<path d="M1111.9 306.536L1097.7 281.918" stroke="#00A583" stroke-width="0.25" stroke-miterlimit="10"/>
<path d="M1113.64 303.196L1099.43 278.598" stroke="#00A583" stroke-width="0.25" stroke-miterlimit="10"/>
<path d="M1115.37 300.219L1101.17 275.602" stroke="#00A583" stroke-width="0.25" stroke-miterlimit="10"/>
<path d="M1117.11 297.223L1102.89 272.624" stroke="#00A583" stroke-width="0.25" stroke-miterlimit="10"/>
<path d="M44.6294 493.915L30.4274 518.513" stroke="#00A583" stroke-width="0.25" stroke-miterlimit="10"/>
<path d="M46.3665 496.911L32.1453 521.509" stroke="#00A583" stroke-width="0.25" stroke-miterlimit="10"/>
<path d="M48.1035 499.43L33.8825 524.028" stroke="#00A583" stroke-width="0.25" stroke-miterlimit="10"/>
<path d="M49.9934 502.979L35.7914 527.578" stroke="#00A583" stroke-width="0.25" stroke-miterlimit="10"/>
<path d="M51.7305 506.223L37.5285 530.822" stroke="#00A583" stroke-width="0.25" stroke-miterlimit="10"/>
<path d="M53.4673 509.219L39.2653 533.818" stroke="#00A583" stroke-width="0.25" stroke-miterlimit="10"/>
<path d="M55.2046 511.738L40.9835 536.337" stroke="#00A583" stroke-width="0.25" stroke-miterlimit="10"/>
<path d="M57.0942 515.288L42.8922 539.886" stroke="#00A583" stroke-width="0.25" stroke-miterlimit="10"/>
<path d="M382.251 491.109L368.049 515.727" stroke="#00A583" stroke-width="0.25" stroke-miterlimit="10"/>
<path d="M383.989 494.105L369.767 518.723" stroke="#00A583" stroke-width="0.25" stroke-miterlimit="10"/>
<path d="M385.726 496.624L371.504 521.223" stroke="#00A583" stroke-width="0.25" stroke-miterlimit="10"/>
<path d="M387.615 500.174L373.413 524.772" stroke="#00A583" stroke-width="0.25" stroke-miterlimit="10"/>
<path d="M389.352 503.418L375.15 528.017" stroke="#00A583" stroke-width="0.25" stroke-miterlimit="10"/>
<path d="M391.089 506.414L376.887 531.013" stroke="#00A583" stroke-width="0.25" stroke-miterlimit="10"/>
<path d="M392.827 508.933L378.606 533.532" stroke="#00A583" stroke-width="0.25" stroke-miterlimit="10"/>
<path d="M394.716 512.483L380.514 537.081" stroke="#00A583" stroke-width="0.25" stroke-miterlimit="10"/>
<path d="M439.537 490.823L425.316 515.422" stroke="#00A583" stroke-width="0.25" stroke-miterlimit="10"/>
<path d="M441.274 493.819L427.053 518.437" stroke="#00A583" stroke-width="0.25" stroke-miterlimit="10"/>
<path d="M442.992 496.338L428.79 520.937" stroke="#00A583" stroke-width="0.25" stroke-miterlimit="10"/>
<path d="M444.9 499.888L430.698 524.486" stroke="#00A583" stroke-width="0.25" stroke-miterlimit="10"/>
<path d="M446.637 503.132L432.416 527.73" stroke="#00A583" stroke-width="0.25" stroke-miterlimit="10"/>
<path d="M448.375 506.128L434.153 530.726" stroke="#00A583" stroke-width="0.25" stroke-miterlimit="10"/>
<path d="M450.112 508.647L435.891 533.245" stroke="#00A583" stroke-width="0.25" stroke-miterlimit="10"/>
<path d="M452.001 512.197L437.799 536.795" stroke="#00A583" stroke-width="0.25" stroke-miterlimit="10"/>
<path d="M1064.18 346.553L1049.97 371.152" stroke="#00A583" stroke-width="0.25" stroke-miterlimit="10"/>
<path d="M1065.91 349.549L1051.71 374.148" stroke="#00A583" stroke-width="0.25" stroke-miterlimit="10"/>
<path d="M1067.65 352.068L1053.43 376.667" stroke="#00A583" stroke-width="0.25" stroke-miterlimit="10"/>
<path d="M1069.54 355.618L1055.34 380.216" stroke="#00A583" stroke-width="0.25" stroke-miterlimit="10"/>
<path d="M1071.28 358.843L1057.08 383.46" stroke="#00A583" stroke-width="0.25" stroke-miterlimit="10"/>
<path d="M1073.01 361.839L1058.81 386.457" stroke="#00A583" stroke-width="0.25" stroke-miterlimit="10"/>
<path d="M1074.75 364.358L1060.55 388.956" stroke="#00A583" stroke-width="0.25" stroke-miterlimit="10"/>
<path d="M1076.66 367.908L1062.44 392.525" stroke="#00A583" stroke-width="0.25" stroke-miterlimit="10"/>
<path d="M101.151 493.915L86.9491 518.513" stroke="#00A583" stroke-width="0.25" stroke-miterlimit="10"/>
<path d="M102.888 496.911L88.6862 521.509" stroke="#00A583" stroke-width="0.25" stroke-miterlimit="10"/>
<path d="M104.625 499.43L90.4232 524.028" stroke="#00A583" stroke-width="0.25" stroke-miterlimit="10"/>
<path d="M106.534 502.979L92.3131 527.578" stroke="#00A583" stroke-width="0.25" stroke-miterlimit="10"/>
<path d="M108.271 506.223L94.0501 530.822" stroke="#00A583" stroke-width="0.25" stroke-miterlimit="10"/>
<path d="M109.989 509.219L95.7873 533.818" stroke="#00A583" stroke-width="0.25" stroke-miterlimit="10"/>
<path d="M111.726 511.738L97.5243 536.337" stroke="#00A583" stroke-width="0.25" stroke-miterlimit="10"/>
<path d="M113.635 515.288L99.433 539.886" stroke="#00A583" stroke-width="0.25" stroke-miterlimit="10"/>
<path d="M637.696 540.039C637.926 539.925 638.135 539.791 638.345 539.677C638.345 539.715 638.345 539.753 638.345 539.791C638.345 549.733 632.982 558.416 624.983 563.111C624.888 563.054 624.812 563.015 624.716 562.958C624.773 553.245 629.946 544.753 637.677 540.039L637.696 540.039Z" stroke="#00A583" stroke-width="0.25" stroke-miterlimit="10"/>
<path d="M638.345 539.753C638.345 539.753 638.345 539.696 638.345 539.657C638.345 539.657 638.364 539.657 638.384 539.638C638.613 539.772 638.842 539.906 639.09 540.039C646.859 544.772 652.032 553.321 652.051 563.092C652.051 563.092 652.032 563.092 652.013 563.111C651.44 562.786 650.848 562.481 650.257 562.195C643.06 557.329 638.345 549.104 638.345 539.772L638.345 539.753Z" stroke="#00A583" stroke-width="0.25" stroke-miterlimit="10"/>
<path d="M637.696 540.039C633.917 542.043 629.603 543.188 625.002 543.188C620.135 543.188 615.554 541.89 611.602 539.638C615.554 537.386 620.116 536.089 625.002 536.089C629.584 536.089 633.898 537.234 637.696 539.238C637.906 539.371 638.135 539.486 638.345 539.619C638.345 539.619 638.345 539.619 638.345 539.657C638.116 539.791 637.906 539.905 637.696 540.039Z" stroke="#00A583" stroke-width="0.25" stroke-miterlimit="10"/>
<path d="M639.09 540.039C638.861 539.905 638.632 539.772 638.403 539.638C638.632 539.505 638.861 539.371 639.09 539.238C642.869 537.234 647.183 536.089 651.765 536.089C656.632 536.089 661.214 537.386 665.165 539.638C661.214 541.89 656.632 543.188 651.765 543.188C647.183 543.188 642.869 542.043 639.09 540.039Z" stroke="#00A583" stroke-width="0.25" stroke-miterlimit="10"/>
<path d="M624.735 516.567C624.735 516.567 624.869 516.49 624.945 516.452C632.924 521.108 638.288 529.734 638.345 539.619C638.135 539.505 637.906 539.371 637.696 539.257C630.023 534.581 624.888 526.185 624.735 516.586L624.735 516.567Z" stroke="#00A583" stroke-width="0.25" stroke-miterlimit="10"/>
<path d="M639.09 539.238C638.861 539.371 638.613 539.486 638.384 539.638C638.384 539.638 638.364 539.638 638.345 539.619C638.403 530.364 643.079 522.215 650.219 517.387C650.829 517.101 651.421 516.776 652.013 516.452C652.013 516.452 652.032 516.452 652.051 516.452C651.936 526.108 646.783 534.543 639.09 539.238Z" stroke="#00A583" stroke-width="0.25" stroke-miterlimit="10"/>
<path d="M610.247 540.096L581.824 540.02" stroke="#00A583" stroke-width="0.25" stroke-miterlimit="10"/>
<path d="M608.51 543.092L580.087 543.016" stroke="#00A583" stroke-width="0.25" stroke-miterlimit="10"/>
<path d="M607.193 545.859L578.77 545.783" stroke="#00A583" stroke-width="0.25" stroke-miterlimit="10"/>
<path d="M605.055 549.275L576.632 549.199" stroke="#00A583" stroke-width="0.25" stroke-miterlimit="10"/>
<path d="M603.108 552.386L574.685 552.31" stroke="#00A583" stroke-width="0.25" stroke-miterlimit="10"/>
<path d="M601.371 555.382L572.947 555.306" stroke="#00A583" stroke-width="0.25" stroke-miterlimit="10"/>
<path d="M600.053 558.13L571.63 558.054" stroke="#00A583" stroke-width="0.25" stroke-miterlimit="10"/>
<path d="M597.916 561.546L569.492 561.47" stroke="#00A583" stroke-width="0.25" stroke-miterlimit="10"/>
<path d="M1135 318.692L1106.32 318.692" stroke="#00A583" stroke-width="0.25" stroke-miterlimit="10"/>
<path d="M28.6521 515.021L4.8314e-05 515.021" stroke="#00A583" stroke-width="0.25" stroke-miterlimit="10"/>
<path d="M1062.44 441.493L1048.24 466.091L1062.44 490.69L1090.86 490.69L1105.06 466.091L1090.86 441.493L1062.44 441.493Z" stroke="#00A583" stroke-width="0.25" stroke-miterlimit="10"/>
<path d="M1118.98 441.493L1104.76 466.091L1118.98 490.69L1147.38 490.69L1161.6 466.091L1147.38 441.493L1118.98 441.493Z" stroke="#00A583" stroke-width="0.25" stroke-miterlimit="10"/>
<path d="M1062.44 392.544L1048.24 417.142L1062.44 441.741L1090.86 441.741L1105.06 417.142L1090.86 392.544L1062.44 392.544Z" stroke="#00A583" stroke-width="0.25" stroke-miterlimit="10"/>
<path d="M1118.98 392.544L1104.76 417.142L1118.98 441.741L1147.38 441.741L1161.6 417.142L1147.38 392.544L1118.98 392.544Z" stroke="#00A583" stroke-width="0.25" stroke-miterlimit="10"/>
<path d="M1149.01 0.248195L1134.8 24.8466L1149.01 49.445L1177.43 49.445L1191.63 24.8466L1177.43 0.248197L1149.01 0.248195Z" stroke="#00A583" stroke-width="0.25" stroke-miterlimit="10"/>
<path d="M1205.55 0.248195L1191.33 24.8466L1205.55 49.445L1233.95 49.445L1248.17 24.8466L1233.95 0.248197L1205.55 0.248195Z" stroke="#00A583" stroke-width="0.25" stroke-miterlimit="10"/>
<path d="M1150.74 3.75954L1136.54 28.358" stroke="#00A583" stroke-width="0.25" stroke-miterlimit="10"/>
<path d="M1152.48 6.75563L1138.28 31.354" stroke="#00A583" stroke-width="0.25" stroke-miterlimit="10"/>
<path d="M1154.22 9.27464L1140 33.873" stroke="#00A583" stroke-width="0.25" stroke-miterlimit="10"/>
<path d="M1156.11 12.8241L1141.91 37.4225" stroke="#00A583" stroke-width="0.25" stroke-miterlimit="10"/>
<path d="M1157.84 16.0683L1143.64 40.6667" stroke="#00A583" stroke-width="0.25" stroke-miterlimit="10"/>
<path d="M1159.58 19.0644L1145.38 43.6628" stroke="#00A583" stroke-width="0.25" stroke-miterlimit="10"/>
<path d="M1161.32 21.5643L1147.12 46.1818" stroke="#00A583" stroke-width="0.25" stroke-miterlimit="10"/>
<path d="M1163.23 25.1138L1149.01 49.7313" stroke="#00A583" stroke-width="0.25" stroke-miterlimit="10"/>
<path d="M1149.01 49.7504L1134.8 74.3488L1149.01 98.9662L1177.43 98.9662L1191.63 74.3488L1177.43 49.7504L1149.01 49.7504Z" stroke="#00A583" stroke-width="0.25" stroke-miterlimit="10"/>
<path d="M1205.55 49.7504L1191.33 74.3488L1205.55 98.9662L1233.95 98.9662L1248.17 74.3488L1233.95 49.7504L1205.55 49.7504Z" stroke="#00A583" stroke-width="0.25" stroke-miterlimit="10"/>
<path d="M1105.06 515.307L1090.86 490.69L1062.44 490.69L1048.24 515.307L1062.44 539.906L1090.86 539.906" stroke="#00A583" stroke-width="0.25" stroke-miterlimit="10"/>
<path d="M1118.98 490.69L1104.76 515.307L1118.98 539.906L1147.38 539.906L1161.6 515.307L1147.38 490.69L1118.98 490.69Z" stroke="#00A583" stroke-width="0.25" stroke-miterlimit="10"/>
<path d="M1064.18 537.119L1049.97 512.521" stroke="#00A583" stroke-width="0.25" stroke-miterlimit="10"/>
<path d="M1065.91 534.123L1051.71 509.525" stroke="#00A583" stroke-width="0.25" stroke-miterlimit="10"/>
<path d="M1067.65 531.127L1053.43 506.529" stroke="#00A583" stroke-width="0.25" stroke-miterlimit="10"/>
<path d="M1069.39 528.15L1055.17 503.533" stroke="#00A583" stroke-width="0.25" stroke-miterlimit="10"/>
<path d="M1071.12 524.811L1056.9 500.212" stroke="#00A583" stroke-width="0.25" stroke-miterlimit="10"/>
<path d="M1072.84 521.834L1058.64 497.216" stroke="#00A583" stroke-width="0.25" stroke-miterlimit="10"/>
<path d="M1074.58 518.838L1060.38 494.22" stroke="#00A583" stroke-width="0.25" stroke-miterlimit="10"/>
<path d="M1106.71 561.05L1092.48 536.451" stroke="#00A583" stroke-width="0.25" stroke-miterlimit="10"/>
<path d="M1108.42 558.054L1094.22 533.455" stroke="#00A583" stroke-width="0.25" stroke-miterlimit="10"/>
<path d="M1110.16 555.077L1095.96 530.459" stroke="#00A583" stroke-width="0.25" stroke-miterlimit="10"/>
<path d="M1111.9 552.081L1097.7 527.482" stroke="#00A583" stroke-width="0.25" stroke-miterlimit="10"/>
<path d="M1113.64 548.76L1099.43 524.143" stroke="#00A583" stroke-width="0.25" stroke-miterlimit="10"/>
<path d="M1115.37 545.764L1101.17 521.166" stroke="#00A583" stroke-width="0.25" stroke-miterlimit="10"/>
<path d="M1117.11 542.768L1102.89 518.17" stroke="#00A583" stroke-width="0.25" stroke-miterlimit="10"/>
<path d="M1064.18 444.737L1049.97 469.335" stroke="#00A583" stroke-width="0.25" stroke-miterlimit="10"/>
<path d="M1065.91 447.733L1051.71 472.331" stroke="#00A583" stroke-width="0.25" stroke-miterlimit="10"/>
<path d="M1067.65 450.233L1053.43 474.85" stroke="#00A583" stroke-width="0.25" stroke-miterlimit="10"/>
<path d="M1069.54 453.782L1055.34 478.4" stroke="#00A583" stroke-width="0.25" stroke-miterlimit="10"/>
<path d="M1071.28 457.027L1057.08 481.644" stroke="#00A583" stroke-width="0.25" stroke-miterlimit="10"/>
<path d="M1073.01 460.023L1058.81 484.64" stroke="#00A583" stroke-width="0.25" stroke-miterlimit="10"/>
<path d="M1074.75 462.542L1060.55 487.14" stroke="#00A583" stroke-width="0.25" stroke-miterlimit="10"/>
<path d="M1076.66 466.091L1062.44 490.69" stroke="#00A583" stroke-width="0.25" stroke-miterlimit="10"/>
<path d="M934.488 466.549L920.286 491.148" stroke="#00A583" stroke-width="0.25" stroke-miterlimit="10"/>
<path d="M936.225 469.545L922.023 494.144" stroke="#00A583" stroke-width="0.25" stroke-miterlimit="10"/>
<path d="M937.962 472.064L923.76 496.663" stroke="#00A583" stroke-width="0.25" stroke-miterlimit="10"/>
<path d="M939.871 475.614L925.65 500.212" stroke="#00A583" stroke-width="0.25" stroke-miterlimit="10"/>
<path d="M941.608 478.858L927.387 503.456" stroke="#00A583" stroke-width="0.25" stroke-miterlimit="10"/>
<path d="M943.326 481.854L929.124 506.452" stroke="#00A583" stroke-width="0.25" stroke-miterlimit="10"/>
<path d="M945.063 484.354L930.861 508.971" stroke="#00A583" stroke-width="0.25" stroke-miterlimit="10"/>
<path d="M946.972 487.923L932.77 512.521" stroke="#00A583" stroke-width="0.25" stroke-miterlimit="10"/>
<path d="M1120.72 444.737L1106.5 469.335" stroke="#00A583" stroke-width="0.25" stroke-miterlimit="10"/>
<path d="M1122.44 447.733L1108.23 472.331" stroke="#00A583" stroke-width="0.25" stroke-miterlimit="10"/>
<path d="M1124.17 450.233L1109.97 474.85" stroke="#00A583" stroke-width="0.25" stroke-miterlimit="10"/>
<path d="M1126.08 453.782L1111.86 478.4" stroke="#00A583" stroke-width="0.25" stroke-miterlimit="10"/>
<path d="M1127.82 457.027L1113.6 481.644" stroke="#00A583" stroke-width="0.25" stroke-miterlimit="10"/>
<path d="M1129.56 460.023L1115.33 484.64" stroke="#00A583" stroke-width="0.25" stroke-miterlimit="10"/>
<path d="M1131.27 462.542L1117.07 487.14" stroke="#00A583" stroke-width="0.25" stroke-miterlimit="10"/>
<path d="M1133.18 466.091L1118.98 490.69" stroke="#00A583" stroke-width="0.25" stroke-miterlimit="10"/>
<path d="M168.84 515.288C169.069 515.173 169.279 515.059 169.489 514.925C169.489 514.964 169.489 515.002 169.489 515.059C169.489 525.001 164.125 533.684 156.127 538.379C156.031 538.322 155.955 538.283 155.859 538.226C155.917 528.513 161.09 520.021 168.821 515.307L168.84 515.288Z" stroke="#00A583" stroke-width="0.25" stroke-miterlimit="10"/>
<path d="M169.508 515.021C169.508 515.021 169.508 514.964 169.508 514.925C169.508 514.925 169.527 514.925 169.546 514.925C169.775 515.059 170.004 515.193 170.252 515.307C178.021 520.059 183.194 528.589 183.213 538.36C183.213 538.36 183.194 538.36 183.175 538.379C182.603 538.054 182.011 537.749 181.419 537.463C174.223 532.597 169.508 524.372 169.508 515.04L169.508 515.021Z" stroke="#00A583" stroke-width="0.25" stroke-miterlimit="10"/>
<path d="M168.84 515.288C165.06 517.292 160.746 518.437 156.146 518.437C151.278 518.437 146.697 517.139 142.745 514.887C146.697 512.635 151.259 511.338 156.146 511.338C160.727 511.338 165.041 512.483 168.84 514.486C169.05 514.62 169.279 514.735 169.489 514.868C169.489 514.868 169.489 514.887 169.489 514.906C169.26 515.04 169.05 515.154 168.84 515.288Z" stroke="#00A583" stroke-width="0.25" stroke-miterlimit="10"/>
<path d="M170.233 515.288C170.004 515.154 169.775 515.021 169.546 514.887C169.775 514.754 170.004 514.639 170.233 514.486C174.013 512.483 178.327 511.338 182.908 511.338C187.776 511.338 192.357 512.635 196.308 514.887C192.357 517.139 187.776 518.437 182.908 518.437C178.327 518.437 174.013 517.292 170.233 515.288Z" stroke="#00A583" stroke-width="0.25" stroke-miterlimit="10"/>
<path d="M155.879 491.815C155.879 491.815 156.012 491.739 156.088 491.701C164.068 496.357 169.432 504.983 169.489 514.868C169.279 514.754 169.05 514.62 168.84 514.506C161.166 509.83 156.031 501.433 155.879 491.815Z" stroke="#00A583" stroke-width="0.25" stroke-miterlimit="10"/>
<path d="M170.233 514.486C170.004 514.601 169.756 514.735 169.527 514.868C169.527 514.868 169.508 514.868 169.489 514.868C169.546 505.613 174.223 497.464 181.362 492.636C181.973 492.35 182.564 492.025 183.156 491.701C183.156 491.701 183.175 491.701 183.194 491.701C183.08 501.357 177.926 509.792 170.233 514.486Z" stroke="#00A583" stroke-width="0.25" stroke-miterlimit="10"/>
<path d="M1105.05 417.486L1076.62 417.391" stroke="#00A583" stroke-width="0.25" stroke-miterlimit="10"/>
<path d="M1103.31 420.463L1074.89 420.387" stroke="#00A583" stroke-width="0.25" stroke-miterlimit="10"/>
<path d="M1101.99 423.23L1073.57 423.154" stroke="#00A583" stroke-width="0.25" stroke-miterlimit="10"/>
<path d="M1099.85 426.646L1071.43 426.57" stroke="#00A583" stroke-width="0.25" stroke-miterlimit="10"/>
<path d="M1097.91 429.757L1069.48 429.68" stroke="#00A583" stroke-width="0.25" stroke-miterlimit="10"/>
<path d="M1096.17 432.753L1067.75 432.676" stroke="#00A583" stroke-width="0.25" stroke-miterlimit="10"/>
<path d="M1094.83 435.501L1066.43 435.424" stroke="#00A583" stroke-width="0.25" stroke-miterlimit="10"/>
<path d="M1092.71 438.917L1064.29 438.84" stroke="#00A583" stroke-width="0.25" stroke-miterlimit="10"/>
<path d="M1105.16 515.307L1076.49 515.307" stroke="#00A583" stroke-width="0.25" stroke-miterlimit="10"/>
<path d="M991.811 515.307L977.609 490.69L949.186 490.69L934.984 515.307L949.186 539.906L977.609 539.906" stroke="#00A583" stroke-width="0.25" stroke-miterlimit="10"/>
<path d="M992.021 515.307L963.369 515.307" stroke="#00A583" stroke-width="0.25" stroke-miterlimit="10"/>
<path d="M934.755 515.307L906.103 515.307" stroke="#00A583" stroke-width="0.25" stroke-miterlimit="10"/>
<path d="M993.338 561.393L979.117 536.795" stroke="#00A583" stroke-width="0.25" stroke-miterlimit="10"/>
<path d="M995.056 558.397L980.854 533.799" stroke="#00A583" stroke-width="0.25" stroke-miterlimit="10"/>
<path d="M996.793 555.401L982.591 530.803" stroke="#00A583" stroke-width="0.25" stroke-miterlimit="10"/>
<path d="M998.53 552.424L984.328 527.807" stroke="#00A583" stroke-width="0.25" stroke-miterlimit="10"/>
<path d="M1000.27 549.085L986.065 524.486" stroke="#00A583" stroke-width="0.25" stroke-miterlimit="10"/>
<path d="M1002 546.108L987.783 521.49" stroke="#00A583" stroke-width="0.25" stroke-miterlimit="10"/>
<path d="M1003.74 543.112L989.52 518.494" stroke="#00A583" stroke-width="0.25" stroke-miterlimit="10"/>
<path d="M1005.71 441.493L991.506 466.091L1005.71 490.69L1034.13 490.69L1048.33 466.091L1034.13 441.493" stroke="#00A583" stroke-width="0.25" stroke-miterlimit="10"/>
<path d="M1048.33 515.307L1034.13 490.69L1005.71 490.69L991.506 515.307L1005.71 539.906L1034.13 539.906" stroke="#00A583" stroke-width="0.25" stroke-miterlimit="10"/>
<path d="M1009.66 447.733L995.438 472.331" stroke="#00A583" stroke-width="0.25" stroke-miterlimit="10"/>
<path d="M1011.4 450.233L997.175 474.85" stroke="#00A583" stroke-width="0.25" stroke-miterlimit="10"/>
<path d="M1013.29 453.782L999.084 478.4" stroke="#00A583" stroke-width="0.25" stroke-miterlimit="10"/>
<path d="M1015.02 457.027L1000.82 481.644" stroke="#00A583" stroke-width="0.25" stroke-miterlimit="10"/>
<path d="M1016.76 460.023L1002.54 484.64" stroke="#00A583" stroke-width="0.25" stroke-miterlimit="10"/>
<path d="M1018.5 462.542L1004.28 487.14" stroke="#00A583" stroke-width="0.25" stroke-miterlimit="10"/>
<path d="M1020.39 466.091L1006.18 490.69" stroke="#00A583" stroke-width="0.25" stroke-miterlimit="10"/>
<path d="M1048.33 515.307L1019.68 515.307" stroke="#00A583" stroke-width="0.25" stroke-miterlimit="10"/>
<path d="M1009.12 441.569L1023.4 466.129" stroke="#00A583" stroke-width="0.25" stroke-miterlimit="10"/>
<path d="M1012.6 441.55L1026.86 466.129" stroke="#00A583" stroke-width="0.25" stroke-miterlimit="10"/>
<path d="M1015.63 441.302L1029.91 465.862" stroke="#00A583" stroke-width="0.25" stroke-miterlimit="10"/>
<path d="M1019.66 441.416L1033.94 465.996" stroke="#00A583" stroke-width="0.25" stroke-miterlimit="10"/>
<path d="M1023.35 441.531L1037.6 466.091" stroke="#00A583" stroke-width="0.25" stroke-miterlimit="10"/>
<path d="M1026.8 441.512L1041.08 466.091" stroke="#00A583" stroke-width="0.25" stroke-miterlimit="10"/>
<path d="M1019.68 515.307L1005.71 490.69" stroke="#00A583" stroke-width="0.25" stroke-miterlimit="10"/>
<path d="M963.388 564.886L949.434 540.287" stroke="#00A583" stroke-width="0.25" stroke-miterlimit="10"/>
<path d="M1029.85 441.264L1044.11 465.843" stroke="#00A583" stroke-width="0.25" stroke-miterlimit="10"/>
<path d="M1033.86 441.378L1048.14 465.958" stroke="#00A583" stroke-width="0.25" stroke-miterlimit="10"/>
<path d="M1050.13 561.565L1035.92 536.948" stroke="#00A583" stroke-width="0.25" stroke-miterlimit="10"/>
<path d="M1051.86 558.569L1037.66 533.971" stroke="#00A583" stroke-width="0.25" stroke-miterlimit="10"/>
<path d="M1053.6 555.573L1039.4 530.975" stroke="#00A583" stroke-width="0.25" stroke-miterlimit="10"/>
<path d="M1055.34 552.577L1041.14 527.978" stroke="#00A583" stroke-width="0.25" stroke-miterlimit="10"/>
<path d="M1057.08 549.256L1042.87 524.658" stroke="#00A583" stroke-width="0.25" stroke-miterlimit="10"/>
<path d="M1058.81 546.26L1044.59 521.662" stroke="#00A583" stroke-width="0.25" stroke-miterlimit="10"/>
<path d="M1060.55 543.264L1046.33 518.666" stroke="#00A583" stroke-width="0.25" stroke-miterlimit="10"/>
<path d="M1007.92 444.737L993.701 469.335" stroke="#00A583" stroke-width="0.25" stroke-miterlimit="10"/>
<path d="M454.388 515.422L482.811 515.422L497.013 490.823L482.811 466.225" stroke="#00A583" stroke-width="0.25" stroke-miterlimit="10"/>
<path d="M454.388 515.173L440.186 539.772L454.388 564.37L482.811 564.37L497.013 539.772L482.811 515.173L454.388 515.173Z" stroke="#00A583" stroke-width="0.25" stroke-miterlimit="10"/>
<path d="M496.669 540.096L468.246 540.02" stroke="#00A583" stroke-width="0.25" stroke-miterlimit="10"/>
<path d="M469.601 490.842L441.178 490.766" stroke="#00A583" stroke-width="0.25" stroke-miterlimit="10"/>
<path d="M494.932 543.092L466.509 543.016" stroke="#00A583" stroke-width="0.25" stroke-miterlimit="10"/>
<path d="M493.615 545.859L465.192 545.783" stroke="#00A583" stroke-width="0.25" stroke-miterlimit="10"/>
<path d="M491.477 549.275L463.054 549.199" stroke="#00A583" stroke-width="0.25" stroke-miterlimit="10"/>
<path d="M489.53 552.386L461.107 552.31" stroke="#00A583" stroke-width="0.25" stroke-miterlimit="10"/>
<path d="M487.793 555.382L459.37 555.306" stroke="#00A583" stroke-width="0.25" stroke-miterlimit="10"/>
<path d="M486.476 558.13L458.052 558.054" stroke="#00A583" stroke-width="0.25" stroke-miterlimit="10"/>
<path d="M484.338 561.546L455.915 561.47" stroke="#00A583" stroke-width="0.25" stroke-miterlimit="10"/>
<path d="M510.928 466.225L496.707 490.823L510.928 515.422L539.332 515.422L553.553 490.823L539.332 466.225L510.928 466.225Z" stroke="#00A583" stroke-width="0.25" stroke-miterlimit="10"/>
<path d="M510.928 515.173L496.707 539.772L510.928 564.37L539.332 564.37L553.553 539.772L539.332 515.173L510.928 515.173Z" stroke="#00A583" stroke-width="0.25" stroke-miterlimit="10"/>
<path d="M397.122 515.173L382.9 539.772L397.122 564.37L425.526 564.37L439.747 539.772L425.526 515.173L397.122 515.173Z" stroke="#00A583" stroke-width="0.25" stroke-miterlimit="10"/>
<path d="M524.157 540.039C524.386 539.925 524.596 539.791 524.806 539.676C524.806 539.715 524.806 539.753 524.806 539.791C524.806 549.733 519.442 558.416 511.444 563.111C511.348 563.054 511.272 563.015 511.177 562.958C511.234 553.245 516.407 544.753 524.138 540.039L524.157 540.039Z" stroke="#00A583" stroke-width="0.25" stroke-miterlimit="10"/>
<path d="M524.825 539.753C524.825 539.753 524.825 539.696 524.825 539.657C524.825 539.657 524.844 539.657 524.863 539.638C525.092 539.772 525.321 539.906 525.569 540.039C533.338 544.772 538.511 553.321 538.531 563.092C538.531 563.092 538.511 563.092 538.492 563.111C537.92 562.786 537.328 562.481 536.736 562.195C529.54 557.329 524.825 549.104 524.825 539.772L524.825 539.753Z" stroke="#00A583" stroke-width="0.25" stroke-miterlimit="10"/>
<path d="M524.157 540.039C520.377 542.043 516.063 543.188 511.463 543.188C506.595 543.188 502.014 541.89 498.063 539.638C502.014 537.386 506.576 536.089 511.463 536.089C516.044 536.089 520.358 537.234 524.157 539.238C524.367 539.371 524.596 539.486 524.806 539.619C524.806 539.619 524.806 539.619 524.806 539.657C524.577 539.791 524.367 539.905 524.157 540.039Z" stroke="#00A583" stroke-width="0.25" stroke-miterlimit="10"/>
<path d="M525.569 540.039C525.34 539.905 525.111 539.772 524.882 539.638C525.111 539.505 525.34 539.371 525.569 539.238C529.349 537.234 533.663 536.089 538.244 536.089C543.112 536.089 547.693 537.386 551.645 539.638C547.693 541.89 543.112 543.188 538.244 543.188C533.663 543.188 529.349 542.043 525.569 540.039Z" stroke="#00A583" stroke-width="0.25" stroke-miterlimit="10"/>
<path d="M511.196 516.567C511.196 516.567 511.329 516.49 511.406 516.452C519.385 521.108 524.749 529.734 524.806 539.619C524.596 539.505 524.367 539.371 524.157 539.257C516.483 534.581 511.348 526.185 511.196 516.586L511.196 516.567Z" stroke="#00A583" stroke-width="0.25" stroke-miterlimit="10"/>
<path d="M525.569 539.238C525.34 539.371 525.092 539.486 524.863 539.638C524.863 539.638 524.844 539.638 524.825 539.619C524.882 530.364 529.559 522.215 536.698 517.387C537.309 517.101 537.901 516.776 538.492 516.452C538.492 516.452 538.511 516.452 538.531 516.452C538.416 526.108 533.262 534.543 525.569 539.238Z" stroke="#00A583" stroke-width="0.25" stroke-miterlimit="10"/>
<path d="M410.426 540.039C410.655 539.925 410.865 539.791 411.075 539.676C411.075 539.715 411.075 539.753 411.075 539.791C411.075 549.733 405.711 558.416 397.713 563.111C397.618 563.054 397.541 563.015 397.446 562.958C397.503 553.245 402.676 544.753 410.407 540.039L410.426 540.039Z" stroke="#00A583" stroke-width="0.25" stroke-miterlimit="10"/>
<path d="M411.094 539.753C411.094 539.753 411.094 539.696 411.094 539.657C411.094 539.657 411.113 539.657 411.133 539.638C411.362 539.772 411.591 539.905 411.839 540.039C419.608 544.772 424.781 553.321 424.8 563.092C424.8 563.092 424.781 563.092 424.762 563.111C424.189 562.786 423.597 562.481 423.006 562.195C415.809 557.329 411.094 549.104 411.094 539.772L411.094 539.753Z" stroke="#00A583" stroke-width="0.25" stroke-miterlimit="10"/>
<path d="M410.426 540.039C406.647 542.043 402.333 543.188 397.732 543.188C392.865 543.188 388.283 541.89 384.332 539.638C388.283 537.386 392.845 536.089 397.732 536.089C402.313 536.089 406.628 537.234 410.426 539.238C410.636 539.371 410.865 539.486 411.075 539.619C411.075 539.619 411.075 539.619 411.075 539.657C410.846 539.791 410.636 539.905 410.426 540.039Z" stroke="#00A583" stroke-width="0.25" stroke-miterlimit="10"/>
<path d="M411.82 540.039C411.591 539.905 411.362 539.772 411.133 539.638C411.362 539.505 411.591 539.371 411.82 539.238C415.599 537.234 419.913 536.089 424.495 536.089C429.362 536.089 433.944 537.386 437.895 539.638C433.944 541.89 429.362 543.188 424.495 543.188C419.913 543.188 415.599 542.043 411.82 540.039Z" stroke="#00A583" stroke-width="0.25" stroke-miterlimit="10"/>
<path d="M397.465 516.567C397.465 516.567 397.599 516.49 397.675 516.452C405.654 521.108 411.018 529.734 411.075 539.619C410.865 539.505 410.636 539.371 410.426 539.257C402.753 534.581 397.618 526.185 397.465 516.586L397.465 516.567Z" stroke="#00A583" stroke-width="0.25" stroke-miterlimit="10"/>
<path d="M411.82 539.238C411.591 539.371 411.343 539.486 411.113 539.638C411.113 539.638 411.094 539.638 411.075 539.619C411.133 530.364 415.809 522.215 422.949 517.387C423.559 517.101 424.151 516.776 424.743 516.452C424.743 516.452 424.762 516.452 424.781 516.452C424.666 526.108 419.513 534.543 411.82 539.238Z" stroke="#00A583" stroke-width="0.25" stroke-miterlimit="10"/>
<path d="M1177.35 494.125L1163.13 518.723" stroke="#00A583" stroke-width="0.25" stroke-miterlimit="10"/>
<path d="M1179.07 497.121L1164.87 521.719" stroke="#00A583" stroke-width="0.25" stroke-miterlimit="10"/>
<path d="M1180.81 499.64L1166.61 524.238" stroke="#00A583" stroke-width="0.25" stroke-miterlimit="10"/>
<path d="M1182.72 503.189L1168.5 527.788" stroke="#00A583" stroke-width="0.25" stroke-miterlimit="10"/>
<path d="M1184.45 506.433L1170.23 531.032" stroke="#00A583" stroke-width="0.25" stroke-miterlimit="10"/>
<path d="M1186.19 509.429L1171.97 534.028" stroke="#00A583" stroke-width="0.25" stroke-miterlimit="10"/>
<path d="M1187.91 511.948L1173.71 536.547" stroke="#00A583" stroke-width="0.25" stroke-miterlimit="10"/>
<path d="M1189.82 515.498L1175.62 540.096" stroke="#00A583" stroke-width="0.25" stroke-miterlimit="10"/>
<path d="M1178.56 490.957L1192.83 515.536" stroke="#00A583" stroke-width="0.25" stroke-miterlimit="10"/>
<path d="M1182.01 490.957L1196.29 515.517" stroke="#00A583" stroke-width="0.25" stroke-miterlimit="10"/>
<path d="M1185.07 490.709L1199.34 515.269" stroke="#00A583" stroke-width="0.25" stroke-miterlimit="10"/>
<path d="M1189.09 490.823L1203.35 515.383" stroke="#00A583" stroke-width="0.25" stroke-miterlimit="10"/>
<path d="M1192.76 490.919L1207.04 515.498" stroke="#00A583" stroke-width="0.25" stroke-miterlimit="10"/>
<path d="M1196.23 490.919L1210.49 515.479" stroke="#00A583" stroke-width="0.25" stroke-miterlimit="10"/>
<path d="M1199.27 490.671L1213.55 515.231" stroke="#00A583" stroke-width="0.25" stroke-miterlimit="10"/>
<path d="M1203.29 490.785L1217.57 515.345" stroke="#00A583" stroke-width="0.25" stroke-miterlimit="10"/>
<path d="M469.601 490.88L441.178 490.804" stroke="#00A583" stroke-width="0.25" stroke-miterlimit="10"/>
<path d="M920.438 491.148L891.786 491.148" stroke="#00A583" stroke-width="0.25" stroke-miterlimit="10"/>
<path d="M1174.91 147.915C1175.14 147.8 1175.35 147.686 1175.58 147.552C1175.58 147.591 1175.58 147.629 1175.58 147.686C1175.58 157.628 1170.21 166.311 1162.22 171.006C1162.12 170.949 1162.04 170.91 1161.95 170.853C1162.01 161.14 1167.18 152.648 1174.91 147.934L1174.91 147.915Z" stroke="#00A583" stroke-width="0.25" stroke-miterlimit="10"/>
<path d="M1175.58 147.648C1175.58 147.648 1175.58 147.591 1175.58 147.552C1175.58 147.552 1175.6 147.552 1175.62 147.552C1175.85 147.686 1176.07 147.82 1176.32 147.934C1184.09 152.686 1189.26 161.216 1189.28 170.987C1189.28 170.987 1189.26 170.987 1189.25 171.006C1188.67 170.681 1188.08 170.376 1187.49 170.09C1180.29 165.224 1175.58 156.999 1175.58 147.667L1175.58 147.648Z" stroke="#00A583" stroke-width="0.25" stroke-miterlimit="10"/>
<path d="M1174.91 147.915C1171.13 149.919 1166.82 151.064 1162.22 151.064C1157.35 151.064 1152.77 149.766 1148.82 147.514C1152.77 145.262 1157.33 143.965 1162.22 143.965C1166.8 143.965 1171.11 145.11 1174.91 147.113C1175.12 147.247 1175.35 147.362 1175.56 147.495L1175.56 147.533C1175.33 147.667 1175.12 147.781 1174.91 147.915Z" stroke="#00A583" stroke-width="0.25" stroke-miterlimit="10"/>
<path d="M1176.32 147.915C1176.09 147.781 1175.86 147.648 1175.64 147.514C1175.86 147.381 1176.09 147.266 1176.32 147.113C1180.1 145.11 1184.42 143.965 1189 143.965C1193.88 143.965 1198.45 145.262 1202.4 147.514C1198.45 149.766 1193.88 151.064 1189 151.064C1184.42 151.064 1180.1 149.919 1176.32 147.915Z" stroke="#00A583" stroke-width="0.25" stroke-miterlimit="10"/>
<path d="M1161.97 124.442C1161.97 124.442 1162.1 124.366 1162.18 124.328C1170.14 128.984 1175.52 137.61 1175.58 147.495C1175.37 147.381 1175.14 147.247 1174.93 147.133C1167.25 142.457 1162.12 134.06 1161.97 124.442Z" stroke="#00A583" stroke-width="0.25" stroke-miterlimit="10"/>
<path d="M1176.32 147.113C1176.09 147.228 1175.85 147.362 1175.62 147.495C1175.62 147.495 1175.6 147.495 1175.58 147.495C1175.64 138.24 1180.33 130.091 1187.45 125.263C1188.06 124.977 1188.65 124.652 1189.25 124.328C1189.25 124.328 1189.26 124.328 1189.28 124.328C1189.17 133.984 1184.02 142.419 1176.32 147.113Z" stroke="#00A583" stroke-width="0.25" stroke-miterlimit="10"/>
<path d="M1161.57 171.998L1147.37 196.597L1161.57 221.195L1189.99 221.195L1204.19 196.597L1189.99 171.998L1161.57 171.998Z" stroke="#00A583" stroke-width="0.25" stroke-miterlimit="10"/>
<path d="M1218.11 171.998L1203.89 196.597L1218.11 221.195L1246.51 221.195L1260.73 196.597L1246.51 171.998L1218.11 171.998Z" stroke="#00A583" stroke-width="0.25" stroke-miterlimit="10"/>
<path d="M1202.26 193.448L1216.47 168.83" stroke="#00A583" stroke-width="0.25" stroke-miterlimit="10"/>
<path d="M1200.53 190.452L1214.73 165.853" stroke="#00A583" stroke-width="0.25" stroke-miterlimit="10"/>
<path d="M1198.79 187.456L1212.99 162.857" stroke="#00A583" stroke-width="0.25" stroke-miterlimit="10"/>
<path d="M1197.05 184.46L1211.27 159.861" stroke="#00A583" stroke-width="0.25" stroke-miterlimit="10"/>
<path d="M1195.32 181.139L1209.54 156.541" stroke="#00A583" stroke-width="0.25" stroke-miterlimit="10"/>
<path d="M1193.6 178.143L1207.8 153.545" stroke="#00A583" stroke-width="0.25" stroke-miterlimit="10"/>
<path d="M1191.86 175.147L1206.06 150.549" stroke="#00A583" stroke-width="0.25" stroke-miterlimit="10"/>
<path d="M1161.57 123.049L1147.36 147.648L1161.57 172.265L1189.99 172.265L1204.19 147.648L1189.99 123.049L1161.57 123.049Z" stroke="#00A583" stroke-width="0.25" stroke-miterlimit="10"/>
<path d="M1218.11 123.049L1203.89 147.648L1218.11 172.265L1246.51 172.265L1260.73 147.648L1246.51 123.049L1218.11 123.049Z" stroke="#00A583" stroke-width="0.25" stroke-miterlimit="10"/>
<path d="M1205.81 144.461L1191.61 119.863" stroke="#00A583" stroke-width="0.25" stroke-miterlimit="10"/>
<path d="M1207.55 141.465L1193.35 116.866" stroke="#00A583" stroke-width="0.25" stroke-miterlimit="10"/>
<path d="M1209.29 138.469L1195.09 113.87" stroke="#00A583" stroke-width="0.25" stroke-miterlimit="10"/>
<path d="M1211.03 135.492L1196.82 110.874" stroke="#00A583" stroke-width="0.25" stroke-miterlimit="10"/>
<path d="M1212.76 132.171L1198.56 107.554" stroke="#00A583" stroke-width="0.25" stroke-miterlimit="10"/>
<path d="M1214.5 129.175L1200.28 104.558" stroke="#00A583" stroke-width="0.25" stroke-miterlimit="10"/>
<path d="M1216.64 126.179L1202.44 101.581" stroke="#00A583" stroke-width="0.25" stroke-miterlimit="10"/>
<path d="M1163.3 175.509L1149.1 200.108" stroke="#00A583" stroke-width="0.25" stroke-miterlimit="10"/>
<path d="M1165.04 178.506L1150.84 203.104" stroke="#00A583" stroke-width="0.25" stroke-miterlimit="10"/>
<path d="M1166.78 181.025L1152.56 205.623" stroke="#00A583" stroke-width="0.25" stroke-miterlimit="10"/>
<path d="M1168.67 184.574L1154.47 209.172" stroke="#00A583" stroke-width="0.25" stroke-miterlimit="10"/>
<path d="M1170.41 187.818L1156.2 212.417" stroke="#00A583" stroke-width="0.25" stroke-miterlimit="10"/>
<path d="M1172.14 190.814L1157.94 215.413" stroke="#00A583" stroke-width="0.25" stroke-miterlimit="10"/>
<path d="M1173.88 193.314L1159.68 217.932" stroke="#00A583" stroke-width="0.25" stroke-miterlimit="10"/>
<path d="M1175.77 196.864L1161.57 221.481" stroke="#00A583" stroke-width="0.25" stroke-miterlimit="10"/>
<path d="M1232.14 147.648L1203.47 147.648" stroke="#00A583" stroke-width="0.25" stroke-miterlimit="10"/>
<path d="M1161.57 221.5L1147.37 246.099L1161.57 270.716L1189.99 270.716L1204.19 246.099L1189.99 221.5L1161.57 221.5Z" stroke="#00A583" stroke-width="0.25" stroke-miterlimit="10"/>
<path d="M1218.11 221.5L1203.89 246.099L1218.11 270.716L1246.51 270.716L1260.73 246.099L1246.51 221.5L1218.11 221.5Z" stroke="#00A583" stroke-width="0.25" stroke-miterlimit="10"/>
</g>
<defs>
<clipPath id="clip0_13_7">
<rect width="1261" height="565" fill="white" transform="translate(1261 565) rotate(-180)"/>
</clipPath>
</defs>
</svg>
