<svg width="110" height="320" viewBox="0 0 110 320" fill="none" xmlns="http://www.w3.org/2000/svg">
<path d="M31.7575 319.538C29.7037 320.475 27.9834 312.878 26.251 314.581C21.4052 319.345 16.3983 320.382 9.93021 318.303L9.78041 318.277C9.39011 318.152 9.02933 317.948 8.71994 317.679C8.41055 317.41 8.15895 317.081 7.98044 316.712C7.80193 316.343 7.70021 315.941 7.68141 315.531C7.66261 315.121 7.72714 314.712 7.87109 314.328C8.04336 313.869 8.32464 313.458 8.69072 313.131C9.05681 312.804 9.49672 312.571 9.97268 312.452L15.1262 311.163L23.218 296.928L31.4784 296.369C33.32 298.718 34.6052 301.454 35.2374 304.371C35.8697 307.288 35.8324 310.311 35.1285 313.212C34.3789 316.273 33.2217 318.869 31.7575 319.538Z" fill="#2F2E41"/>
<path d="M95.473 292.901L89.1455 295.405L76.4211 259.918L93.5013 254.205L95.473 292.901Z" fill="#FFB8B8"/>
<path d="M30.9587 296.821L24.1553 296.705L26.0136 259.05L43.9776 260.33L30.9587 296.821Z" fill="#FFB8B8"/>
<path d="M104.298 312.697C102.733 314.325 98.34 307.893 97.3552 310.114C94.6005 316.327 90.326 319.134 83.5466 319.58L83.398 319.611C82.9889 319.638 82.5786 319.582 82.1919 319.446C81.8053 319.309 81.4504 319.096 81.1486 318.818C80.8469 318.54 80.6047 318.204 80.4365 317.83C80.2684 317.456 80.178 317.052 80.1706 316.642C80.1619 316.151 80.2724 315.666 80.4927 315.227C80.713 314.789 81.0364 314.41 81.4353 314.124L85.7537 311.029L88.0443 294.814L95.5205 291.256C98.0965 292.762 100.297 294.833 101.958 297.313C103.618 299.793 104.695 302.618 105.107 305.574C105.535 308.696 105.414 311.537 104.298 312.697Z" fill="#2F2E41"/>
<path d="M74.816 110.95L64.3695 113.637C63.5791 113.84 62.7531 113.864 61.9523 113.706C61.1514 113.549 60.396 113.214 59.7415 112.726C59.087 112.238 58.55 111.61 58.1699 110.887C57.7897 110.165 57.5762 109.366 57.5448 108.55C57.516 107.8 57.6418 107.052 57.9146 106.352C58.1873 105.653 58.6011 105.017 59.1301 104.485C59.6592 103.952 60.2921 103.534 60.9896 103.257C61.6871 102.98 62.4342 102.849 63.1843 102.873L72.3859 103.17L90.1171 96.7114L73.3579 84.2082L75.302 66.7046L107.963 92.9356C108.545 93.4034 109.025 93.9864 109.372 94.6481C109.718 95.3099 109.925 96.0361 109.978 96.7814C110.068 98.0341 109.72 99.2791 108.995 100.304C108.269 101.329 107.211 102.071 106 102.403C98.3471 108.651 87.1979 110.564 74.816 110.95Z" fill="#FFB8B8"/>
<path d="M51.0009 45.3113C60.3957 45.3113 68.0117 37.6924 68.0117 28.294C68.0117 18.8955 60.3957 11.2766 51.0009 11.2766C41.6062 11.2766 33.9902 18.8955 33.9902 28.294C33.9902 37.6924 41.6062 45.3113 51.0009 45.3113Z" fill="#FFB8B8"/>
<path d="M71.8999 51.632L49.0569 60.8699C49.7277 53.6461 47.835 46.4166 43.7107 40.4491L62.6655 36.0732C62.419 41.8646 65.5494 47.0413 71.8999 51.632Z" fill="#FFB8B8"/>
<path d="M76.0309 91.2581C57.617 92.7325 47.545 90.2863 32.0461 81.2908L37.8783 67.677C37.5856 65.6271 37.8636 63.5362 38.6816 61.6341C39.4996 59.732 40.8261 58.0924 42.5151 56.8955L48.5708 52.6044L67.0396 47.2561L67.868 47.2975C70.3248 47.4204 72.6526 48.4352 74.4151 50.1518C76.1777 51.8684 77.2541 54.169 77.4428 56.6226C81.4551 68.6178 81.4811 80.2129 76.0309 91.2581Z" fill="#00A583"/>
<path d="M72.3859 119.701L33.0183 115.326L30.1021 102.684C23.6383 92.9227 26.4596 83.9815 33.9903 75.4563C47.7171 84.2693 60.4588 88.0776 78.7041 85.1805C73.8521 96.9855 69.3709 108.587 72.3859 119.701Z" fill="#2F2E41"/>
<path d="M103.005 267.023L71.6569 265.321L61.4505 184.124L53.1881 264.835L16.0076 263.133C27.3492 210.073 35.2283 159.702 33.0183 113.381L71.8999 116.784C85.0773 130.684 91.6203 152.871 95.4719 179.262C99.3235 205.653 102.428 236.247 103.005 267.023Z" fill="#2F2E41"/>
<path d="M69.7271 12.802C72.9563 12.802 75.5741 10.1832 75.5741 6.95278C75.5741 3.72232 72.9563 1.10352 69.7271 1.10352C66.4979 1.10352 63.8801 3.72232 63.8801 6.95278C63.8801 10.1832 66.4979 12.802 69.7271 12.802Z" fill="#2F2E41"/>
<path d="M63.7021 5.52092C63.7982 4.03687 64.4561 2.64528 65.5419 1.62955C66.6277 0.613824 68.0597 0.050368 69.5463 0.053943C69.4256 0.0386233 69.3059 0.019977 69.1828 0.0120621C67.6353 -0.087472 66.1116 0.432077 64.947 1.45639C63.7824 2.4807 63.0722 3.92587 62.9728 5.474C62.8733 7.02213 63.3926 8.54638 64.4165 9.71145C65.4404 10.8765 66.885 11.587 68.4325 11.6865C68.5556 11.6944 68.6767 11.6913 68.7984 11.6916C67.3236 11.5047 65.9755 10.7624 65.0286 9.61592C64.0818 8.46946 63.6074 7.00505 63.7021 5.52092Z" fill="#2F2E41"/>
<path d="M63.6693 8.01853C58.4547 3.69103 43.4979 9.19108 42.5328 12.1005C35.4812 13.0619 30.1423 17.1777 30.1423 24.4958C34.3347 26.2139 39.1027 26.0023 44.2569 24.4959C52.4732 31.1942 53.0364 39.6148 48.0397 49.2865L54.187 49.4095L61.8069 38.2684L62.1713 49.5692L76.2625 49.2865V33.0917C76.308 27.7071 75.0691 22.3893 72.6487 17.5797C70.4528 13.312 67.0451 10.8201 63.6693 8.01853Z" fill="#2F2E41"/>
<path d="M50.5475 36.6313C52.0917 36.6313 53.3435 34.8781 53.3435 32.7153C53.3435 30.5526 52.0917 28.7993 50.5475 28.7993C49.0033 28.7993 47.7515 30.5526 47.7515 32.7153C47.7515 34.8781 49.0033 36.6313 50.5475 36.6313Z" fill="#FFB8B8"/>
<path d="M29.1607 182.898C29.4212 182.898 29.6709 183.001 29.855 183.186C30.0392 183.37 30.1426 183.62 30.1426 183.88V223.169C30.1426 223.43 30.0392 223.68 29.855 223.864C29.6709 224.048 29.4212 224.152 29.1607 224.152H0.981836C0.721432 224.152 0.47169 224.048 0.287556 223.864C0.103422 223.68 0 223.43 0 223.169V183.88C0 183.62 0.103422 183.37 0.287556 183.186C0.47169 183.001 0.721432 182.898 0.981836 182.898H29.1607Z" fill="#00A583"/>
<path d="M33.0181 168.322L33.9697 184.823C34.031 185.885 33.8551 186.948 33.4547 187.934C33.0543 188.919 32.4395 189.803 31.655 190.522C30.8705 191.24 29.9359 191.775 28.9191 192.087C27.9023 192.399 26.8288 192.48 25.7766 192.325C21.586 191.709 21.4908 187.609 22.5181 183.498L26.4321 167.836C36.0337 133.396 38.6257 99.5922 38.1399 66.6239C38.1202 65.5058 38.3271 64.3954 38.7481 63.3595C39.1691 62.3237 39.7956 61.384 40.5897 60.597C41.3837 59.81 42.329 59.1922 43.3683 58.7807C44.4077 58.3693 45.5196 58.1727 46.6369 58.203C47.7269 58.2346 48.7999 58.4816 49.7941 58.9297C50.7883 59.3777 51.6842 60.0181 52.4301 60.8138C53.1759 61.6096 53.7571 62.5451 54.1402 63.5665C54.5233 64.5878 54.7007 65.6749 54.6621 66.7651C53.303 105.479 47.6587 140.635 33.0181 168.322Z" fill="#FFB8B8"/>
</svg>
