<svg width="91" height="90" viewBox="0 0 91 90" fill="none" xmlns="http://www.w3.org/2000/svg">
<path d="M22.9132 7.33171C10.1507 14.9707 1.58344 28.8 1.49512 44.6488C14.2576 37.0098 22.8249 23.1805 22.9132 7.33171Z" stroke="white" stroke-width="2" stroke-miterlimit="10"/>
<path d="M89.7729 45.7129C89.7729 45.7129 89.7781 45.6207 89.7729 44.7366C89.6846 29.7219 82.0006 16.4634 70.3421 8.60488C69.4147 8.16585 68.4873 7.68293 67.5599 7.1561C67.5599 23.2683 76.7013 38.0739 89.7729 45.7129Z" stroke="white" stroke-width="2" stroke-miterlimit="10"/>
<path d="M23.5314 6.98049C30.0231 10.7122 37.5746 12.8634 45.6119 12.8634C52.4127 12.8634 58.8602 11.3268 64.6012 8.60488C65.4402 8.03415 66.3235 7.50732 67.2508 6.98049C66.3676 6.45366 65.4844 5.92683 64.6012 5.3561C58.8602 2.63415 52.4127 1.09756 45.6119 1.09756C37.5746 1.09756 30.0231 3.24878 23.5314 6.98049Z" stroke="white" stroke-width="2" stroke-miterlimit="10"/>
<path d="M44.0663 44.561C44.4196 44.7366 44.7728 44.9561 45.1261 45.1756C45.1261 45.0878 45.1261 45.0439 45.1261 44.9561C45.1261 28.8439 36.3822 14.7512 23.3106 7.1122C23.1781 7.2 23.0015 7.28781 22.869 7.37561C22.9573 23.1366 31.3921 36.922 44.0221 44.6049L44.0663 44.561Z" stroke="white" stroke-width="2" stroke-miterlimit="10"/>
<path d="M45.1703 45C45.1703 45 45.1703 45.0878 45.1703 45.1317C45.1703 45.1317 45.1703 45.1317 45.2145 45.1317C45.6119 44.9122 45.9652 44.6927 46.3626 44.5171C59.0368 36.8342 67.5 23.3488 67.5 7.5C67.5 7.5 67.5158 7.1122 67.4716 7.1122C66.5442 7.63903 65.5727 8.16586 64.6012 8.60488C52.8543 16.5073 45.1703 29.8537 45.1703 45Z" stroke="white" stroke-width="2" stroke-miterlimit="10"/>
<path d="M44.0663 44.561C37.8838 41.3122 30.8622 39.4244 23.3548 39.4244C15.4058 39.4244 1.5 45 1.49512 45.1756C1.49024 45.3512 15.4058 50.9268 23.3548 50.9268C30.818 50.9268 37.8838 49.0829 44.0663 45.7902C44.4196 45.5707 44.7729 45.3951 45.1262 45.1756C45.1262 45.1756 45.1262 45.1756 45.1262 45.1317C44.7729 44.9122 44.4196 44.7366 44.0663 44.5171V44.561Z" stroke="white" stroke-width="2" stroke-miterlimit="10"/>
<path d="M1.49512 45.6585C1.71592 61.3756 10.239 75.0732 22.9132 82.6683C22.6924 66.9512 14.1693 53.2537 1.49512 45.6585Z" stroke="white" stroke-width="2" stroke-miterlimit="10"/>
<path d="M46.3626 44.561C46.0093 44.7805 45.6119 45 45.2586 45.2195C45.6119 45.439 46.0093 45.6585 46.3626 45.878C52.5452 49.1268 59.5668 51.0146 67.0741 51.0146C75.0231 51.0146 82.4863 48.9073 88.9338 45.2634C82.4863 41.5756 75.0231 39.5122 67.0741 39.5122C59.6109 39.5122 52.5452 41.3561 46.3626 44.6488V44.561Z" stroke="white" stroke-width="2" stroke-miterlimit="10"/>
<path d="M67.5599 82.8C68.4873 82.2732 69.4146 81.7902 70.3862 81.3073C81.9122 73.5366 89.5079 60.4537 89.7287 45.6585C89.5962 45.5707 89.4638 45.5268 89.3313 45.439C76.3921 52.9902 67.6924 66.8634 67.5157 82.8H67.5599Z" stroke="white" stroke-width="2" stroke-miterlimit="10"/>
<path d="M22.9131 82.6683C22.9131 82.6683 23.134 82.8 23.2664 82.8439C36.2939 75.2927 45.0378 61.2878 45.1703 45.2634C44.817 45.4829 44.4637 45.6585 44.1104 45.8341C31.6129 53.4293 23.1781 67.039 22.9573 82.6683H22.9131Z" stroke="white" stroke-width="2" stroke-miterlimit="10"/>
<path d="M46.3626 45.8341C45.9652 45.6146 45.6119 45.3951 45.2145 45.2195C45.2145 45.2195 45.2145 45.2195 45.1703 45.2195C45.2587 60.2341 52.8985 73.4488 64.557 81.3073C65.5727 81.7902 66.5285 81.9293 67.5 82.5L67.5599 82.8439C67.3833 67.1707 58.9486 53.4732 46.4069 45.8341H46.3626Z" stroke="white" stroke-width="2" stroke-miterlimit="10"/>
<path d="M64.5128 81.3512C58.7719 78.6293 52.3686 77.1366 45.6119 77.1366C37.5746 77.1366 30.0231 79.2878 23.5314 83.0195C30.0231 86.7512 37.5746 88.9024 45.6119 88.9024C52.3686 88.9024 58.8161 87.3659 64.5128 84.6878C65.396 84.1171 66.2793 83.5463 67.2066 83.0195C66.2793 82.4927 65.396 81.922 64.5128 81.3512Z" stroke="white" stroke-width="2" stroke-miterlimit="10"/>
</svg>
