<svg width="812" height="625" viewBox="0 0 812 625" fill="none" xmlns="http://www.w3.org/2000/svg">
<g clip-path="url(#clip0_44_213)">
<path d="M421.824 432.16C420.169 431.876 418.596 431.232 417.216 430.274C415.836 429.317 414.683 428.068 413.839 426.616C412.994 425.165 412.477 423.545 412.326 421.872C412.175 420.2 412.392 418.514 412.962 416.934L362.539 329.725L386.372 322.225L428.486 410.207C431.077 411.342 433.161 413.387 434.344 415.955C435.527 418.524 435.727 421.437 434.906 424.143C434.085 426.849 432.299 429.159 429.888 430.637C427.477 432.115 424.608 432.657 421.824 432.16Z" fill="#FFB8B8"/>
<path d="M364.315 343.857C363.59 343.722 362.905 343.422 362.316 342.979C361.726 342.536 361.247 341.963 360.916 341.304L347.611 315.071C347.104 314.071 346.963 312.925 347.21 311.831C347.458 310.737 348.08 309.765 348.969 309.081L363.209 298.127C364.116 297.423 365.247 297.068 366.394 297.128C367.541 297.187 368.629 297.657 369.458 298.452L389.206 317.216C389.688 317.675 390.071 318.229 390.328 318.842C390.586 319.456 390.714 320.117 390.703 320.783C390.692 321.448 390.543 322.104 390.266 322.71C389.989 323.315 389.589 323.856 389.092 324.299L368.409 342.721C367.86 343.213 367.205 343.571 366.495 343.768C365.785 343.965 365.039 343.996 364.315 343.857Z" fill="#6C63FF"/>
<path d="M811.349 226.546C811.349 159.38 756.901 0 689.736 0C622.57 0 568.122 159.38 568.122 226.546C568.117 242.519 571.259 258.337 577.369 273.096C583.479 287.855 592.436 301.265 603.729 312.562C615.023 323.859 628.431 332.82 643.188 338.934C657.945 345.047 673.762 348.194 689.736 348.194C705.709 348.194 721.526 345.047 736.283 338.934C751.04 332.82 764.448 323.859 775.742 312.562C787.035 301.265 795.992 287.855 802.102 273.096C808.212 258.337 811.354 242.519 811.349 226.546Z" fill="#345C69"/>
<path d="M689.736 596.418C690.001 596.418 690.255 596.313 690.443 596.125C690.63 595.938 690.736 595.683 690.736 595.418V102.134C690.736 101.869 690.63 101.614 690.443 101.427C690.255 101.239 690.001 101.134 689.736 101.134C689.47 101.134 689.216 101.239 689.029 101.427C688.841 101.614 688.736 101.869 688.736 102.134V595.418C688.736 595.683 688.841 595.938 689.029 596.125C689.216 596.313 689.47 596.418 689.736 596.418Z" fill="white"/>
<path d="M689.736 183.08C689.867 183.08 689.997 183.054 690.119 183.004C690.24 182.953 690.35 182.88 690.443 182.787L738.577 134.652C738.763 134.464 738.867 134.211 738.866 133.946C738.865 133.682 738.76 133.429 738.573 133.242C738.386 133.055 738.133 132.95 737.869 132.949C737.605 132.949 737.351 133.052 737.163 133.238L689.029 181.373C688.889 181.512 688.794 181.691 688.755 181.885C688.716 182.078 688.736 182.28 688.812 182.462C688.888 182.645 689.016 182.801 689.18 182.911C689.345 183.021 689.538 183.08 689.736 183.08Z" fill="white"/>
<path d="M689.736 266.41C689.933 266.41 690.127 266.351 690.291 266.241C690.456 266.131 690.584 265.975 690.66 265.792C690.735 265.61 690.755 265.409 690.716 265.215C690.678 265.021 690.583 264.843 690.443 264.703L609.833 184.092C609.645 183.907 609.391 183.803 609.127 183.804C608.863 183.805 608.61 183.91 608.424 184.097C608.237 184.284 608.132 184.537 608.131 184.801C608.13 185.065 608.233 185.318 608.419 185.506L689.029 266.117C689.121 266.21 689.232 266.283 689.353 266.334C689.474 266.384 689.604 266.41 689.736 266.41Z" fill="white"/>
<path d="M762.629 623.614C762.455 623.748 762.273 623.869 762.097 624H613.004C610.082 612.163 609.051 600.314 613.414 590.024C619.632 575.361 638.033 566.208 652.661 572.505C656.127 574.038 659.147 576.426 661.435 579.447C667.152 569.214 677.407 561.498 689.244 561.506C704.073 561.517 716.404 573.645 720.427 587.653C726.907 576.716 739.705 569.073 752.215 572.361C773.138 577.86 779.747 610.385 762.629 623.614Z" fill="#F2F2F2"/>
<path d="M174.896 392.291C174.896 344.027 135.745 229.5 87.4482 229.5C39.1519 229.5 0 344.027 0 392.291C0.0175286 415.472 9.23854 437.698 25.6364 454.084C42.0342 470.469 64.267 479.673 87.4483 479.673C110.63 479.673 132.862 470.469 149.26 454.084C165.658 437.698 174.879 415.472 174.896 392.291Z" fill="#345C69"/>
<path d="M87.4483 604.899C87.5427 604.899 87.6362 604.88 87.7234 604.844C87.8106 604.808 87.8899 604.755 87.9567 604.688C88.0234 604.622 88.0764 604.542 88.1126 604.455C88.1487 604.368 88.1674 604.275 88.1674 604.18V302.891C88.1667 302.701 88.0906 302.519 87.9558 302.384C87.8211 302.25 87.6385 302.175 87.4483 302.175C87.2581 302.175 87.0756 302.25 86.9408 302.384C86.806 302.519 86.73 302.701 86.7292 302.891V604.18C86.7293 604.275 86.7479 604.368 86.7841 604.455C86.8202 604.542 86.8732 604.622 86.9399 604.688C87.0067 604.755 87.086 604.808 87.1732 604.844C87.2604 604.88 87.3539 604.899 87.4483 604.899Z" fill="white"/>
<path d="M87.4483 361.057C87.5427 361.057 87.6363 361.039 87.7235 361.003C87.8108 360.967 87.8901 360.914 87.9568 360.847L122.569 326.258C122.703 326.124 122.779 325.941 122.779 325.75C122.779 325.559 122.703 325.377 122.568 325.242C122.433 325.107 122.25 325.031 122.06 325.032C121.869 325.032 121.686 325.107 121.552 325.242L86.9398 359.831C86.8393 359.931 86.7708 360.059 86.7431 360.199C86.7154 360.338 86.7297 360.482 86.7842 360.614C86.8386 360.745 86.9307 360.857 87.049 360.936C87.1672 361.015 87.3061 361.057 87.4483 361.057Z" fill="white"/>
<path d="M87.4483 420.936C87.5904 420.936 87.7294 420.894 87.8477 420.815C87.9659 420.737 88.058 420.624 88.1125 420.493C88.1669 420.362 88.1811 420.217 88.1534 420.078C88.1257 419.938 88.0573 419.81 87.9568 419.71L29.993 361.785C29.8582 361.65 29.6754 361.574 29.4848 361.574C29.2941 361.574 29.1113 361.65 28.9764 361.784C28.8415 361.919 28.7657 362.102 28.7656 362.293C28.7655 362.483 28.8412 362.666 28.9759 362.801L86.9398 420.726C87.0065 420.793 87.0858 420.846 87.1731 420.882C87.2603 420.918 87.3539 420.937 87.4483 420.936Z" fill="white"/>
<path d="M139.47 623.722C139.345 623.819 139.214 623.906 139.087 624H31.8795C29.7788 615.495 29.037 606.98 32.1748 599.586C36.6454 589.049 49.8768 582.472 60.3959 586.997C62.8879 588.098 65.0589 589.814 66.7047 591.985C70.8156 584.632 78.1895 579.087 86.701 579.093C97.3646 579.101 106.231 587.816 109.124 597.882C113.783 590.023 122.986 584.53 131.981 586.893C147.026 590.845 151.778 614.216 139.47 623.722Z" fill="#F2F2F2"/>
<path d="M181.5 624H562.5C562.765 624 563.019 623.895 563.207 623.707C563.394 623.52 563.5 623.265 563.5 623C563.5 622.735 563.394 622.48 563.207 622.293C563.019 622.105 562.765 622 562.5 622H181.5C181.235 622 180.98 622.105 180.793 622.293C180.605 622.48 180.5 622.735 180.5 623C180.5 623.265 180.605 623.52 180.793 623.707C180.98 623.895 181.235 624 181.5 624Z" fill="white"/>
<path d="M361.852 350.162C361.131 350.008 360.455 349.688 359.878 349.229C359.301 348.77 358.837 348.184 358.525 347.516L345.949 320.926C345.47 319.912 345.36 318.763 345.638 317.677C345.916 316.59 346.565 315.635 347.472 314.975L362.009 304.419C362.935 303.74 364.075 303.417 365.22 303.508C366.365 303.599 367.439 304.099 368.246 304.916L387.469 324.218C387.938 324.69 388.305 325.254 388.546 325.875C388.787 326.495 388.896 327.159 388.867 327.824C388.838 328.49 388.671 329.141 388.377 329.739C388.083 330.336 387.668 330.866 387.159 331.295L365.976 349.139C365.414 349.616 364.749 349.956 364.034 350.133C363.318 350.311 362.572 350.321 361.852 350.162Z" fill="#6C63FF"/>
<path d="M282.179 602.252L294.831 605.694L314.129 558.533L295.457 553.453L282.179 602.252Z" fill="#FFB8B8"/>
<path d="M316.034 624.081L276.272 613.262L280.452 597.9L305.849 604.81C309.659 605.846 312.901 608.354 314.862 611.781C316.823 615.208 317.342 619.273 316.306 623.083L316.034 624.081Z" fill="#2F2E41"/>
<path d="M390.336 611.906L403.447 611.905L409.685 561.332L390.333 561.333L390.336 611.906Z" fill="#FFB8B8"/>
<path d="M428.734 624.079L387.527 624.081L387.526 608.16L413.847 608.159C417.795 608.158 421.582 609.727 424.374 612.518C427.166 615.31 428.734 619.096 428.734 623.045L428.734 624.079Z" fill="#2F2E41"/>
<path d="M389.158 270.301C399.416 260.043 399.416 243.412 389.158 233.154C378.9 222.896 362.269 222.896 352.01 233.154C341.752 243.412 341.752 260.043 352.01 270.301C362.269 280.56 378.9 280.56 389.158 270.301Z" fill="#FFB8B8"/>
<path d="M386.37 571.686L371.689 464.326C371.58 463.529 371.217 462.789 370.654 462.214C370.091 461.64 369.358 461.262 368.564 461.136C367.77 461.011 366.956 461.145 366.244 461.518C365.531 461.891 364.958 462.483 364.608 463.208L314.64 566.848C314.131 567.889 313.266 568.714 312.202 569.172C311.137 569.629 309.943 569.69 308.838 569.342L289.582 563.18C288.389 562.803 287.391 561.975 286.8 560.873C286.209 559.771 286.072 558.482 286.418 557.28C309.841 474.583 330.064 413.058 352.632 381.588C352.72 381.466 352.811 381.35 352.909 381.236L357.913 375.397C358.365 374.869 358.925 374.446 359.556 374.156C360.187 373.865 360.873 373.716 361.567 373.716H398.413C399.375 373.713 400.317 374 401.114 374.54C401.911 375.079 402.527 375.847 402.882 376.742L403.841 379.141C403.918 379.333 403.983 379.53 404.036 379.731C416.08 425.573 419.203 486.456 413.864 571.331C413.785 572.553 413.245 573.7 412.352 574.539C411.459 575.377 410.281 575.845 409.056 575.847H391.139C389.976 575.843 388.854 575.42 387.978 574.656C387.103 573.892 386.532 572.838 386.37 571.686Z" fill="#2F2E41"/>
<path d="M350.851 379.408C345.542 370.913 320.213 327.027 342.949 297.304C343.357 296.778 343.62 296.154 343.712 295.495L344.613 288.583C344.696 287.937 344.91 287.315 345.241 286.754C345.572 286.193 346.013 285.705 346.538 285.32C347.064 284.935 347.662 284.661 348.296 284.514C348.931 284.367 349.588 284.351 350.229 284.466C358.133 285.904 373.019 290.426 383.921 304.549C384.441 305.229 384.769 306.036 384.872 306.886L385.473 311.7C385.549 312.333 385.787 312.936 386.164 313.45C386.541 313.964 387.044 314.372 387.625 314.634C394.578 317.791 410.138 330.094 404.465 376.019C404.329 377.162 403.787 378.218 402.937 378.994C402.087 379.771 400.986 380.216 399.836 380.248L355.08 381.661C355.029 381.662 354.979 381.663 354.928 381.663C354.114 381.662 353.312 381.455 352.599 381.061C351.886 380.667 351.284 380.098 350.851 379.408Z" fill="#65B9CB"/>
<path d="M332.699 449.794C331.563 448.557 330.711 447.086 330.204 445.485C329.697 443.884 329.548 442.191 329.766 440.525C329.984 438.86 330.565 437.263 331.467 435.846C332.369 434.429 333.571 433.228 334.988 432.326L348.362 332.481L371.811 341.106L351.387 436.486C352.745 438.967 353.145 441.86 352.512 444.616C351.879 447.372 350.258 449.8 347.954 451.441C345.651 453.081 342.825 453.819 340.014 453.516C337.202 453.212 334.6 451.888 332.699 449.794Z" fill="#FFB8B8"/>
<path d="M341.132 344.752C340.641 344.203 340.282 343.547 340.086 342.836C339.89 342.125 339.861 341.378 340.002 340.654L345.499 311.759C345.709 310.657 346.297 309.664 347.162 308.949C348.026 308.235 349.113 307.845 350.235 307.846L368.2 307.877C369.349 307.874 370.46 308.284 371.332 309.032C372.203 309.78 372.777 310.817 372.948 311.952L377.115 338.873C377.216 339.531 377.181 340.203 377.01 340.846C376.839 341.49 376.536 342.09 376.121 342.611C375.705 343.131 375.187 343.56 374.597 343.869C374.008 344.179 373.361 344.363 372.697 344.41L345.067 346.355C344.332 346.408 343.595 346.292 342.912 346.014C342.23 345.736 341.621 345.304 341.132 344.752Z" fill="#65B9CB"/>
<path d="M341.683 235.391C343.634 229.477 345.074 223.406 345.988 217.246C346.275 213.659 345.356 209.8 342.744 207.326C337.856 202.695 329.552 204.9 324.44 209.283C317.052 215.617 313.367 225.352 311.975 234.983C310.582 244.614 311.195 254.409 310.86 264.134C310.525 273.86 309.134 283.86 304.175 292.234C299.217 300.607 290.016 307.035 280.311 306.322C276.393 306.11 272.674 304.534 269.797 301.867C268.385 300.523 267.316 298.861 266.678 297.019C266.041 295.177 265.855 293.209 266.136 291.281C261.175 300.163 263.69 312.201 271.089 319.184C278.488 326.167 289.869 328.141 299.596 325.16C309.323 322.178 317.329 314.703 322.11 305.723C326.892 296.743 328.645 286.37 328.391 276.199C328.196 268.389 326.868 260.515 328.188 252.815C329.508 245.114 334.327 237.296 341.926 235.483L341.683 235.391Z" fill="#2F2E41"/>
<path d="M366.241 276.147C365.209 274.512 364.542 272.675 364.285 270.759C364.027 268.843 364.186 266.895 364.749 265.046C365.312 263.197 366.267 261.491 367.548 260.044C368.83 258.597 370.408 257.443 372.176 256.661C376.938 254.553 382.447 255.359 387.559 254.359C396.717 252.566 404.256 244.201 404.8 234.885C405.344 225.569 398.621 216.259 389.538 214.119C385.915 213.266 382.137 213.466 378.421 213.672C374.85 213.87 371.278 214.068 367.725 214.475C360.697 215.28 353.587 216.982 347.737 220.961C341.887 224.94 337.47 231.529 337.546 238.604C337.632 246.678 341.44 262.751 346.736 268.846C351.845 274.727 355.736 276.846 363.845 277.247L366.241 276.147Z" fill="#2F2E41"/>
<path d="M465.013 373.04H452.675V360.703C452.675 360.305 452.517 359.923 452.235 359.642C451.954 359.361 451.573 359.203 451.175 359.203C450.777 359.203 450.395 359.361 450.114 359.642C449.833 359.923 449.675 360.305 449.675 360.703V373.04H437.337C436.939 373.04 436.557 373.198 436.276 373.48C435.995 373.761 435.837 374.143 435.837 374.54C435.837 374.938 435.995 375.32 436.276 375.601C436.557 375.882 436.939 376.04 437.337 376.04H449.675V388.378C449.675 388.776 449.833 389.158 450.114 389.439C450.395 389.72 450.777 389.878 451.175 389.878C451.573 389.878 451.954 389.72 452.235 389.439C452.517 389.158 452.675 388.776 452.675 388.378V376.04H465.013C465.41 376.04 465.792 375.882 466.073 375.601C466.355 375.32 466.513 374.938 466.513 374.54C466.513 374.143 466.355 373.761 466.073 373.48C465.792 373.198 465.41 373.04 465.013 373.04Z" fill="white"/>
<path d="M430.013 182.04H417.675V169.703C417.675 169.305 417.517 168.923 417.235 168.642C416.954 168.361 416.573 168.203 416.175 168.203C415.777 168.203 415.395 168.361 415.114 168.642C414.833 168.923 414.675 169.305 414.675 169.703V182.04H402.337C401.939 182.04 401.557 182.198 401.276 182.48C400.995 182.761 400.837 183.143 400.837 183.54C400.837 183.938 400.995 184.32 401.276 184.601C401.557 184.882 401.939 185.04 402.337 185.04H414.675V197.378C414.675 197.776 414.833 198.158 415.114 198.439C415.395 198.72 415.777 198.878 416.175 198.878C416.573 198.878 416.954 198.72 417.235 198.439C417.517 198.158 417.675 197.776 417.675 197.378V185.04H430.013C430.41 185.04 430.792 184.882 431.073 184.601C431.355 184.32 431.513 183.938 431.513 183.54C431.513 183.143 431.355 182.761 431.073 182.48C430.792 182.198 430.41 182.04 430.013 182.04Z" fill="white"/>
<path d="M270.013 238.04H257.675V225.703C257.675 225.305 257.517 224.923 257.235 224.642C256.954 224.361 256.573 224.203 256.175 224.203C255.777 224.203 255.395 224.361 255.114 224.642C254.833 224.923 254.675 225.305 254.675 225.703V238.04H242.337C241.939 238.04 241.557 238.198 241.276 238.48C240.995 238.761 240.837 239.143 240.837 239.54C240.837 239.938 240.995 240.32 241.276 240.601C241.557 240.882 241.939 241.04 242.337 241.04H254.675V253.378C254.675 253.776 254.833 254.158 255.114 254.439C255.395 254.72 255.777 254.878 256.175 254.878C256.573 254.878 256.954 254.72 257.235 254.439C257.517 254.158 257.675 253.776 257.675 253.378V241.04H270.013C270.41 241.04 270.792 240.882 271.073 240.601C271.355 240.32 271.513 239.938 271.513 239.54C271.513 239.143 271.355 238.761 271.073 238.48C270.792 238.198 270.41 238.04 270.013 238.04Z" fill="white"/>
</g>
<defs>
<clipPath id="clip0_44_213">
<rect width="811.349" height="624.081" fill="white"/>
</clipPath>
</defs>
</svg>
