<svg width="1280" height="854" viewBox="0 0 1280 854" fill="none" xmlns="http://www.w3.org/2000/svg">
<g clip-path="url(#clip0_64_424)">
<path d="M149.867 -165.2C194.604 -121.646 194.604 -51.0658 149.867 -7.46557C105.129 36.0886 32.585 36.0886 -12.1522 -7.46557C-56.8894 -51.0198 -56.8894 -121.646 -12.1522 -165.2" stroke="#F2F2F2" stroke-opacity="0.18" stroke-miterlimit="10"/>
<path d="M230.326 75.9874C186.128 120.271 114.458 120.271 70.2597 75.9874C26.0615 31.7041 26.0615 -40.1043 70.2597 -84.3876C114.458 -128.671 186.081 -128.671 230.326 -84.3876C274.525 -40.1043 274.525 31.6572 230.326 75.9874Z" stroke="#F2F2F2" stroke-opacity="0.18" stroke-miterlimit="10"/>
<path d="M305.67 156.367C262.549 201.744 192.627 201.744 149.507 156.367C106.387 110.991 106.387 37.4573 149.507 -7.96742C192.627 -53.3442 262.549 -53.3442 305.67 -7.96742C348.79 37.4093 348.79 110.991 305.67 156.367Z" stroke="#F2F2F2" stroke-opacity="0.18" stroke-miterlimit="10"/>
<path d="M388.081 237.977C344.422 282.808 273.626 282.808 229.967 237.977C186.307 193.147 186.307 120.453 229.967 75.6225C273.626 30.7925 344.422 30.7925 388.081 75.6225C431.74 120.453 431.74 193.147 388.081 237.977Z" stroke="#F2F2F2" stroke-opacity="0.18" stroke-miterlimit="10"/>
<path d="M467.328 319.177C422.591 364.007 350.047 364.007 305.31 319.177C260.573 274.347 260.573 201.653 305.31 156.822C350.047 111.992 422.591 111.992 467.328 156.822C512.066 201.653 512.066 274.347 467.328 319.177Z" stroke="#F2F2F2" stroke-opacity="0.18" stroke-miterlimit="10"/>
<path d="M708.303 560.38C664.644 604.673 593.848 604.673 550.189 560.38C506.53 516.088 506.53 444.265 550.189 400.019C593.848 355.727 664.644 355.727 708.303 400.019C751.963 444.312 751.963 516.135 708.303 560.427V560.38Z" stroke="#F2F2F2" stroke-opacity="0.18" stroke-miterlimit="10"/>
<path d="M550.144 400.788C505.407 445.071 432.863 445.071 388.126 400.788C343.388 356.504 343.388 284.696 388.126 240.413C432.863 196.129 505.407 196.129 550.144 240.413C594.882 284.696 594.882 356.458 550.144 400.741V400.788Z" stroke="#F2F2F2" stroke-opacity="0.18" stroke-miterlimit="10"/>
<path d="M625.487 478.777C581.828 523.607 511.032 523.607 467.373 478.777C423.714 433.947 423.714 361.252 467.373 316.422C511.032 271.592 581.828 271.592 625.487 316.422C669.147 361.252 669.147 433.9 625.487 478.73V478.777Z" stroke="#F2F2F2" stroke-opacity="0.18" stroke-miterlimit="10"/>
<path d="M785.194 643.568C740.996 688.944 669.326 688.944 625.128 643.568C580.929 598.191 580.929 524.61 625.128 479.233C669.326 433.856 740.996 433.856 785.194 479.233C829.393 524.61 829.393 598.191 785.194 643.52V643.568Z" stroke="#F2F2F2" stroke-opacity="0.18" stroke-miterlimit="10"/>
<path d="M867.606 725.178C822.869 770.008 750.325 770.008 705.587 725.178C660.85 680.348 660.85 607.653 705.587 562.823C750.325 517.993 822.869 517.993 867.606 562.823C912.343 607.653 912.343 680.348 867.606 725.178Z" stroke="#F2F2F2" stroke-opacity="0.18" stroke-miterlimit="10"/>
<path d="M945.345 801.591C901.138 845.336 829.453 845.336 785.245 801.591C741.038 757.845 741.038 686.955 785.245 643.209C829.453 599.463 901.091 599.463 945.298 643.209C989.506 686.955 989.506 757.891 945.298 801.637L945.345 801.591Z" stroke="#F2F2F2" stroke-opacity="0.18" stroke-miterlimit="10"/>
<path d="M1025.72 882.387C982.06 926.671 911.264 926.671 867.651 882.387C823.991 838.104 823.991 766.296 867.651 722.012C911.31 677.729 982.106 677.729 1025.77 722.012C1069.42 766.296 1069.42 838.057 1025.77 882.341L1025.72 882.387Z" stroke="#F2F2F2" stroke-opacity="0.18" stroke-miterlimit="10"/>
<path d="M944.952 963.153C901.284 918.959 901.284 847.341 944.952 803.146C988.621 758.951 1059.39 758.951 1103.05 803.146C1146.72 847.341 1146.72 919.005 1103.05 963.2" stroke="#F2F2F2" stroke-opacity="0.18" stroke-miterlimit="10"/>
<path d="M446.046 -142.8C489.714 -99.2458 489.714 -28.6659 446.046 14.9343C402.378 58.4885 331.567 58.4885 287.945 14.9343C244.277 -28.6199 244.277 -99.2458 287.945 -142.8" stroke="#F2F2F2" stroke-opacity="0.18" stroke-miterlimit="10"/>
<path d="M528.06 98.3875C483.323 142.671 410.779 142.671 366.041 98.3875C321.304 54.1042 321.304 -17.7041 366.041 -61.9874C410.779 -106.271 483.323 -106.271 528.06 -61.9874C572.797 -17.7041 572.797 54.0574 528.06 98.3408V98.3875Z" stroke="#F2F2F2" stroke-opacity="0.18" stroke-miterlimit="10"/>
<path d="M603.403 178.767C559.744 224.144 488.948 224.144 445.288 178.767C401.629 133.391 401.629 59.8092 445.288 14.4325C488.948 -30.9443 559.698 -30.9443 603.403 14.4325C647.062 59.8092 647.062 133.343 603.403 178.767Z" stroke="#F2F2F2" stroke-opacity="0.18" stroke-miterlimit="10"/>
<path d="M845.926 420.387C801.728 464.671 730.058 464.671 685.859 420.387C641.661 376.104 641.661 304.342 685.859 260.012C730.058 215.729 801.728 215.729 845.926 260.012C890.124 304.296 890.124 376.104 845.926 420.387Z" stroke="#F2F2F2" stroke-opacity="0.18" stroke-miterlimit="10"/>
<path d="M685.855 260.37C641.647 305.21 570.009 305.21 525.755 260.37C481.548 215.531 481.548 142.821 525.755 98.0294C569.962 53.1901 641.647 53.1901 685.808 98.0294C730.015 142.869 730.015 215.578 685.808 260.418L685.855 260.37Z" stroke="#F2F2F2" stroke-opacity="0.18" stroke-miterlimit="10"/>
<path d="M763.514 336.798C719.855 380.534 649.059 380.534 605.4 336.798C561.74 293.061 561.74 222.139 605.4 178.403C649.059 134.666 719.855 134.666 763.514 178.403C807.174 222.139 807.174 293.061 763.514 336.751V336.798Z" stroke="#F2F2F2" stroke-opacity="0.18" stroke-miterlimit="10"/>
<path d="M923.174 500.767C878.976 546.144 807.306 546.144 763.155 500.767C718.956 455.391 718.956 381.809 763.155 336.432C807.353 291.056 879.023 291.056 923.221 336.432C967.419 381.809 967.419 455.391 923.221 500.767H923.174Z" stroke="#F2F2F2" stroke-opacity="0.18" stroke-miterlimit="10"/>
<path d="M1003.68 582.377C960.022 627.207 889.225 627.207 845.566 582.377C801.907 537.547 801.907 464.852 845.566 420.022C889.225 375.192 960.022 375.192 1003.68 420.022C1047.34 464.852 1047.34 537.547 1003.68 582.377Z" stroke="#F2F2F2" stroke-opacity="0.18" stroke-miterlimit="10"/>
<path d="M1083.29 663.578C1039.09 708.408 967.464 708.408 923.265 663.578C879.067 618.747 879.067 546.053 923.265 501.223C967.464 456.393 1039.13 456.393 1083.33 501.223C1127.53 546.053 1127.53 618.7 1083.33 663.578H1083.29Z" stroke="#F2F2F2" stroke-opacity="0.18" stroke-miterlimit="10"/>
<path d="M1165.74 747.578C1121.01 792.408 1048.46 792.408 1003.73 747.578C958.988 702.747 958.988 630.053 1003.73 585.223C1048.46 540.393 1121.01 540.393 1165.74 585.223C1210.48 630.053 1210.48 702.747 1165.74 747.578Z" stroke="#F2F2F2" stroke-opacity="0.18" stroke-miterlimit="10"/>
<path d="M1241.08 823.991C1197.41 867.737 1126.6 867.737 1082.98 823.991C1039.31 780.245 1039.31 709.355 1082.98 665.61C1126.65 621.864 1197.41 621.864 1241.08 665.61C1284.75 709.355 1284.75 780.292 1241.08 824.037V823.991Z" stroke="#F2F2F2" stroke-opacity="0.18" stroke-miterlimit="10"/>
<path d="M663.731 -204.4C707.929 -158.924 707.929 -85.1824 663.731 -39.7067C619.532 5.76903 547.909 5.76903 503.664 -39.7067C459.466 -85.1824 459.466 -158.924 503.664 -204.4" stroke="#F2F2F2" stroke-opacity="0.18" stroke-miterlimit="10"/>
<path d="M743.779 -123.153C787.987 -78.9585 787.987 -7.29397 743.779 36.854C699.572 81.0487 627.887 81.0487 583.726 36.854C539.519 -7.34069 539.519 -78.9585 583.726 -123.2" stroke="#F2F2F2" stroke-opacity="0.18" stroke-miterlimit="10"/>
<path d="M981.636 282.771C937.968 327.61 867.157 327.61 823.489 282.771C779.821 237.931 779.821 165.269 823.489 120.43C867.157 75.5902 937.968 75.5902 981.59 120.43C1025.26 165.269 1025.26 237.979 981.59 282.818L981.636 282.771Z" stroke="#F2F2F2" stroke-opacity="0.18" stroke-miterlimit="10"/>
<path d="M826.198 120.781C781.461 165.073 708.917 165.073 664.179 120.781C619.442 76.4881 619.442 4.7118 664.179 -39.5807C708.917 -83.8732 781.461 -83.8732 826.198 -39.5807C870.935 4.7118 870.935 76.4881 826.198 120.827V120.781Z" stroke="#F2F2F2" stroke-opacity="0.18" stroke-miterlimit="10"/>
<path d="M901.092 198.778C856.898 243.608 785.233 243.608 741.085 198.778C696.89 153.947 696.843 81.2526 741.085 36.4226C785.28 -8.40746 856.944 -8.40746 901.139 36.4226C945.334 81.2526 945.334 153.9 901.139 198.778H901.092Z" stroke="#F2F2F2" stroke-opacity="0.18" stroke-miterlimit="10"/>
<path d="M1061.2 361.587C1017 405.871 945.38 405.871 901.181 361.587C856.983 317.304 856.983 245.496 901.181 201.213C945.38 156.929 1017.05 156.929 1061.25 201.213C1105.45 245.496 1105.45 317.304 1061.25 361.541L1061.2 361.587Z" stroke="#F2F2F2" stroke-opacity="0.18" stroke-miterlimit="10"/>
<path d="M1143.66 442.788C1098.92 487.071 1026.38 487.071 981.641 442.788C936.904 398.504 936.904 326.696 981.641 282.413C1026.38 238.129 1098.92 238.129 1143.66 282.413C1188.4 326.696 1188.4 398.504 1143.66 442.788Z" stroke="#F2F2F2" stroke-opacity="0.18" stroke-miterlimit="10"/>
<path d="M1219.4 523.167C1176.27 568.544 1106.33 568.544 1063.25 523.167C1020.12 477.791 1020.12 404.209 1063.25 358.832C1106.38 313.456 1176.27 313.456 1219.4 358.832C1262.53 404.209 1262.53 477.743 1219.4 523.119V523.167Z" stroke="#F2F2F2" stroke-opacity="0.18" stroke-miterlimit="10"/>
<path d="M1301.82 604.777C1258.16 649.607 1187.36 649.607 1143.7 604.777C1100.05 559.947 1100.05 487.252 1143.7 442.422C1187.36 397.592 1258.16 397.592 1301.82 442.422C1345.48 487.252 1345.48 559.947 1301.82 604.777Z" stroke="#F2F2F2" stroke-opacity="0.18" stroke-miterlimit="10"/>
<path d="M1379.56 683.587C1336.43 727.871 1266.49 727.871 1223.36 683.587C1180.23 639.257 1180.23 567.496 1223.36 523.213C1266.49 478.929 1336.38 478.929 1379.51 523.213C1422.64 567.496 1422.64 639.304 1379.51 683.587H1379.56Z" stroke="#F2F2F2" stroke-opacity="0.18" stroke-miterlimit="10"/>
<path d="M1121.62 142.367C1076.87 187.744 1004.31 187.744 959.564 142.367C914.817 96.9907 914.817 23.4093 959.564 -21.9674C1004.31 -67.3442 1076.87 -67.3442 1121.57 -21.9674C1166.32 23.4093 1166.32 96.9907 1121.57 142.367H1121.62Z" stroke="#F2F2F2" stroke-opacity="0.18" stroke-miterlimit="10"/>
<path d="M959.917 -179.2C1003.04 -135.005 1003.04 -63.3407 959.917 -19.146C916.796 25.0487 846.874 25.0487 803.754 -19.146C760.634 -63.3407 760.634 -134.959 803.754 -179.2" stroke="#F2F2F2" stroke-opacity="0.18" stroke-miterlimit="10"/>
<path d="M1039.12 59.1876C994.919 103.471 923.248 103.471 879.097 59.1876C834.899 14.9043 834.899 -56.9041 879.097 -101.187C923.295 -145.471 994.965 -145.471 1039.16 -101.187C1083.36 -56.9041 1083.36 14.8574 1039.16 59.1408L1039.12 59.1876Z" stroke="#F2F2F2" stroke-opacity="0.18" stroke-miterlimit="10"/>
<path d="M1204.39 218.787C1159.65 263.071 1087.11 263.071 1042.37 218.787C997.636 174.504 997.636 102.696 1042.37 58.4125C1087.11 14.1291 1159.61 14.1291 1204.39 58.4125C1249.13 102.696 1249.13 174.457 1204.39 218.787Z" stroke="#F2F2F2" stroke-opacity="0.18" stroke-miterlimit="10"/>
<path d="M1282.09 302.787C1237.89 347.071 1166.22 347.071 1122.02 302.787C1077.83 258.504 1077.83 186.696 1122.02 142.412C1166.22 98.1291 1237.89 98.1291 1282.09 142.412C1326.29 186.696 1326.29 258.504 1282.09 302.787Z" stroke="#F2F2F2" stroke-opacity="0.18" stroke-miterlimit="10"/>
<path d="M1357.79 383.578C1315.21 428.408 1246.21 428.408 1203.63 383.578C1161.05 338.747 1161.05 266.053 1203.63 221.223C1246.21 176.393 1315.26 176.393 1357.84 221.223C1400.42 266.053 1400.42 338.7 1357.84 383.578H1357.79Z" stroke="#F2F2F2" stroke-opacity="0.18" stroke-miterlimit="10"/>
<path d="M1439.85 464.777C1396.19 509.607 1325.39 509.607 1281.73 464.777C1238.07 419.947 1238.07 347.252 1281.73 302.422C1325.39 257.592 1396.19 257.592 1439.85 302.422C1483.5 347.252 1483.5 419.947 1439.85 464.777Z" stroke="#F2F2F2" stroke-opacity="0.18" stroke-miterlimit="10"/>
<path d="M1260.01 -156.8C1304.2 -112.605 1304.2 -40.9408 1260.01 3.25392C1215.81 47.4486 1144.14 47.4486 1099.94 3.25392C1055.74 -40.9408 1055.74 -112.559 1099.94 -156.753" stroke="#F2F2F2" stroke-opacity="0.18" stroke-miterlimit="10"/>
<path d="M1338.11 81.5875C1294.99 125.871 1225.07 125.871 1181.95 81.5875C1138.83 37.3042 1138.83 -34.4573 1181.95 -78.7875C1225.07 -123.071 1294.99 -123.071 1338.11 -78.7875C1381.23 -34.5041 1381.23 37.3042 1338.11 81.5875Z" stroke="#F2F2F2" stroke-opacity="0.18" stroke-miterlimit="10"/>
<path d="M1417.72 164.767C1374.06 210.144 1303.31 210.144 1259.65 164.767C1215.99 119.391 1215.99 45.8092 1259.65 0.43248C1303.31 -44.9443 1374.1 -44.9443 1417.76 0.43248C1461.42 45.8092 1461.42 119.391 1417.76 164.719L1417.72 164.767Z" stroke="#F2F2F2" stroke-opacity="0.18" stroke-miterlimit="10"/>
<path d="M119.858 103.981C75.6601 148.273 4.03657 148.273 -40.1616 103.981C-84.3599 59.6881 -84.3599 -12.0883 -40.1616 -56.3807C4.03657 -100.673 75.7068 -100.673 119.905 -56.3807C164.103 -12.0883 164.103 59.688 119.905 104.027L119.858 103.981Z" stroke="#F2F2F2" stroke-opacity="0.18" stroke-miterlimit="10"/>
<path d="M199.509 187.571C154.772 232.41 82.2747 232.41 37.5375 187.571C-7.19968 142.731 -7.19968 70.0689 37.5375 25.2296C82.2747 -19.6097 154.819 -19.6097 199.556 25.2296C244.293 70.0689 244.293 142.779 199.556 187.618L199.509 187.571Z" stroke="#F2F2F2" stroke-opacity="0.18" stroke-miterlimit="10"/>
<path d="M279.969 265.977C235.771 310.808 164.148 310.808 119.949 265.977C75.7512 221.147 75.7512 148.453 119.949 103.623C164.148 58.7925 235.818 58.7925 280.016 103.623C324.214 148.453 324.214 221.147 280.016 265.977H279.969Z" stroke="#F2F2F2" stroke-opacity="0.18" stroke-miterlimit="10"/>
<path d="M357.715 349.977C314.056 394.808 243.26 394.808 199.601 349.977C155.942 305.147 155.942 232.453 199.601 187.623C243.26 142.792 314.01 142.792 357.715 187.623C401.375 232.453 401.375 305.147 357.715 349.93V349.977Z" stroke="#F2F2F2" stroke-opacity="0.18" stroke-miterlimit="10"/>
<path d="M438.13 430.76C395.009 476.146 325.087 476.146 282.013 430.76C238.892 385.374 238.892 311.826 282.013 266.44C325.133 221.053 395.055 221.053 438.175 266.44C481.295 311.826 481.295 385.374 438.175 430.808L438.13 430.76Z" stroke="#F2F2F2" stroke-opacity="0.18" stroke-miterlimit="10"/>
<path d="M517.018 509.987C472.281 554.271 399.736 554.271 354.999 509.987C310.262 465.704 310.262 393.896 354.999 349.612C399.736 305.329 472.281 305.329 517.018 349.612C561.755 393.896 561.755 465.704 517.018 509.987Z" stroke="#F2F2F2" stroke-opacity="0.18" stroke-miterlimit="10"/>
<path d="M760.35 753.171C716.151 798.01 644.481 798.01 600.283 753.171C556.085 708.331 556.085 635.622 600.283 590.83C644.481 545.99 716.151 545.99 760.35 590.83C804.548 635.669 804.548 708.379 760.35 753.218V753.171Z" stroke="#F2F2F2" stroke-opacity="0.18" stroke-miterlimit="10"/>
<path d="M597.431 588.791C553.233 632.537 481.609 632.537 437.411 588.791C393.213 545.045 393.213 474.109 437.411 430.409C481.609 386.664 553.28 386.664 597.478 430.409C641.676 474.155 641.676 545.091 597.478 588.837L597.431 588.791Z" stroke="#F2F2F2" stroke-opacity="0.18" stroke-miterlimit="10"/>
<path d="M677.486 671.986C633.288 716.828 561.665 716.781 517.467 671.986C473.268 627.143 473.268 554.427 517.467 509.632C561.665 464.789 633.335 464.789 677.533 509.632C721.731 554.475 721.731 627.19 677.533 672.033L677.486 671.986Z" stroke="#F2F2F2" stroke-opacity="0.18" stroke-miterlimit="10"/>
<path d="M835.693 834.37C792.572 879.21 722.696 879.21 679.53 834.37C636.41 789.531 636.41 716.821 679.53 672.029C722.65 627.19 792.572 627.19 835.693 672.029C878.813 716.869 878.813 789.531 835.693 834.418V834.37Z" stroke="#F2F2F2" stroke-opacity="0.18" stroke-miterlimit="10"/>
<path d="M914.939 910.798C870.741 954.534 799.118 954.534 754.873 910.798C710.675 867.061 710.675 796.185 754.873 752.403C799.071 708.666 870.741 708.666 914.939 752.403C959.138 796.139 959.138 867.015 914.939 910.798Z" stroke="#F2F2F2" stroke-opacity="0.18" stroke-miterlimit="10"/>
<path d="M835.333 994C790.595 949.165 790.595 876.462 835.333 831.626C880.07 786.791 952.614 786.791 997.351 831.626C1042.09 876.462 1042.09 949.165 997.351 993.953" stroke="#F2F2F2" stroke-opacity="0.18" stroke-miterlimit="10"/>
<path d="M-17.7638 243.987C-61.423 288.271 -132.173 288.271 -175.832 243.987C-219.491 199.704 -219.491 127.896 -175.832 83.6124C-132.173 39.3291 -61.3768 39.3291 -17.7176 83.6124C25.9416 127.896 25.9416 199.657 -17.7176 243.987H-17.7638Z" stroke="#F2F2F2" stroke-opacity="0.18" stroke-miterlimit="10"/>
<path d="M61.9338 327.578C17.7356 372.408 -53.9346 372.408 -98.1328 327.578C-142.331 282.748 -142.331 210.053 -98.1328 165.223C-53.9346 120.393 17.7356 120.393 61.9338 165.223C106.132 210.053 106.132 282.748 61.9338 327.578Z" stroke="#F2F2F2" stroke-opacity="0.18" stroke-miterlimit="10"/>
<path d="M141.943 408.777C97.7443 453.607 26.1208 453.607 -18.0774 408.777C-62.2756 363.947 -62.2756 291.252 -18.0774 246.422C26.1208 201.592 97.791 201.592 141.989 246.422C186.187 291.252 186.187 363.947 141.989 408.777H141.943Z" stroke="#F2F2F2" stroke-opacity="0.18" stroke-miterlimit="10"/>
<path d="M221.641 487.587C176.904 531.871 104.359 531.871 59.622 487.587C14.8848 443.304 14.8848 371.496 59.622 327.213C104.359 282.929 176.856 282.929 221.641 327.213C266.378 371.496 266.378 443.304 221.641 487.587Z" stroke="#F2F2F2" stroke-opacity="0.18" stroke-miterlimit="10"/>
<path d="M302.1 566.398C257.902 610.134 186.232 610.134 142.034 566.398C97.8355 522.661 97.8355 451.739 142.034 408.003C186.232 364.266 257.902 364.266 302.1 408.003C346.299 451.739 346.299 522.661 302.1 566.398Z" stroke="#F2F2F2" stroke-opacity="0.18" stroke-miterlimit="10"/>
<path d="M379.8 649.578C336.141 694.408 265.344 694.408 221.685 649.578C178.026 604.747 178.026 532.053 221.685 487.223C265.344 442.393 336.094 442.393 379.8 487.223C423.459 532.053 423.459 604.748 379.8 649.53V649.578Z" stroke="#F2F2F2" stroke-opacity="0.18" stroke-miterlimit="10"/>
<path d="M619.562 895.568C575.364 940.944 503.74 940.944 459.495 895.568C415.297 850.191 415.297 776.61 459.495 731.233C503.694 685.856 575.364 685.856 619.562 731.233C663.76 776.61 663.76 850.191 619.562 895.568Z" stroke="#F2F2F2" stroke-opacity="0.18" stroke-miterlimit="10"/>
<path d="M459.855 730.77C416.196 775.61 345.446 775.61 301.74 730.77C258.081 685.931 258.081 613.221 301.74 568.429C345.4 523.59 416.196 523.59 459.855 568.429C503.514 613.269 503.514 685.978 459.855 730.818V730.77Z" stroke="#F2F2F2" stroke-opacity="0.18" stroke-miterlimit="10"/>
<path d="M539.507 814.36C495.308 859.747 423.638 859.747 379.44 814.36C335.242 768.974 335.242 695.426 379.44 650.04C423.638 604.653 495.308 604.653 539.507 650.04C583.705 695.426 583.705 769.022 539.507 814.408V814.36Z" stroke="#F2F2F2" stroke-opacity="0.18" stroke-miterlimit="10"/>
<path d="M539.147 971.553C495.488 926.717 495.488 854.062 539.147 809.226C582.806 764.391 653.602 764.391 697.261 809.226C740.921 854.062 740.921 926.765 697.261 971.6" stroke="#F2F2F2" stroke-opacity="0.18" stroke-miterlimit="10"/>
<path d="M621.963 1052.8C578.303 1007.96 578.303 935.309 621.963 890.426C665.622 845.591 736.418 845.591 780.077 890.426C823.737 935.261 823.737 1007.96 780.077 1052.8" stroke="#F2F2F2" stroke-opacity="0.18" stroke-miterlimit="10"/>
<path d="M3.91564 543.997C-40.2826 587.734 -111.906 587.734 -156.104 543.997C-200.302 500.261 -200.302 429.339 -156.104 385.602C-111.906 341.866 -40.2358 341.866 3.96238 385.602C48.1606 429.339 48.1606 500.214 3.96238 543.997H3.91564Z" stroke="#F2F2F2" stroke-opacity="0.18" stroke-miterlimit="10"/>
<path d="M84.018 627.178C39.8198 672.008 -31.8504 672.008 -76.0486 627.178C-120.247 582.348 -120.247 509.653 -76.0486 464.823C-31.8504 419.993 39.8198 419.993 84.018 464.823C128.216 509.653 128.216 582.3 84.018 627.178Z" stroke="#F2F2F2" stroke-opacity="0.18" stroke-miterlimit="10"/>
<path d="M164.027 708.377C119.829 753.207 48.1583 753.207 4.00681 708.377C-40.1914 663.547 -40.1914 590.852 4.00681 546.022C48.205 501.192 119.875 501.192 164.073 546.022C208.272 590.852 208.272 663.547 164.073 708.377H164.027Z" stroke="#F2F2F2" stroke-opacity="0.18" stroke-miterlimit="10"/>
<path d="M239.012 791.968C195.353 837.344 124.557 837.344 80.8977 791.968C37.2385 746.591 37.2385 673.009 80.8977 627.633C124.557 582.256 195.353 582.256 239.012 627.633C282.672 673.009 282.672 746.591 239.012 791.968Z" stroke="#F2F2F2" stroke-opacity="0.18" stroke-miterlimit="10"/>
<path d="M321.873 1030.35C277.136 986.8 277.136 916.22 321.873 872.666C366.61 829.111 439.154 829.111 483.891 872.666C528.629 916.22 528.629 986.846 483.891 1030.4" stroke="#F2F2F2" stroke-opacity="0.18" stroke-miterlimit="10"/>
<path d="M321.828 873.57C278.169 918.409 207.419 918.409 163.714 873.57C120.054 828.731 120.054 756.021 163.714 711.229C207.373 666.39 278.169 666.39 321.828 711.229C365.488 756.068 365.488 828.778 321.828 873.618V873.57Z" stroke="#F2F2F2" stroke-opacity="0.18" stroke-miterlimit="10"/>
<path d="M241.413 949.154C197.215 905.6 197.215 835.02 241.413 791.465C285.611 747.911 357.282 747.911 401.48 791.465C445.678 835.02 445.678 905.646 401.48 949.2" stroke="#F2F2F2" stroke-opacity="0.18" stroke-miterlimit="10"/>
<path d="M26.0468 848.788C-18.1514 893.071 -89.8216 893.071 -134.02 848.788C-178.218 804.504 -178.218 732.696 -134.02 688.413C-89.8216 644.129 -18.1514 644.129 26.0468 688.413C70.2451 732.696 70.2451 804.458 26.0468 848.741V848.788Z" stroke="#F2F2F2" stroke-opacity="0.18" stroke-miterlimit="10"/>
<path d="M106.056 927.591C61.8574 971.336 -9.76618 971.336 -53.9644 927.591C-98.1626 883.845 -98.1626 812.955 -53.9644 769.209C-9.76618 725.463 61.9041 725.463 106.102 769.209C150.3 812.955 150.3 883.845 106.102 927.637L106.056 927.591Z" stroke="#F2F2F2" stroke-opacity="0.18" stroke-miterlimit="10"/>
<path d="M26.0981 1008C-18.1092 964.446 -18.1092 893.82 26.0981 850.266C70.3055 806.712 141.944 806.712 186.151 850.266C230.358 893.82 230.358 964.446 186.151 1008" stroke="#F2F2F2" stroke-opacity="0.18" stroke-miterlimit="10"/>
<path d="M9.8392 134.377C-33.8234 179.207 -104.625 179.207 -148.242 134.377C-191.858 89.5473 -191.904 16.8525 -148.242 -27.9776C-104.579 -72.8076 -33.7773 -72.8076 9.88533 -27.9776C53.5479 16.8525 53.5479 89.5473 9.88533 134.377H9.8392Z" stroke="#F2F2F2" stroke-opacity="0.18" stroke-miterlimit="10"/>
<path d="M171.904 299.168C127.167 344.544 54.6222 344.544 9.93231 299.168C-34.8049 253.791 -34.8049 180.209 9.93231 134.833C54.6695 89.4559 127.214 89.4559 171.951 134.833C216.688 180.209 216.688 253.791 171.951 299.168H171.904Z" stroke="#F2F2F2" stroke-opacity="0.18" stroke-miterlimit="10"/>
<path d="M252.411 375.997C208.212 419.734 136.542 419.734 92.344 375.997C48.1458 332.261 48.1458 261.339 92.344 217.602C136.542 173.866 208.212 173.866 252.411 217.602C296.609 261.339 296.609 332.214 252.411 375.997Z" stroke="#F2F2F2" stroke-opacity="0.18" stroke-miterlimit="10"/>
<path d="M327.754 456.788C284.634 501.071 214.711 501.071 171.591 456.788C128.471 412.504 128.471 340.696 171.591 296.413C214.711 252.129 284.634 252.129 327.754 296.413C370.874 340.696 370.874 412.504 327.754 456.788Z" stroke="#F2F2F2" stroke-opacity="0.18" stroke-miterlimit="10"/>
<path d="M409.761 537.578C365.563 582.408 293.893 582.408 249.695 537.578C205.497 492.747 205.497 420.053 249.695 375.223C293.893 330.393 365.563 330.393 409.761 375.223C453.96 420.053 453.96 492.7 409.761 537.53V537.578Z" stroke="#F2F2F2" stroke-opacity="0.18" stroke-miterlimit="10"/>
<path d="M649.881 783.971C605.683 828.81 534.06 828.81 489.861 783.971C445.663 739.131 445.663 666.469 489.861 621.629C534.06 576.79 605.73 576.79 649.928 621.629C694.126 666.469 694.126 739.179 649.928 784.018L649.881 783.971Z" stroke="#F2F2F2" stroke-opacity="0.18" stroke-miterlimit="10"/>
<path d="M489.365 621.571C444.628 666.41 372.131 666.41 327.394 621.571C282.657 576.731 282.657 504.021 327.394 459.23C372.131 414.39 444.675 414.39 489.413 459.23C534.15 504.069 534.15 576.779 489.413 621.618L489.365 621.571Z" stroke="#F2F2F2" stroke-opacity="0.18" stroke-miterlimit="10"/>
<path d="M569.873 702.77C525.674 747.61 454.004 747.61 409.806 702.77C365.608 657.931 365.608 585.221 409.806 540.429C454.004 495.59 525.674 495.59 569.873 540.429C614.071 585.269 614.071 657.978 569.873 702.818V702.77Z" stroke="#F2F2F2" stroke-opacity="0.18" stroke-miterlimit="10"/>
<path d="M728.032 862.37C684.911 907.21 615.035 907.21 571.869 862.37C528.749 817.531 528.749 744.869 571.869 700.029C614.989 655.19 684.911 655.19 728.032 700.029C771.152 744.869 771.152 817.578 728.032 862.418V862.37Z" stroke="#F2F2F2" stroke-opacity="0.18" stroke-miterlimit="10"/>
<path d="M647.212 940.8C603.014 897.246 603.014 826.62 647.212 783.066C691.41 739.511 763.08 739.511 807.279 783.066C851.477 826.62 851.477 897.246 807.279 940.8" stroke="#F2F2F2" stroke-opacity="0.18" stroke-miterlimit="10"/>
<path d="M727.267 1024.8C683.069 979.965 683.069 907.261 727.267 862.426C771.466 817.591 843.136 817.591 887.334 862.426C931.532 907.261 931.532 979.965 887.334 1024.8" stroke="#F2F2F2" stroke-opacity="0.18" stroke-miterlimit="10"/>
<path d="M31.5678 439.167C-12.6304 484.544 -84.3006 484.544 -128.499 439.167C-172.697 393.791 -172.697 320.209 -128.499 274.832C-84.3006 229.456 -12.6771 229.456 31.5678 274.832C75.7661 320.209 75.7661 393.743 31.5678 439.167Z" stroke="#F2F2F2" stroke-opacity="0.18" stroke-miterlimit="10"/>
<path d="M111.623 517.977C67.4251 562.808 -4.19846 562.808 -48.4434 517.977C-92.6416 473.147 -92.6416 400.453 -48.4434 355.623C-4.24519 310.792 67.4251 310.792 111.623 355.623C155.821 400.453 155.821 473.1 111.623 517.93V517.977Z" stroke="#F2F2F2" stroke-opacity="0.18" stroke-miterlimit="10"/>
<path d="M194.035 599.587C149.298 643.871 76.7538 643.871 32.0165 599.587C-12.7207 555.304 -12.7207 483.496 32.0165 439.213C76.7538 394.929 149.251 394.929 194.035 439.213C238.772 483.496 238.772 555.257 194.035 599.541V599.587Z" stroke="#F2F2F2" stroke-opacity="0.18" stroke-miterlimit="10"/>
<path d="M267.381 677.987C224.8 722.271 155.752 722.271 113.216 677.987C70.6345 633.704 70.6345 561.896 113.216 517.612C155.797 473.329 224.8 473.329 267.426 517.612C310.007 561.896 310.007 633.657 267.426 677.941L267.381 677.987Z" stroke="#F2F2F2" stroke-opacity="0.18" stroke-miterlimit="10"/>
<path d="M511.537 923.977C466.791 968.808 394.232 968.808 349.485 923.977C304.739 879.147 304.739 806.453 349.485 761.623C394.232 716.792 466.744 716.792 511.49 761.623C556.236 806.453 556.236 879.147 511.49 923.977H511.537Z" stroke="#F2F2F2" stroke-opacity="0.18" stroke-miterlimit="10"/>
<path d="M349.838 761.578C306.718 806.408 236.796 806.408 193.675 761.578C150.555 716.747 150.555 644.053 193.675 599.223C236.796 554.393 306.718 554.393 349.838 599.223C392.958 644.053 392.958 716.747 349.838 761.578Z" stroke="#F2F2F2" stroke-opacity="0.18" stroke-miterlimit="10"/>
<path d="M431.441 839.977C386.704 884.808 314.16 884.808 269.423 839.977C224.685 795.147 224.685 722.453 269.423 677.623C314.16 632.792 386.704 632.792 431.441 677.623C476.178 722.453 476.178 795.147 431.441 839.977Z" stroke="#F2F2F2" stroke-opacity="0.18" stroke-miterlimit="10"/>
<path d="M431.492 1002.4C387.824 957.565 387.824 884.909 431.492 840.026C475.161 795.191 545.925 795.191 589.594 840.026C633.262 884.862 633.262 957.517 589.594 1002.4" stroke="#F2F2F2" stroke-opacity="0.18" stroke-miterlimit="10"/>
<path d="M-28.7596 655.587C-72.4188 699.871 -143.215 699.871 -186.874 655.587C-230.533 611.304 -230.533 539.496 -186.874 495.213C-143.215 450.929 -72.4649 450.929 -28.7596 495.213C14.8996 539.496 14.8996 611.257 -28.7596 655.541V655.587Z" stroke="#F2F2F2" stroke-opacity="0.18" stroke-miterlimit="10"/>
<path d="M53.6521 739.178C9.45389 784.008 -62.1697 784.008 -106.415 739.178C-150.613 694.348 -150.613 621.653 -106.415 576.823C-62.2164 531.993 9.45389 531.993 53.6521 576.823C97.8503 621.653 97.8503 694.348 53.6521 739.178Z" stroke="#F2F2F2" stroke-opacity="0.18" stroke-miterlimit="10"/>
<path d="M130.947 819.968C86.749 865.344 15.0788 865.344 -29.1194 819.968C-73.3176 774.591 -73.3176 701.009 -29.1194 655.633C15.0788 610.256 86.7023 610.256 130.947 655.633C175.145 701.009 175.145 774.543 130.947 819.92V819.968Z" stroke="#F2F2F2" stroke-opacity="0.18" stroke-miterlimit="10"/>
<path d="M213.763 901.578C169.565 946.408 97.8947 946.408 53.6965 901.578C9.4983 856.748 9.4983 784.053 53.6965 739.223C97.8947 694.393 169.565 694.393 213.763 739.223C257.961 784.053 257.961 856.748 213.763 901.578Z" stroke="#F2F2F2" stroke-opacity="0.18" stroke-miterlimit="10"/>
<path d="M130.587 980C86.9282 935.805 86.9282 864.187 130.587 819.946C174.247 775.751 245.043 775.751 288.702 819.946C332.361 864.141 332.361 935.805 288.702 980" stroke="#F2F2F2" stroke-opacity="0.18" stroke-miterlimit="10"/>
<path d="M257.932 -193.153C302.13 -148.959 302.13 -77.294 257.932 -33.146C213.734 11.0487 142.063 11.0487 97.8652 -33.146C53.667 -77.3407 53.667 -149.005 97.8652 -193.2" stroke="#F2F2F2" stroke-opacity="0.18" stroke-miterlimit="10"/>
<path d="M335.631 47.9874C291.972 92.2707 221.176 92.2707 177.516 47.9874C133.857 3.70405 133.857 -68.1042 177.516 -112.388C221.176 -156.671 291.972 -156.671 335.631 -112.388C379.29 -68.1042 379.29 3.70405 335.631 47.9874Z" stroke="#F2F2F2" stroke-opacity="0.18" stroke-miterlimit="10"/>
<path d="M416.091 128.778C372.971 173.608 303.049 173.608 259.928 128.778C216.808 83.9475 216.808 11.2526 259.928 -33.5774C303.049 -78.4075 372.925 -78.4075 416.091 -33.5774C459.211 11.2526 459.211 83.9475 416.091 128.73V128.778Z" stroke="#F2F2F2" stroke-opacity="0.18" stroke-miterlimit="10"/>
<path d="M494.927 207.587C450.18 251.871 377.668 251.871 332.922 207.587C288.175 163.304 288.175 91.4958 332.922 47.2125C377.668 2.92917 450.18 2.92917 494.927 47.2125C539.673 91.4958 539.673 163.304 494.927 207.541V207.587Z" stroke="#F2F2F2" stroke-opacity="0.18" stroke-miterlimit="10"/>
<path d="M575.394 288.377C531.195 333.207 459.525 333.207 415.327 288.377C371.129 243.547 371.129 170.852 415.327 126.022C459.525 81.1924 531.195 81.1924 575.394 126.022C619.592 170.852 619.592 243.547 575.394 288.377Z" stroke="#F2F2F2" stroke-opacity="0.18" stroke-miterlimit="10"/>
<path d="M658.16 369.987C613.959 414.271 542.283 414.271 498.128 369.987C453.973 325.704 453.926 253.896 498.128 209.612C542.329 165.329 614.005 165.329 658.207 209.612C702.409 253.896 702.409 325.657 658.207 369.941L658.16 369.987Z" stroke="#F2F2F2" stroke-opacity="0.18" stroke-miterlimit="10"/>
<path d="M893.664 610.788C850.543 655.071 780.621 655.071 737.501 610.788C694.381 566.504 694.381 494.696 737.501 450.413C780.621 406.129 850.543 406.129 893.664 450.413C936.784 494.696 936.784 566.504 893.664 610.788Z" stroke="#F2F2F2" stroke-opacity="0.18" stroke-miterlimit="10"/>
<path d="M738.305 453.167C694.098 498.544 622.413 498.544 578.206 453.167C533.998 407.791 533.998 334.257 578.206 288.832C622.413 243.456 694.051 243.456 738.259 288.832C782.466 334.209 782.466 407.791 738.259 453.167H738.305Z" stroke="#F2F2F2" stroke-opacity="0.18" stroke-miterlimit="10"/>
<path d="M813.647 531.977C770.518 576.808 700.581 576.808 657.452 531.977C614.323 487.147 614.323 414.5 657.452 369.623C700.581 324.792 770.518 324.792 813.602 369.623C856.731 414.453 856.731 487.147 813.602 531.977H813.647Z" stroke="#F2F2F2" stroke-opacity="0.18" stroke-miterlimit="10"/>
<path d="M975.669 694.377C931.467 739.207 859.791 739.207 815.59 694.377C771.388 649.547 771.435 576.852 815.59 532.022C859.791 487.192 931.42 487.192 975.669 532.022C1019.87 576.852 1019.87 649.5 975.669 694.377Z" stroke="#F2F2F2" stroke-opacity="0.18" stroke-miterlimit="10"/>
<path d="M1055.73 775.167C1011.53 820.544 939.858 820.544 895.66 775.167C851.462 729.791 851.462 656.209 895.66 610.832C939.858 565.456 1011.53 565.456 1055.73 610.832C1099.92 656.209 1099.92 729.791 1055.73 775.167Z" stroke="#F2F2F2" stroke-opacity="0.18" stroke-miterlimit="10"/>
<path d="M1138.14 856.777C1093.4 901.607 1020.86 901.607 976.12 856.777C931.383 811.947 931.383 739.252 976.12 694.422C1020.86 649.592 1093.4 649.592 1138.14 694.422C1182.88 739.252 1182.88 811.947 1138.14 856.777Z" stroke="#F2F2F2" stroke-opacity="0.18" stroke-miterlimit="10"/>
<path d="M1055.78 935.2C1011.57 891.005 1011.57 819.387 1055.78 775.146C1099.99 730.951 1171.62 730.951 1215.83 775.146C1260.04 819.341 1260.04 890.959 1215.83 935.2" stroke="#F2F2F2" stroke-opacity="0.18" stroke-miterlimit="10"/>
<path d="M1137.78 1016.4C1094.66 972.205 1094.66 900.54 1137.78 856.346C1180.9 812.151 1250.82 812.151 1293.94 856.346C1337.06 900.54 1337.06 972.205 1293.94 1016.4" stroke="#F2F2F2" stroke-opacity="0.18" stroke-miterlimit="10"/>
<path d="M555.665 -170.8C600.403 -126.595 600.403 -54.9128 555.665 -10.7541C510.928 33.4513 438.384 33.4513 393.647 -10.7541C348.909 -54.9595 348.909 -126.595 393.647 -170.8" stroke="#F2F2F2" stroke-opacity="0.18" stroke-miterlimit="10"/>
<path d="M636.078 67.9976C591.88 111.734 520.257 111.734 476.059 67.9976C431.86 24.2609 431.86 -46.6608 476.059 -90.3975C520.257 -134.134 591.927 -134.134 636.125 -90.3975C680.323 -46.6608 680.323 24.2609 636.125 67.9976H636.078Z" stroke="#F2F2F2" stroke-opacity="0.18" stroke-miterlimit="10"/>
<path d="M716.181 151.177C671.983 196.007 600.312 196.007 556.114 151.177C511.916 106.347 511.916 33.6525 556.114 -11.1775C600.312 -56.0076 671.983 -56.0076 716.181 -11.1775C760.379 33.6525 760.379 106.347 716.181 151.177Z" stroke="#F2F2F2" stroke-opacity="0.18" stroke-miterlimit="10"/>
<path d="M791.478 229.987C748.358 274.271 678.436 274.271 635.361 229.987C592.241 185.704 592.241 113.896 635.361 69.6124C678.481 25.3291 748.404 25.3291 791.524 69.6124C834.644 113.896 834.644 185.657 791.524 229.941L791.478 229.987Z" stroke="#F2F2F2" stroke-opacity="0.18" stroke-miterlimit="10"/>
<path d="M1033.64 473.178C989.444 518.008 917.774 518.008 873.576 473.178C829.378 428.348 829.378 355.653 873.576 310.823C917.774 265.993 989.444 265.993 1033.64 310.823C1077.84 355.653 1077.84 428.348 1033.64 473.178Z" stroke="#F2F2F2" stroke-opacity="0.18" stroke-miterlimit="10"/>
<path d="M873.936 310.778C830.277 355.608 759.48 355.608 715.821 310.778C672.162 265.947 672.162 193.3 715.821 148.423C759.48 103.593 830.277 103.593 873.936 148.423C917.595 193.253 917.595 265.947 873.936 310.778Z" stroke="#F2F2F2" stroke-opacity="0.18" stroke-miterlimit="10"/>
<path d="M953.587 392.387C909.389 436.671 837.719 436.671 793.52 392.387C749.322 348.104 749.322 276.342 793.52 232.012C837.719 187.729 909.389 187.729 953.587 232.012C997.785 276.296 997.785 348.104 953.587 392.387Z" stroke="#F2F2F2" stroke-opacity="0.18" stroke-miterlimit="10"/>
<path d="M1116.09 554.37C1071.35 599.21 998.789 599.21 954.043 554.37C909.296 509.531 909.296 436.869 954.043 392.029C998.789 347.19 1071.3 347.19 1116.05 392.029C1160.79 436.869 1160.79 509.531 1116.05 554.418L1116.09 554.37Z" stroke="#F2F2F2" stroke-opacity="0.18" stroke-miterlimit="10"/>
<path d="M1193.71 633.188C1149.51 677.471 1077.84 677.471 1033.69 633.188C989.489 588.904 989.489 517.096 1033.69 472.813C1077.89 428.529 1149.56 428.529 1193.75 472.813C1237.95 517.096 1237.95 588.904 1193.75 633.188H1193.71Z" stroke="#F2F2F2" stroke-opacity="0.18" stroke-miterlimit="10"/>
<path d="M1271.45 716.777C1227.79 761.607 1157 761.607 1113.34 716.777C1069.68 671.947 1069.68 599.252 1113.34 554.422C1157 509.592 1227.79 509.592 1271.45 554.422C1315.11 599.252 1315.11 671.947 1271.45 716.777Z" stroke="#F2F2F2" stroke-opacity="0.18" stroke-miterlimit="10"/>
<path d="M1351.5 797.568C1307.83 842.944 1237.07 842.944 1193.4 797.568C1149.73 752.191 1149.73 678.658 1193.4 633.233C1237.07 587.856 1307.83 587.856 1351.5 633.233C1395.17 678.61 1395.17 752.191 1351.5 797.568Z" stroke="#F2F2F2" stroke-opacity="0.18" stroke-miterlimit="10"/>
<path d="M1433.92 876.377C1389.72 921.207 1318.05 921.207 1273.85 876.377C1229.66 831.547 1229.66 758.852 1273.85 714.022C1318.05 669.192 1389.72 669.192 1433.92 714.022C1478.12 758.852 1478.12 831.547 1433.92 876.377Z" stroke="#F2F2F2" stroke-opacity="0.18" stroke-miterlimit="10"/>
<path d="M853.797 -151.153C898.543 -106.959 898.543 -35.3407 853.797 8.85402C809.05 53.0487 736.491 53.0487 691.792 8.85402C647.045 -35.3407 647.045 -107.005 691.792 -151.2" stroke="#F2F2F2" stroke-opacity="0.18" stroke-miterlimit="10"/>
<path d="M931.907 89.1675C888.248 134.544 817.451 134.544 773.792 89.1675C730.133 43.7908 730.133 -29.7906 773.792 -75.1674C817.451 -120.544 888.248 -120.544 931.907 -75.1674C975.566 -29.7906 975.566 43.7428 931.907 89.1675Z" stroke="#F2F2F2" stroke-opacity="0.18" stroke-miterlimit="10"/>
<path d="M1171.67 333.177C1127.47 378.007 1055.8 378.007 1011.6 333.177C967.404 288.347 967.404 215.7 1011.6 170.822C1055.8 125.992 1127.47 125.992 1171.67 170.822C1215.87 215.653 1215.87 288.347 1171.67 333.177Z" stroke="#F2F2F2" stroke-opacity="0.18" stroke-miterlimit="10"/>
<path d="M1011.96 173.168C968.303 218.544 897.507 218.544 853.848 173.168C810.189 127.791 810.189 54.2094 853.848 8.83262C897.507 -36.5441 968.303 -36.5441 1011.96 8.83262C1055.62 54.2094 1055.62 127.791 1011.96 173.12V173.168Z" stroke="#F2F2F2" stroke-opacity="0.18" stroke-miterlimit="10"/>
<path d="M1094.37 249.998C1050.18 293.734 978.506 293.734 934.308 249.998C890.109 206.261 890.109 135.339 934.308 91.6025C978.506 47.8659 1050.13 47.8659 1094.37 91.6025C1138.57 135.339 1138.57 206.261 1094.37 249.951V249.998Z" stroke="#F2F2F2" stroke-opacity="0.18" stroke-miterlimit="10"/>
<path d="M1251.73 412.398C1207.53 456.134 1135.86 456.134 1091.66 412.398C1047.46 368.661 1047.46 297.739 1091.66 254.003C1135.86 210.266 1207.53 210.266 1251.73 254.003C1295.92 297.739 1295.92 368.661 1251.73 412.398Z" stroke="#F2F2F2" stroke-opacity="0.18" stroke-miterlimit="10"/>
<path d="M1329.46 495.167C1285.8 540.544 1214.98 540.544 1171.32 495.167C1127.65 449.791 1127.65 376.257 1171.32 330.832C1214.98 285.456 1285.75 285.456 1329.42 330.832C1373.09 376.209 1373.09 449.791 1329.42 495.167H1329.46Z" stroke="#F2F2F2" stroke-opacity="0.18" stroke-miterlimit="10"/>
<path d="M1411.84 576.77C1367.64 621.61 1295.97 621.61 1251.77 576.77C1207.57 531.931 1207.57 459.269 1251.77 414.429C1295.97 369.59 1367.64 369.59 1411.84 414.429C1456.03 459.269 1456.03 531.978 1411.84 576.818V576.77Z" stroke="#F2F2F2" stroke-opacity="0.18" stroke-miterlimit="10"/>
<path d="M1309.7 193.17C1265.5 238.01 1193.87 238.01 1149.63 193.17C1105.43 148.331 1105.43 75.6213 1149.63 30.8294C1193.83 -14.0099 1265.5 -14.0099 1309.7 30.8294C1353.89 75.6687 1353.89 148.379 1309.7 193.218V193.17Z" stroke="#F2F2F2" stroke-opacity="0.18" stroke-miterlimit="10"/>
<path d="M1149.58 -128.8C1193.78 -84.6053 1193.78 -12.9408 1149.58 31.2539C1105.39 75.4486 1033.72 75.4486 989.518 31.2539C945.32 -12.9408 945.32 -84.6053 989.518 -128.8" stroke="#F2F2F2" stroke-opacity="0.18" stroke-miterlimit="10"/>
<path d="M1229.64 111.567C1185.44 156.944 1113.77 156.944 1069.57 111.567C1025.38 66.1907 1025.38 -7.39071 1069.57 -52.7675C1113.77 -98.1442 1185.44 -98.1442 1229.64 -52.7675C1273.84 -7.39071 1273.84 66.1907 1229.64 111.567Z" stroke="#F2F2F2" stroke-opacity="0.18" stroke-miterlimit="10"/>
<path d="M1390.11 270.008C1346.45 313.197 1275.65 313.197 1232.04 270.008C1188.38 226.818 1188.38 156.828 1232.04 113.592C1275.7 70.4025 1346.5 70.4025 1390.16 113.592C1433.82 156.782 1433.82 226.818 1390.16 270.008H1390.11Z" stroke="#F2F2F2" stroke-opacity="0.18" stroke-miterlimit="10"/>
<path d="M1470.17 353.591C1426.51 397.336 1355.71 397.336 1312.1 353.591C1268.44 309.845 1268.44 238.955 1312.1 195.209C1355.76 151.463 1426.55 151.463 1470.21 195.209C1513.87 238.955 1513.87 309.891 1470.21 353.637L1470.17 353.591Z" stroke="#F2F2F2" stroke-opacity="0.18" stroke-miterlimit="10"/>
</g>
<defs>
<clipPath id="clip0_64_424">
<rect width="1441" height="854" fill="white" transform="translate(-123)"/>
</clipPath>
</defs>
</svg>
