<svg width="143" height="138" viewBox="0 0 143 138" fill="none" xmlns="http://www.w3.org/2000/svg">
<g clip-path="url(#clip0_66_3826)">
<g opacity="0.05">
<mask id="path-1-outside-1_66_3826" maskUnits="userSpaceOnUse" x="12.0627" y="-1.70703" width="140" height="182" fill="black">
<rect fill="white" x="12.0627" y="-1.70703" width="140" height="182"/>
<path d="M150.173 53.9908C150.04 53.7491 149.859 53.5364 149.643 53.3651C149.426 53.1938 149.178 53.0673 148.912 52.993C142.906 51.3131 135.857 52.344 129.571 55.8217C125.794 57.8759 122.534 60.7634 120.04 64.265L119.99 64.0394C118.081 55.429 118.081 52.1759 119.99 43.5655L121.42 37.1112C121.487 36.8067 121.486 36.4909 121.415 36.1872C121.344 35.8835 121.206 35.5996 121.011 35.3564C120.815 35.1132 120.568 34.9169 120.287 34.782C120.006 34.6472 119.698 34.5772 119.386 34.5772H93.4608C93.1489 34.5772 92.8411 34.6472 92.5599 34.782C92.2787 34.9169 92.0313 35.1132 91.8361 35.3564C91.6409 35.5996 91.5028 35.8835 91.4319 36.1872C91.3611 36.4909 91.3593 36.8067 91.4268 37.1112L92.857 43.5655C94.7651 52.1759 94.7651 55.429 92.857 64.0394L91.4268 70.4938C91.4194 70.5276 91.416 70.5616 91.4102 70.5957C91.4037 70.6345 91.3956 70.673 91.3913 70.7121C91.3869 70.7513 91.3861 70.7897 91.384 70.8286C91.3819 70.8674 91.3783 70.9058 91.3783 70.9447C91.3783 70.9836 91.3818 71.0221 91.384 71.0608C91.3862 71.0995 91.3869 71.1384 91.3913 71.1773C91.3956 71.2161 91.4037 71.255 91.4102 71.2937C91.416 71.3276 91.4195 71.3617 91.4268 71.3956L92.857 77.85C94.7653 86.4604 94.7653 89.7132 92.857 98.3236L91.7886 103.145H73.1998L72.1313 98.3236C70.2228 89.7132 70.2228 86.4604 72.1313 77.85L73.5615 71.3956C73.569 71.3618 73.5723 71.3278 73.578 71.2937C73.5847 71.255 73.5926 71.2164 73.5971 71.1773C73.6015 71.1381 73.6022 71.0996 73.6043 71.0608C73.6065 71.0219 73.61 70.9836 73.61 70.9447C73.61 70.9058 73.6065 70.8673 73.6043 70.8286C73.6022 70.7898 73.6014 70.7509 73.5971 70.7121C73.5927 70.6733 73.5847 70.6345 73.578 70.5957C73.5723 70.5617 73.5688 70.5277 73.5615 70.4938L72.1313 64.0394C70.223 55.429 70.223 52.1759 72.1313 43.5655L73.5615 37.1112C73.569 37.0774 73.5723 37.0434 73.578 37.0093C73.5847 36.9705 73.5926 36.932 73.5971 36.8929C73.6015 36.8537 73.6022 36.8152 73.6043 36.7764C73.6065 36.7376 73.61 36.6992 73.61 36.6603C73.61 36.6214 73.6065 36.5829 73.6043 36.5442C73.6022 36.5055 73.6014 36.4666 73.5971 36.4277C73.5927 36.3889 73.5847 36.35 73.578 36.3112C73.5723 36.2773 73.5688 36.2433 73.5615 36.2094L72.1313 29.7551C70.2228 21.1446 70.2228 17.8918 72.1313 9.28133L73.5615 2.82696C73.629 2.52248 73.6272 2.20674 73.5564 1.90302C73.4856 1.59931 73.3474 1.31537 73.1522 1.07217C72.957 0.828958 72.7097 0.632683 72.4285 0.497822C72.1473 0.362961 71.8394 0.292956 71.5275 0.292969H45.6024C45.2906 0.292963 44.9827 0.362972 44.7015 0.497836C44.4203 0.6327 44.173 0.828977 43.9777 1.07218C43.7825 1.31539 43.6444 1.59932 43.5736 1.90303C43.5027 2.20674 43.501 2.52248 43.5685 2.82696L44.9986 9.28133C46.907 17.8918 46.907 21.1446 44.9986 29.7551L44.9188 30.1156C42.3839 26.2987 38.953 23.1605 34.9258 20.975C28.6401 17.4975 21.5903 16.4669 15.5849 18.1466C15.3189 18.221 15.0704 18.3475 14.8537 18.5188C14.6371 18.6901 14.4567 18.9028 14.323 19.1445C14.1893 19.3862 14.105 19.6521 14.0751 19.9266C14.0451 20.2012 14.07 20.4789 14.1484 20.7438C15.9172 26.7239 20.5367 32.1475 26.8224 35.6244C30.9198 37.9397 35.5352 39.1839 40.2412 39.2416C41.4909 39.2393 42.7382 39.1338 43.9705 38.9262L44.9986 43.5654C46.9066 52.1759 46.9066 55.4289 44.9986 64.0394L43.5684 70.4937C43.5609 70.5275 43.5576 70.5615 43.5518 70.5956C43.5452 70.6344 43.5372 70.6729 43.5328 70.7121C43.5284 70.7512 43.5277 70.7896 43.5255 70.8285C43.5233 70.8673 43.5199 70.9057 43.5199 70.9446C43.5199 70.9835 43.5233 71.022 43.5255 71.0607C43.5277 71.0994 43.5285 71.1383 43.5328 71.1772C43.5372 71.216 43.5452 71.2549 43.5518 71.2937C43.5576 71.3275 43.5611 71.3616 43.5684 71.3955L44.9986 77.8499C46.9069 86.4603 46.9069 89.7131 44.9986 98.3236L43.7132 104.124C32.8925 111.76 26.9472 121.871 26.9472 132.696C26.9472 143.994 33.3896 154.475 45.0874 162.21C45.9147 162.747 46.5133 163.571 46.7672 164.524C47.0212 165.477 46.9124 166.49 46.462 167.367L42.6449 174.709C42.4798 175.027 42.3994 175.381 42.4112 175.739C42.4231 176.097 42.5269 176.445 42.7126 176.751C42.8984 177.057 43.1598 177.31 43.4717 177.486C43.7836 177.661 44.1355 177.753 44.4933 177.753H120.835C121.193 177.753 121.545 177.661 121.857 177.486C122.169 177.31 122.43 177.057 122.616 176.751C122.802 176.445 122.906 176.097 122.917 175.739C122.929 175.381 122.849 175.027 122.684 174.709L118.867 167.367C118.416 166.49 118.308 165.477 118.562 164.524C118.815 163.571 119.414 162.747 120.241 162.21C131.939 154.475 138.381 143.993 138.381 132.696C138.381 121.738 132.288 111.513 121.213 103.845L119.99 98.3232C118.081 89.7127 118.081 86.4599 119.99 77.8495L120.88 73.8319C121.997 74.0008 123.126 74.0864 124.256 74.0881C128.962 74.03 133.577 72.7858 137.674 70.4708C143.96 66.9937 148.58 61.5699 150.348 55.59C150.427 55.3251 150.452 55.0474 150.422 54.7728C150.392 54.4983 150.307 54.2325 150.173 53.9908ZM96.9252 42.6639L96.0565 38.7436H116.791L115.922 42.6639C113.892 51.8246 113.892 55.7802 115.922 64.941L116.791 68.8613H96.0563L96.925 64.941C98.9549 55.7802 98.9551 51.8246 96.9252 42.6639ZM96.9252 76.9481L96.0565 73.0277H116.791L115.922 76.9481C113.892 86.1085 113.892 90.0643 115.922 99.2247L116.791 103.145H96.0563L96.925 99.2247C98.9549 90.0643 98.9551 86.1085 96.9252 76.9481ZM49.0669 76.9481L48.1982 73.0277H68.9323L68.0635 76.9481C66.0334 86.1085 66.0334 90.0643 68.0635 99.2247L68.9323 103.145H48.1979L49.0666 99.2247C51.0966 90.0643 51.0968 86.1085 49.0669 76.9481ZM49.0669 42.6639L48.1982 38.7436H68.9323L68.0635 42.6639C66.0334 51.8246 66.0334 55.7802 68.0635 64.941L68.9323 68.8613H48.1979L49.0666 64.941C51.0966 55.7802 51.0968 51.8246 49.0669 42.6639ZM49.0669 8.38006L48.1982 4.45968H68.9323L68.0635 8.38006C66.0334 17.5405 66.0334 21.4963 68.0635 30.6567L68.9323 34.5771H48.1979L49.0666 30.6567C51.0966 21.4963 51.0968 17.5405 49.0669 8.38006ZM28.8395 31.9784C24.2831 29.4582 20.775 25.7899 18.9371 21.6968C23.3801 21.0765 28.3525 22.1005 32.9092 24.621C37.4656 27.141 40.9737 30.8097 42.8116 34.903C38.3673 35.5217 33.3956 34.4988 28.8395 31.9784ZM134.215 132.696C134.215 142.549 128.436 151.796 117.943 158.735C116.256 159.838 115.038 161.528 114.525 163.478C114.013 165.428 114.243 167.499 115.17 169.289L117.404 173.587H47.9246L50.1589 169.289C51.0863 167.499 51.3161 165.428 50.8037 163.478C50.2913 161.528 49.0732 159.838 47.3855 158.735C36.8926 151.796 31.1138 142.549 31.1138 132.696C31.1138 123.168 36.544 114.173 46.4221 107.312H118.907C128.785 114.173 134.215 123.167 134.215 132.696ZM135.657 66.8252C131.101 69.3454 126.129 70.3694 121.685 69.7494C123.523 65.6561 127.031 61.9878 131.588 59.4673C136.144 56.9468 141.115 55.9233 145.56 56.5431C143.722 60.6362 140.214 64.3045 135.657 66.8252Z"/>
</mask>
<path d="M150.173 53.9908C150.04 53.7491 149.859 53.5364 149.643 53.3651C149.426 53.1938 149.178 53.0673 148.912 52.993C142.906 51.3131 135.857 52.344 129.571 55.8217C125.794 57.8759 122.534 60.7634 120.04 64.265L119.99 64.0394C118.081 55.429 118.081 52.1759 119.99 43.5655L121.42 37.1112C121.487 36.8067 121.486 36.4909 121.415 36.1872C121.344 35.8835 121.206 35.5996 121.011 35.3564C120.815 35.1132 120.568 34.9169 120.287 34.782C120.006 34.6472 119.698 34.5772 119.386 34.5772H93.4608C93.1489 34.5772 92.8411 34.6472 92.5599 34.782C92.2787 34.9169 92.0313 35.1132 91.8361 35.3564C91.6409 35.5996 91.5028 35.8835 91.4319 36.1872C91.3611 36.4909 91.3593 36.8067 91.4268 37.1112L92.857 43.5655C94.7651 52.1759 94.7651 55.429 92.857 64.0394L91.4268 70.4938C91.4194 70.5276 91.416 70.5616 91.4102 70.5957C91.4037 70.6345 91.3956 70.673 91.3913 70.7121C91.3869 70.7513 91.3861 70.7897 91.384 70.8286C91.3819 70.8674 91.3783 70.9058 91.3783 70.9447C91.3783 70.9836 91.3818 71.0221 91.384 71.0608C91.3862 71.0995 91.3869 71.1384 91.3913 71.1773C91.3956 71.2161 91.4037 71.255 91.4102 71.2937C91.416 71.3276 91.4195 71.3617 91.4268 71.3956L92.857 77.85C94.7653 86.4604 94.7653 89.7132 92.857 98.3236L91.7886 103.145H73.1998L72.1313 98.3236C70.2228 89.7132 70.2228 86.4604 72.1313 77.85L73.5615 71.3956C73.569 71.3618 73.5723 71.3278 73.578 71.2937C73.5847 71.255 73.5926 71.2164 73.5971 71.1773C73.6015 71.1381 73.6022 71.0996 73.6043 71.0608C73.6065 71.0219 73.61 70.9836 73.61 70.9447C73.61 70.9058 73.6065 70.8673 73.6043 70.8286C73.6022 70.7898 73.6014 70.7509 73.5971 70.7121C73.5927 70.6733 73.5847 70.6345 73.578 70.5957C73.5723 70.5617 73.5688 70.5277 73.5615 70.4938L72.1313 64.0394C70.223 55.429 70.223 52.1759 72.1313 43.5655L73.5615 37.1112C73.569 37.0774 73.5723 37.0434 73.578 37.0093C73.5847 36.9705 73.5926 36.932 73.5971 36.8929C73.6015 36.8537 73.6022 36.8152 73.6043 36.7764C73.6065 36.7376 73.61 36.6992 73.61 36.6603C73.61 36.6214 73.6065 36.5829 73.6043 36.5442C73.6022 36.5055 73.6014 36.4666 73.5971 36.4277C73.5927 36.3889 73.5847 36.35 73.578 36.3112C73.5723 36.2773 73.5688 36.2433 73.5615 36.2094L72.1313 29.7551C70.2228 21.1446 70.2228 17.8918 72.1313 9.28133L73.5615 2.82696C73.629 2.52248 73.6272 2.20674 73.5564 1.90302C73.4856 1.59931 73.3474 1.31537 73.1522 1.07217C72.957 0.828958 72.7097 0.632683 72.4285 0.497822C72.1473 0.362961 71.8394 0.292956 71.5275 0.292969H45.6024C45.2906 0.292963 44.9827 0.362972 44.7015 0.497836C44.4203 0.6327 44.173 0.828977 43.9777 1.07218C43.7825 1.31539 43.6444 1.59932 43.5736 1.90303C43.5027 2.20674 43.501 2.52248 43.5685 2.82696L44.9986 9.28133C46.907 17.8918 46.907 21.1446 44.9986 29.7551L44.9188 30.1156C42.3839 26.2987 38.953 23.1605 34.9258 20.975C28.6401 17.4975 21.5903 16.4669 15.5849 18.1466C15.3189 18.221 15.0704 18.3475 14.8537 18.5188C14.6371 18.6901 14.4567 18.9028 14.323 19.1445C14.1893 19.3862 14.105 19.6521 14.0751 19.9266C14.0451 20.2012 14.07 20.4789 14.1484 20.7438C15.9172 26.7239 20.5367 32.1475 26.8224 35.6244C30.9198 37.9397 35.5352 39.1839 40.2412 39.2416C41.4909 39.2393 42.7382 39.1338 43.9705 38.9262L44.9986 43.5654C46.9066 52.1759 46.9066 55.4289 44.9986 64.0394L43.5684 70.4937C43.5609 70.5275 43.5576 70.5615 43.5518 70.5956C43.5452 70.6344 43.5372 70.6729 43.5328 70.7121C43.5284 70.7512 43.5277 70.7896 43.5255 70.8285C43.5233 70.8673 43.5199 70.9057 43.5199 70.9446C43.5199 70.9835 43.5233 71.022 43.5255 71.0607C43.5277 71.0994 43.5285 71.1383 43.5328 71.1772C43.5372 71.216 43.5452 71.2549 43.5518 71.2937C43.5576 71.3275 43.5611 71.3616 43.5684 71.3955L44.9986 77.8499C46.9069 86.4603 46.9069 89.7131 44.9986 98.3236L43.7132 104.124C32.8925 111.76 26.9472 121.871 26.9472 132.696C26.9472 143.994 33.3896 154.475 45.0874 162.21C45.9147 162.747 46.5133 163.571 46.7672 164.524C47.0212 165.477 46.9124 166.49 46.462 167.367L42.6449 174.709C42.4798 175.027 42.3994 175.381 42.4112 175.739C42.4231 176.097 42.5269 176.445 42.7126 176.751C42.8984 177.057 43.1598 177.31 43.4717 177.486C43.7836 177.661 44.1355 177.753 44.4933 177.753H120.835C121.193 177.753 121.545 177.661 121.857 177.486C122.169 177.31 122.43 177.057 122.616 176.751C122.802 176.445 122.906 176.097 122.917 175.739C122.929 175.381 122.849 175.027 122.684 174.709L118.867 167.367C118.416 166.49 118.308 165.477 118.562 164.524C118.815 163.571 119.414 162.747 120.241 162.21C131.939 154.475 138.381 143.993 138.381 132.696C138.381 121.738 132.288 111.513 121.213 103.845L119.99 98.3232C118.081 89.7127 118.081 86.4599 119.99 77.8495L120.88 73.8319C121.997 74.0008 123.126 74.0864 124.256 74.0881C128.962 74.03 133.577 72.7858 137.674 70.4708C143.96 66.9937 148.58 61.5699 150.348 55.59C150.427 55.3251 150.452 55.0474 150.422 54.7728C150.392 54.4983 150.307 54.2325 150.173 53.9908ZM96.9252 42.6639L96.0565 38.7436H116.791L115.922 42.6639C113.892 51.8246 113.892 55.7802 115.922 64.941L116.791 68.8613H96.0563L96.925 64.941C98.9549 55.7802 98.9551 51.8246 96.9252 42.6639ZM96.9252 76.9481L96.0565 73.0277H116.791L115.922 76.9481C113.892 86.1085 113.892 90.0643 115.922 99.2247L116.791 103.145H96.0563L96.925 99.2247C98.9549 90.0643 98.9551 86.1085 96.9252 76.9481ZM49.0669 76.9481L48.1982 73.0277H68.9323L68.0635 76.9481C66.0334 86.1085 66.0334 90.0643 68.0635 99.2247L68.9323 103.145H48.1979L49.0666 99.2247C51.0966 90.0643 51.0968 86.1085 49.0669 76.9481ZM49.0669 42.6639L48.1982 38.7436H68.9323L68.0635 42.6639C66.0334 51.8246 66.0334 55.7802 68.0635 64.941L68.9323 68.8613H48.1979L49.0666 64.941C51.0966 55.7802 51.0968 51.8246 49.0669 42.6639ZM49.0669 8.38006L48.1982 4.45968H68.9323L68.0635 8.38006C66.0334 17.5405 66.0334 21.4963 68.0635 30.6567L68.9323 34.5771H48.1979L49.0666 30.6567C51.0966 21.4963 51.0968 17.5405 49.0669 8.38006ZM28.8395 31.9784C24.2831 29.4582 20.775 25.7899 18.9371 21.6968C23.3801 21.0765 28.3525 22.1005 32.9092 24.621C37.4656 27.141 40.9737 30.8097 42.8116 34.903C38.3673 35.5217 33.3956 34.4988 28.8395 31.9784ZM134.215 132.696C134.215 142.549 128.436 151.796 117.943 158.735C116.256 159.838 115.038 161.528 114.525 163.478C114.013 165.428 114.243 167.499 115.17 169.289L117.404 173.587H47.9246L50.1589 169.289C51.0863 167.499 51.3161 165.428 50.8037 163.478C50.2913 161.528 49.0732 159.838 47.3855 158.735C36.8926 151.796 31.1138 142.549 31.1138 132.696C31.1138 123.168 36.544 114.173 46.4221 107.312H118.907C128.785 114.173 134.215 123.167 134.215 132.696ZM135.657 66.8252C131.101 69.3454 126.129 70.3694 121.685 69.7494C123.523 65.6561 127.031 61.9878 131.588 59.4673C136.144 56.9468 141.115 55.9233 145.56 56.5431C143.722 60.6362 140.214 64.3045 135.657 66.8252Z" fill="#121212"/>
<path d="M150.173 53.9908C150.04 53.7491 149.859 53.5364 149.643 53.3651C149.426 53.1938 149.178 53.0673 148.912 52.993C142.906 51.3131 135.857 52.344 129.571 55.8217C125.794 57.8759 122.534 60.7634 120.04 64.265L119.99 64.0394C118.081 55.429 118.081 52.1759 119.99 43.5655L121.42 37.1112C121.487 36.8067 121.486 36.4909 121.415 36.1872C121.344 35.8835 121.206 35.5996 121.011 35.3564C120.815 35.1132 120.568 34.9169 120.287 34.782C120.006 34.6472 119.698 34.5772 119.386 34.5772H93.4608C93.1489 34.5772 92.8411 34.6472 92.5599 34.782C92.2787 34.9169 92.0313 35.1132 91.8361 35.3564C91.6409 35.5996 91.5028 35.8835 91.4319 36.1872C91.3611 36.4909 91.3593 36.8067 91.4268 37.1112L92.857 43.5655C94.7651 52.1759 94.7651 55.429 92.857 64.0394L91.4268 70.4938C91.4194 70.5276 91.416 70.5616 91.4102 70.5957C91.4037 70.6345 91.3956 70.673 91.3913 70.7121C91.3869 70.7513 91.3861 70.7897 91.384 70.8286C91.3819 70.8674 91.3783 70.9058 91.3783 70.9447C91.3783 70.9836 91.3818 71.0221 91.384 71.0608C91.3862 71.0995 91.3869 71.1384 91.3913 71.1773C91.3956 71.2161 91.4037 71.255 91.4102 71.2937C91.416 71.3276 91.4195 71.3617 91.4268 71.3956L92.857 77.85C94.7653 86.4604 94.7653 89.7132 92.857 98.3236L91.7886 103.145H73.1998L72.1313 98.3236C70.2228 89.7132 70.2228 86.4604 72.1313 77.85L73.5615 71.3956C73.569 71.3618 73.5723 71.3278 73.578 71.2937C73.5847 71.255 73.5926 71.2164 73.5971 71.1773C73.6015 71.1381 73.6022 71.0996 73.6043 71.0608C73.6065 71.0219 73.61 70.9836 73.61 70.9447C73.61 70.9058 73.6065 70.8673 73.6043 70.8286C73.6022 70.7898 73.6014 70.7509 73.5971 70.7121C73.5927 70.6733 73.5847 70.6345 73.578 70.5957C73.5723 70.5617 73.5688 70.5277 73.5615 70.4938L72.1313 64.0394C70.223 55.429 70.223 52.1759 72.1313 43.5655L73.5615 37.1112C73.569 37.0774 73.5723 37.0434 73.578 37.0093C73.5847 36.9705 73.5926 36.932 73.5971 36.8929C73.6015 36.8537 73.6022 36.8152 73.6043 36.7764C73.6065 36.7376 73.61 36.6992 73.61 36.6603C73.61 36.6214 73.6065 36.5829 73.6043 36.5442C73.6022 36.5055 73.6014 36.4666 73.5971 36.4277C73.5927 36.3889 73.5847 36.35 73.578 36.3112C73.5723 36.2773 73.5688 36.2433 73.5615 36.2094L72.1313 29.7551C70.2228 21.1446 70.2228 17.8918 72.1313 9.28133L73.5615 2.82696C73.629 2.52248 73.6272 2.20674 73.5564 1.90302C73.4856 1.59931 73.3474 1.31537 73.1522 1.07217C72.957 0.828958 72.7097 0.632683 72.4285 0.497822C72.1473 0.362961 71.8394 0.292956 71.5275 0.292969H45.6024C45.2906 0.292963 44.9827 0.362972 44.7015 0.497836C44.4203 0.6327 44.173 0.828977 43.9777 1.07218C43.7825 1.31539 43.6444 1.59932 43.5736 1.90303C43.5027 2.20674 43.501 2.52248 43.5685 2.82696L44.9986 9.28133C46.907 17.8918 46.907 21.1446 44.9986 29.7551L44.9188 30.1156C42.3839 26.2987 38.953 23.1605 34.9258 20.975C28.6401 17.4975 21.5903 16.4669 15.5849 18.1466C15.3189 18.221 15.0704 18.3475 14.8537 18.5188C14.6371 18.6901 14.4567 18.9028 14.323 19.1445C14.1893 19.3862 14.105 19.6521 14.0751 19.9266C14.0451 20.2012 14.07 20.4789 14.1484 20.7438C15.9172 26.7239 20.5367 32.1475 26.8224 35.6244C30.9198 37.9397 35.5352 39.1839 40.2412 39.2416C41.4909 39.2393 42.7382 39.1338 43.9705 38.9262L44.9986 43.5654C46.9066 52.1759 46.9066 55.4289 44.9986 64.0394L43.5684 70.4937C43.5609 70.5275 43.5576 70.5615 43.5518 70.5956C43.5452 70.6344 43.5372 70.6729 43.5328 70.7121C43.5284 70.7512 43.5277 70.7896 43.5255 70.8285C43.5233 70.8673 43.5199 70.9057 43.5199 70.9446C43.5199 70.9835 43.5233 71.022 43.5255 71.0607C43.5277 71.0994 43.5285 71.1383 43.5328 71.1772C43.5372 71.216 43.5452 71.2549 43.5518 71.2937C43.5576 71.3275 43.5611 71.3616 43.5684 71.3955L44.9986 77.8499C46.9069 86.4603 46.9069 89.7131 44.9986 98.3236L43.7132 104.124C32.8925 111.76 26.9472 121.871 26.9472 132.696C26.9472 143.994 33.3896 154.475 45.0874 162.21C45.9147 162.747 46.5133 163.571 46.7672 164.524C47.0212 165.477 46.9124 166.49 46.462 167.367L42.6449 174.709C42.4798 175.027 42.3994 175.381 42.4112 175.739C42.4231 176.097 42.5269 176.445 42.7126 176.751C42.8984 177.057 43.1598 177.31 43.4717 177.486C43.7836 177.661 44.1355 177.753 44.4933 177.753H120.835C121.193 177.753 121.545 177.661 121.857 177.486C122.169 177.31 122.43 177.057 122.616 176.751C122.802 176.445 122.906 176.097 122.917 175.739C122.929 175.381 122.849 175.027 122.684 174.709L118.867 167.367C118.416 166.49 118.308 165.477 118.562 164.524C118.815 163.571 119.414 162.747 120.241 162.21C131.939 154.475 138.381 143.993 138.381 132.696C138.381 121.738 132.288 111.513 121.213 103.845L119.99 98.3232C118.081 89.7127 118.081 86.4599 119.99 77.8495L120.88 73.8319C121.997 74.0008 123.126 74.0864 124.256 74.0881C128.962 74.03 133.577 72.7858 137.674 70.4708C143.96 66.9937 148.58 61.5699 150.348 55.59C150.427 55.3251 150.452 55.0474 150.422 54.7728C150.392 54.4983 150.307 54.2325 150.173 53.9908ZM96.9252 42.6639L96.0565 38.7436H116.791L115.922 42.6639C113.892 51.8246 113.892 55.7802 115.922 64.941L116.791 68.8613H96.0563L96.925 64.941C98.9549 55.7802 98.9551 51.8246 96.9252 42.6639ZM96.9252 76.9481L96.0565 73.0277H116.791L115.922 76.9481C113.892 86.1085 113.892 90.0643 115.922 99.2247L116.791 103.145H96.0563L96.925 99.2247C98.9549 90.0643 98.9551 86.1085 96.9252 76.9481ZM49.0669 76.9481L48.1982 73.0277H68.9323L68.0635 76.9481C66.0334 86.1085 66.0334 90.0643 68.0635 99.2247L68.9323 103.145H48.1979L49.0666 99.2247C51.0966 90.0643 51.0968 86.1085 49.0669 76.9481ZM49.0669 42.6639L48.1982 38.7436H68.9323L68.0635 42.6639C66.0334 51.8246 66.0334 55.7802 68.0635 64.941L68.9323 68.8613H48.1979L49.0666 64.941C51.0966 55.7802 51.0968 51.8246 49.0669 42.6639ZM49.0669 8.38006L48.1982 4.45968H68.9323L68.0635 8.38006C66.0334 17.5405 66.0334 21.4963 68.0635 30.6567L68.9323 34.5771H48.1979L49.0666 30.6567C51.0966 21.4963 51.0968 17.5405 49.0669 8.38006ZM28.8395 31.9784C24.2831 29.4582 20.775 25.7899 18.9371 21.6968C23.3801 21.0765 28.3525 22.1005 32.9092 24.621C37.4656 27.141 40.9737 30.8097 42.8116 34.903C38.3673 35.5217 33.3956 34.4988 28.8395 31.9784ZM134.215 132.696C134.215 142.549 128.436 151.796 117.943 158.735C116.256 159.838 115.038 161.528 114.525 163.478C114.013 165.428 114.243 167.499 115.17 169.289L117.404 173.587H47.9246L50.1589 169.289C51.0863 167.499 51.3161 165.428 50.8037 163.478C50.2913 161.528 49.0732 159.838 47.3855 158.735C36.8926 151.796 31.1138 142.549 31.1138 132.696C31.1138 123.168 36.544 114.173 46.4221 107.312H118.907C128.785 114.173 134.215 123.167 134.215 132.696ZM135.657 66.8252C131.101 69.3454 126.129 70.3694 121.685 69.7494C123.523 65.6561 127.031 61.9878 131.588 59.4673C136.144 56.9468 141.115 55.9233 145.56 56.5431C143.722 60.6362 140.214 64.3045 135.657 66.8252Z" stroke="#F8F8F8" stroke-width="3.14" mask="url(#path-1-outside-1_66_3826)"/>
</g>
</g>
<defs>
<clipPath id="clip0_66_3826">
<rect width="155.92" height="137.02" fill="white" transform="translate(0.744873 0.292969)"/>
</clipPath>
</defs>
</svg>
