<svg width="134" height="149" viewBox="0 0 134 149" fill="none" xmlns="http://www.w3.org/2000/svg">
<g opacity="0.05" clip-path="url(#clip0_66_3818)">
<path d="M135.81 40.9958L135.81 40.9952C135.484 40.338 134.939 39.8149 134.269 39.516C133.599 39.217 132.846 39.1608 132.139 39.357L132.128 39.3602L132.117 39.3637C123.58 42.016 115.445 45.8161 107.935 50.658C107.639 42.5211 106.234 35.2332 103.689 29.4217C103.497 28.9827 103.207 28.5933 102.842 28.2832C102.476 27.973 102.045 27.7503 101.581 27.6318C101.116 27.5134 100.631 27.5024 100.162 27.5996C99.6926 27.6969 99.2517 27.8999 98.8727 28.1932C93.4359 32.3997 88.3437 38.7714 83.9419 46.5899C81.4689 39.4454 78.318 33.2674 74.5747 28.4696L74.5747 28.4696C74.2799 28.0918 73.9029 27.7862 73.4723 27.576C73.0416 27.3658 72.5688 27.2565 72.0896 27.2565C71.6104 27.2565 71.1375 27.3658 70.7069 27.576C70.2763 27.7862 69.8993 28.0918 69.6045 28.4696L69.6045 28.4696C65.8615 33.2673 62.7094 39.4436 60.2354 46.5869C55.834 38.7698 50.7424 32.3993 45.3062 28.1932C44.9272 27.8999 44.4863 27.6969 44.0171 27.5996C43.5478 27.5024 43.0626 27.5134 42.5982 27.6318C42.1338 27.7503 41.7026 27.973 41.3373 28.2832C40.9719 28.5933 40.6821 28.9827 40.4899 29.4217C37.9938 35.1214 36.5968 42.242 36.2648 50.1887C28.9611 45.5664 21.0781 41.9262 12.8189 39.3637L12.8081 39.3603L12.7973 39.3573C12.0902 39.1601 11.3364 39.2158 10.6661 39.5149C9.99568 39.8139 9.45071 40.3376 9.12516 40.9956C8.79962 41.6535 8.71393 42.4044 8.88286 43.1188C9.05178 43.8331 9.4647 44.4661 10.0504 44.9085C16.6971 49.9304 22.2084 60.2613 26.4764 71.2364C30.6698 82.0196 33.602 93.2578 35.2286 100.264L34.902 100.881L34.8996 100.886C27.8141 114.513 23.9795 129.595 23.696 144.951C23.4125 160.306 26.6879 175.52 33.2655 189.398L33.2912 189.452L33.3248 189.502L33.9749 189.062C33.3248 189.502 33.3248 189.502 33.3249 189.502L33.325 189.502L33.3254 189.503L33.3267 189.505L33.3311 189.511L33.3468 189.534C33.3604 189.554 33.3801 189.583 33.4054 189.619C33.456 189.691 33.5289 189.795 33.6203 189.921C33.8025 190.173 34.0596 190.518 34.3584 190.889C34.9328 191.604 35.7409 192.518 36.4993 192.992C37.8905 193.861 39.4977 194.323 41.1381 194.323H41.1384H103.01H103.01C104.65 194.323 106.258 193.861 107.649 192.992C109.04 192.123 110.159 190.881 110.878 189.406L110.882 189.398C117.446 175.548 120.722 160.369 120.453 145.045C120.186 129.816 116.427 114.854 109.465 101.31C110.994 94.5878 113.897 83.1611 118.129 72.0826C120.275 66.4661 122.756 60.9553 125.564 56.1989C128.377 51.4348 131.491 47.4728 134.885 44.9085L134.412 44.2822L134.885 44.9085C135.471 44.466 135.884 43.833 136.052 43.1187C136.221 42.4044 136.135 41.6536 135.81 40.9958ZM103.013 188.019H103.01H41.1386L41.1354 188.019C40.6803 188.021 40.2337 187.895 39.8467 187.655C39.4609 187.417 39.1497 187.075 38.9481 186.668C37.7931 184.256 36.7482 181.792 35.8166 179.285H108.332C107.4 181.792 106.355 184.256 105.2 186.668C104.999 187.075 104.687 187.416 104.302 187.655C103.914 187.895 103.468 188.021 103.013 188.019ZM110.42 172.981H33.7279C31.2467 164.463 29.9857 155.636 29.9833 146.762L29.9833 146.761C29.9512 132.447 33.249 118.323 39.6132 105.507H104.534C110.899 118.323 114.197 132.447 114.165 146.761V146.762C114.162 155.636 112.901 164.463 110.42 172.981ZM29.1983 146.763C29.1656 132.164 32.567 117.763 39.128 104.722L29.1983 146.763ZM86.5216 55.3731C90.3031 47.4371 94.7465 40.7698 99.4178 36.1114C100.987 41.4237 101.736 47.906 101.65 55.0502C96.9367 58.6091 92.6287 62.6733 88.803 67.1693C88.2342 63.2029 87.4729 59.2661 86.5216 55.3731ZM83.9572 88.0597C83.9572 91.8316 83.7996 95.5545 83.5111 99.2026H60.6685C60.38 95.5545 60.2224 91.8316 60.2224 88.0597C60.2224 67.2275 64.7364 47.8226 72.0898 35.9351C79.4432 47.8224 83.9572 67.2275 83.9572 88.0597ZM44.7615 36.1114C49.4326 40.7696 53.8756 47.4363 57.6569 55.3715C56.7644 59.018 56.0396 62.7032 55.4848 66.4155C51.6084 61.9805 47.2631 57.9766 42.524 54.4741C42.4844 47.5569 43.2348 41.2801 44.7615 36.1114ZM22.9967 50.1482C32.3869 54.6366 45.3299 62.5981 54.4576 75.2424C54.1033 79.4121 53.9184 83.6966 53.9184 88.0597C53.9184 91.8459 54.0693 95.5635 54.3408 99.2026H41.4747C40.1304 93.3129 37.8533 84.3641 34.6106 75.0398C31.599 66.38 27.74 57.353 22.9967 50.1482ZM110.322 75.0477C107.081 84.3692 104.805 93.3145 103.461 99.2026H90.2613V75.5392C99.3814 62.7473 112.459 54.6942 121.93 50.1621C117.189 57.3669 113.332 66.3911 110.322 75.0477Z" fill="#121212" stroke="#F8F8F8" stroke-width="1.57"/>
</g>
<defs>
<clipPath id="clip0_66_3818">
<rect width="138.595" height="155.132" fill="white" transform="translate(0.0202637 0.543457)"/>
</clipPath>
</defs>
</svg>
