<svg width="395" height="247" viewBox="0 0 395 247" fill="none" xmlns="http://www.w3.org/2000/svg">
<g opacity="0.2" clip-path="url(#clip0_65_3781)">
<path d="M362.775 111.263C361.713 109.852 360.29 108.754 358.657 108.083C357.024 107.412 355.24 107.194 353.493 107.45C320.319 112.308 289.369 126.722 262.007 149.78C261.317 147.374 260.478 145.013 259.495 142.711C257.801 138.52 256.049 134.187 256.879 131.099C257.519 128.716 260.845 126.083 264.061 123.538C268.05 120.381 272.57 116.803 274.614 111.805C276.439 107.342 275.757 102.226 275.097 97.2788C274.704 94.8511 274.493 92.3977 274.463 89.9388C274.492 88.5701 274.145 87.2197 273.459 86.0348C272.774 84.85 271.776 83.8763 270.574 83.2201C269.364 82.5497 267.993 82.2245 266.61 82.2799C265.228 82.3354 263.887 82.7693 262.734 83.5345C238.309 99.7239 220.376 123.922 209.99 154.388C199.603 123.928 181.687 99.7216 157.266 83.5345C156.113 82.769 154.772 82.3348 153.389 82.2795C152.006 82.2241 150.635 82.5497 149.425 83.2206C148.223 83.8769 147.226 84.8506 146.54 86.0353C145.854 87.22 145.507 88.5703 145.536 89.9388C145.506 92.3977 145.294 94.851 144.903 97.2788C144.243 102.226 143.56 107.341 145.385 111.804C147.428 116.803 151.95 120.381 155.939 123.538C159.155 126.083 162.481 128.715 163.121 131.099C163.951 134.186 162.199 138.52 160.505 142.711C159.522 145.013 158.683 147.374 157.993 149.78C130.63 126.721 99.6806 112.308 66.5061 107.449C64.7598 107.194 62.9771 107.414 61.3445 108.084C59.712 108.754 58.2897 109.851 57.2264 111.26C56.1632 112.668 55.4981 114.337 55.3008 116.091C55.1034 117.844 55.3811 119.619 56.1048 121.228C57.2742 123.978 58.3045 126.784 59.1917 129.637C61.3059 136.034 63.4917 142.648 68.1517 146.826C73.4198 151.549 80.7117 153.162 87.7626 154.722C93.9105 156.082 99.7172 157.366 102.363 160.417C105.68 164.243 106.142 171.06 106.589 177.654C107.036 184.256 107.499 191.083 110.841 196.179C114.824 202.249 121.813 205.942 127.979 209.201C133.438 212.086 138.594 214.811 140.213 218.246C142.682 223.486 141.103 230.573 139.576 237.426C138.77 240.695 138.182 244.014 137.816 247.361H128.176C126.983 247.361 125.838 247.835 124.994 248.679C124.15 249.522 123.676 250.667 123.676 251.861V270.325C123.665 306.009 129.483 341.455 140.902 375.262L146.968 393.239H139.216C138.022 393.239 136.878 393.713 136.034 394.557C135.19 395.401 134.716 396.545 134.716 397.739V425.503C134.716 426.696 135.19 427.841 136.034 428.685C136.878 429.529 138.022 430.003 139.216 430.003H280.784C281.978 430.003 283.122 429.529 283.966 428.685C284.81 427.841 285.284 426.696 285.284 425.503V397.739C285.284 396.546 284.81 395.401 283.966 394.557C283.122 393.713 281.978 393.239 280.784 393.239H273.033L279.099 375.263C290.517 341.455 296.336 306.009 296.324 270.326V251.861C296.324 250.667 295.85 249.523 295.006 248.679C294.162 247.835 293.018 247.361 291.824 247.361H282.184C281.819 244.014 281.231 240.695 280.424 237.427C278.898 230.573 277.319 223.487 279.787 218.247C281.407 214.811 286.563 212.086 292.022 209.201C298.188 205.942 305.176 202.249 309.16 196.179C312.502 191.083 312.965 184.256 313.411 177.654C313.859 171.061 314.32 164.243 317.637 160.417C320.283 157.366 326.089 156.082 332.238 154.722C339.289 153.162 346.58 151.549 351.848 146.826C356.508 142.649 358.694 136.033 360.808 129.636C361.695 126.784 362.726 123.978 363.895 121.229C364.619 119.62 364.898 117.846 364.701 116.092C364.504 114.339 363.839 112.671 362.775 111.263ZM265.527 92.5156C265.649 94.52 265.916 96.5176 266.176 98.4692C266.68 102.247 267.201 106.155 266.284 108.398C265.134 111.211 261.749 113.891 258.476 116.481C254.112 119.934 249.601 123.506 248.187 128.763C246.574 134.763 249.006 140.778 251.15 146.084C252.553 149.554 254.003 153.141 253.702 155.46C253.588 156.24 253.378 157.003 253.079 157.733C241.407 168.777 230.818 180.911 221.454 193.97C217.262 199.775 213.458 205.507 210.004 211.059C209.659 210.504 209.293 209.94 208.941 209.381C209.371 200.618 210.351 191.892 211.876 183.252C219.098 142.737 237.141 112.226 265.527 92.5156ZM166.297 155.46C165.997 153.142 167.447 149.554 168.849 146.085C170.994 140.778 173.426 134.764 171.813 128.763C170.4 123.506 165.888 119.934 161.524 116.481C158.25 113.891 154.866 111.211 153.715 108.398C152.798 106.155 153.319 102.248 153.824 98.4692C154.084 96.5176 154.351 94.52 154.473 92.5146C179.766 110.079 196.843 136.231 205.373 170.392C204.489 174.078 203.703 177.838 203.015 181.673C202.055 187.058 201.352 192.26 200.838 197.207C200.083 196.13 199.327 195.053 198.545 193.97C189.182 180.911 178.592 168.777 166.92 157.733C166.621 157.003 166.412 156.24 166.297 155.46ZM148.354 214.41C145.454 208.257 138.708 204.692 132.184 201.244C126.724 198.359 121.078 195.375 118.366 191.242C116.318 188.12 115.954 182.741 115.568 177.046C115.046 169.349 114.456 160.626 109.162 154.521C104.567 149.222 97.0127 147.551 89.7065 145.934C83.7886 144.625 77.6694 143.271 74.1597 140.125C71.2851 137.548 69.562 132.334 67.7378 126.813C66.7562 123.662 65.6124 120.565 64.311 117.533C64.2503 117.395 64.2275 117.243 64.245 117.094C64.2625 116.944 64.3196 116.802 64.4105 116.682C64.5013 116.562 64.6226 116.468 64.7618 116.411C64.901 116.353 65.053 116.334 65.2021 116.355C92.1294 120.298 117.436 130.726 140.42 147.347C158.905 160.714 175.955 178.102 191.096 199.027C202.023 214.225 211.514 230.406 219.445 247.361H146.866C147.226 244.678 147.725 242.015 148.361 239.384C150.13 231.44 152.136 222.436 148.354 214.41ZM276.284 421.003H143.715V402.239H276.284L276.284 421.003ZM287.324 270.325C287.336 305.031 281.677 339.505 270.572 372.385L263.535 393.239H156.465L149.429 372.385C138.323 339.505 132.664 305.031 132.675 270.325V256.361H287.324L287.324 270.325ZM355.69 117.532C354.388 120.565 353.244 123.662 352.263 126.812C350.439 132.333 348.715 137.548 345.84 140.125C342.33 143.271 336.211 144.625 330.293 145.934C322.988 147.551 315.433 149.222 310.838 154.521C305.544 160.626 304.953 169.35 304.432 177.046C304.047 182.741 303.683 188.12 301.634 191.242C298.922 195.375 293.277 198.358 287.817 201.244C281.292 204.692 274.546 208.257 271.647 214.411C267.864 222.436 269.87 231.44 271.64 239.384C272.276 242.015 272.775 244.678 273.134 247.361H229.398C225.939 239.698 221.264 230.222 215.237 219.791C219.249 213.096 223.787 206.098 228.903 199.027C244.046 178.102 261.095 160.713 279.579 147.346C302.563 130.725 327.87 120.298 354.798 116.355C354.947 116.334 355.099 116.353 355.238 116.41C355.377 116.468 355.499 116.561 355.59 116.681C355.68 116.802 355.738 116.944 355.755 117.093C355.773 117.243 355.75 117.395 355.69 117.532Z" fill="white"/>
</g>
<defs>
<clipPath id="clip0_65_3781">
<rect width="395" height="246" fill="white" transform="translate(0 0.137695)"/>
</clipPath>
</defs>
</svg>
