<svg width="431" height="314" viewBox="0 0 431 314" fill="none" xmlns="http://www.w3.org/2000/svg">
<g opacity="0.6" clip-path="url(#clip0_65_3778)">
<path d="M336.28 148.749C336.229 147.769 335.854 146.833 335.214 146.09C334.573 145.347 333.703 144.839 332.742 144.646C324.641 143.079 316.396 142.376 308.147 142.548C308.033 142.563 307.917 142.555 307.806 142.525C307.695 142.494 307.592 142.442 307.501 142.371C307.411 142.3 307.335 142.212 307.279 142.111C307.223 142.011 307.188 141.9 307.175 141.785C307.14 141.682 307.126 141.572 307.134 141.463C307.143 141.354 307.173 141.248 307.224 141.151C307.275 141.055 307.344 140.969 307.429 140.9C307.513 140.831 307.611 140.78 307.716 140.75C314.752 137.634 322.127 135.352 329.691 133.95C330.289 133.844 330.858 133.615 331.363 133.278C331.868 132.942 332.298 132.504 332.627 131.993C332.955 131.482 333.175 130.909 333.272 130.309C333.369 129.709 333.341 129.095 333.19 128.507C330.279 117.142 325.509 106.339 319.073 96.5338C318.993 96.4117 318.907 96.2928 318.815 96.1793L317.437 94.4737C316.922 93.8358 316.239 93.3542 315.466 93.083C314.692 92.8117 313.859 92.7616 313.058 92.9381C301.828 95.5483 290.995 99.6442 280.844 105.118C280.474 105.347 280.03 105.427 279.603 105.342C279.175 105.256 278.796 105.011 278.542 104.657C278.253 104.348 278.094 103.94 278.097 103.517C278.101 103.093 278.268 102.688 278.563 102.385C285.01 94.433 292.511 87.3983 300.856 81.4749C301.354 81.1286 301.775 80.6833 302.093 80.1668C302.412 79.6502 302.62 79.0735 302.706 78.4727C302.791 77.8719 302.752 77.2598 302.591 76.6747C302.43 76.0897 302.15 75.5441 301.769 75.0722L299.955 72.8263C294.761 66.182 288.31 60.6289 280.969 56.485C273.629 52.3411 265.544 49.688 257.178 48.6775C252.851 48.12 248.455 48.5488 244.316 49.9317C240.178 51.3147 236.406 53.616 233.281 56.6639C230.156 59.7117 227.76 63.4272 226.271 67.5326C224.782 71.6381 224.239 76.0274 224.682 80.3726L225.563 90.1616C225.671 91.3653 225.517 92.5782 225.112 93.7167C224.706 94.8551 224.059 95.892 223.215 96.7557C222.371 97.6194 221.349 98.2895 220.221 98.7197C219.093 99.1499 217.885 99.3299 216.681 99.2474L206.887 98.5772C202.538 98.227 198.167 98.8653 194.1 100.444C190.032 102.023 186.374 104.502 183.398 107.696C180.422 110.89 178.205 114.715 176.913 118.887C175.622 123.059 175.288 127.469 175.938 131.788C177.124 140.131 179.941 148.157 184.228 155.409C188.515 162.66 194.189 168.994 200.923 174.047L203.257 175.854C203.79 176.261 204.409 176.54 205.066 176.67C201.682 213.029 200.88 259.825 202.673 316.467H175.616C180.241 271.197 178.276 239.218 173.255 216.628C177.494 207.43 179.461 197.347 178.992 187.228C178.836 182.863 177.697 178.59 175.659 174.727C173.622 170.865 170.739 167.514 167.226 164.924C163.713 162.334 159.661 160.573 155.373 159.771C151.085 158.97 146.671 159.149 142.461 160.295L132.958 162.761C131.79 163.064 130.57 163.11 129.382 162.895C128.194 162.68 127.067 162.21 126.078 161.516C125.089 160.823 124.262 159.923 123.654 158.879C123.047 157.835 122.672 156.672 122.557 155.468L121.62 145.684C121.257 141.332 119.915 137.118 117.696 133.357C115.477 129.597 112.438 126.387 108.806 123.968C105.173 121.548 101.042 119.982 96.7202 119.387C92.3984 118.791 87.9981 119.18 83.8479 120.527C75.8206 123.058 68.3706 127.149 61.9241 132.566C55.4776 137.983 50.1612 144.62 46.2791 152.096L44.8785 154.695C44.5907 155.23 44.416 155.818 44.3652 156.422C44.3145 157.027 44.3889 157.636 44.5837 158.211C44.7785 158.785 45.0895 159.314 45.4974 159.763C45.9053 160.212 46.4013 160.572 46.9543 160.82C56.2468 165.103 64.913 170.633 72.7137 177.259C73.0595 177.503 73.2979 177.871 73.3795 178.286C73.4611 178.701 73.3794 179.132 73.1516 179.489C72.9678 179.885 72.6405 180.196 72.2361 180.359C71.8316 180.522 71.3804 180.524 70.9739 180.366C59.99 176.859 48.5885 174.832 37.0701 174.338C36.2517 174.317 35.4433 174.522 34.7338 174.931C34.0243 175.34 33.441 175.936 33.0481 176.655L32.0084 178.586C31.939 178.715 31.8763 178.847 31.8203 178.981C27.2988 189.805 24.5982 201.304 23.8281 213.012C23.7883 213.618 23.8739 214.226 24.0797 214.798C24.2854 215.37 24.6068 215.893 25.0237 216.334C25.4406 216.776 25.9441 217.127 26.5027 217.364C27.0612 217.602 27.6628 217.722 28.2698 217.716C35.9624 217.702 43.6306 218.584 51.1193 220.346C51.228 220.356 51.3336 220.388 51.4295 220.441C51.5254 220.493 51.6097 220.564 51.6773 220.65C51.7448 220.736 51.7943 220.834 51.8226 220.94C51.8509 221.046 51.8574 221.156 51.8419 221.264C51.851 221.379 51.8369 221.494 51.8006 221.604C51.7643 221.713 51.7064 221.814 51.6304 221.901C51.5544 221.987 51.4619 222.058 51.3582 222.108C51.2545 222.158 51.1419 222.187 51.0269 222.193C42.8878 223.548 34.9143 225.76 27.239 228.792C26.3297 229.159 25.5684 229.819 25.0755 230.667C24.5826 231.516 24.3861 232.505 24.5172 233.478C24.9778 236.895 25.5834 240.195 26.3169 243.285L34.5221 277.823C35.1787 280.582 36.7443 283.039 38.9664 284.798C41.1886 286.557 43.9377 287.516 46.7705 287.519C47.2588 287.519 47.7468 287.49 48.2319 287.434L83.4539 283.341C86.6041 282.975 89.9082 282.416 93.2735 281.68C94.2314 281.471 95.0923 280.948 95.7202 280.194C96.348 279.44 96.707 278.498 96.7404 277.517C96.961 269.259 96.3101 261 94.7986 252.879C94.7647 252.769 94.7532 252.653 94.7648 252.539C94.7764 252.424 94.8108 252.313 94.866 252.212C94.9212 252.111 94.9962 252.022 95.0863 251.95C95.1765 251.879 95.2801 251.826 95.391 251.795C95.4873 251.743 95.593 251.712 95.7019 251.702C95.8107 251.693 95.9203 251.706 96.024 251.74C96.1278 251.774 96.2235 251.829 96.3053 251.901C96.3872 251.974 96.4535 252.062 96.5002 252.161C100.717 258.603 104.168 265.516 106.784 272.759C106.986 273.332 107.304 273.857 107.718 274.301C108.132 274.745 108.634 275.099 109.191 275.34C109.748 275.582 110.349 275.705 110.956 275.703C111.563 275.701 112.163 275.574 112.718 275.329C123.442 270.6 133.311 264.127 141.924 256.171C142.031 256.072 142.134 255.967 142.231 255.858L143.687 254.219C144.232 253.606 144.595 252.853 144.736 252.045C144.877 251.237 144.791 250.405 144.486 249.643C140.083 238.975 134.281 228.942 127.233 219.807C126.946 219.478 126.795 219.053 126.809 218.617C126.824 218.181 127.004 217.767 127.312 217.458C127.568 217.122 127.945 216.897 128.363 216.832C128.78 216.767 129.207 216.866 129.554 217.108C138.441 222.18 146.596 228.442 153.793 235.72C154.215 236.156 154.723 236.499 155.284 236.729C155.844 236.96 156.447 237.072 157.053 237.058C157.659 237.045 158.256 236.907 158.806 236.652C159.356 236.398 159.848 236.032 160.251 235.579L162.169 233.42C163.736 231.701 165.209 229.898 166.581 228.019C170.007 249.058 170.853 277.64 166.782 316.468H111.608C110.946 316.468 110.293 316.617 109.697 316.904C109.1 317.191 108.576 317.609 108.163 318.126C107.75 318.644 107.458 319.248 107.31 319.893C107.161 320.539 107.16 321.21 107.306 321.856L132.645 434.226C133.898 439.9 137.055 444.973 141.588 448.601C146.121 452.23 151.759 454.195 157.563 454.17H218.323C224.127 454.195 229.765 452.23 234.298 448.601C238.832 444.972 241.988 439.899 243.242 434.225L268.581 321.855C268.727 321.209 268.726 320.538 268.577 319.893C268.429 319.247 268.137 318.643 267.724 318.126C267.311 317.608 266.787 317.19 266.19 316.903C265.594 316.616 264.941 316.467 264.279 316.467H211.499C209.3 247.166 211.229 199.918 214.825 167.718C219.404 162.037 224.493 156.788 230.029 152.036C230.325 151.735 230.726 151.56 231.149 151.547C231.571 151.534 231.982 151.685 232.297 151.968C232.656 152.214 232.909 152.588 233.004 153.014C233.099 153.44 233.028 153.886 232.807 154.262C227.559 164.54 223.703 175.472 221.339 186.77C221.18 187.575 221.248 188.409 221.535 189.177C221.822 189.945 222.318 190.618 222.966 191.121L224.699 192.463C224.815 192.552 224.935 192.635 225.058 192.713C234.988 198.944 245.879 203.486 257.29 206.155C257.881 206.293 258.494 206.308 259.091 206.198C259.688 206.088 260.255 205.856 260.759 205.516C261.262 205.176 261.689 204.736 262.015 204.223C262.34 203.71 262.556 203.135 262.65 202.535C263.887 194.933 266.007 187.502 268.967 180.393C268.995 180.287 269.044 180.188 269.111 180.102C269.178 180.016 269.262 179.944 269.357 179.892C269.453 179.839 269.558 179.806 269.667 179.795C269.775 179.784 269.885 179.795 269.989 179.828C270.104 179.838 270.215 179.871 270.317 179.924C270.419 179.978 270.509 180.052 270.582 180.141C270.655 180.23 270.709 180.333 270.742 180.443C270.774 180.554 270.785 180.67 270.771 180.785C270.78 189.045 271.66 197.282 273.397 205.358C273.61 206.316 274.136 207.176 274.892 207.801C275.648 208.427 276.59 208.782 277.57 208.811C278.656 208.843 279.731 208.859 280.796 208.86C283.106 208.86 285.36 208.783 287.528 208.633L322.9 206.158C325.977 205.942 328.868 204.603 331.025 202.396C333.183 200.189 334.457 197.266 334.607 194.181L336.315 158.721C336.468 155.548 336.456 152.193 336.28 148.749ZM156.741 226.242C149.815 219.808 142.182 214.182 133.988 209.473C131.882 208.193 129.39 207.705 126.958 208.095C124.525 208.485 122.31 209.728 120.709 211.602C119.058 213.443 118.103 215.805 118.01 218.277C117.917 220.75 118.692 223.177 120.201 225.136C126.185 232.913 131.227 241.373 135.22 250.339C128.647 256.29 121.293 261.315 113.362 265.275C110.761 259.03 107.596 253.035 103.907 247.366C102.68 245.469 100.834 244.056 98.6833 243.369C96.5327 242.681 94.2106 242.762 92.1126 243.596C90.0147 244.431 88.2706 245.968 87.1777 247.946C86.0847 249.924 85.7105 252.22 86.1187 254.443C87.2921 260.809 87.9136 267.264 87.9762 273.738C86.0837 274.082 84.2304 274.36 82.4364 274.569L47.2152 278.662C46.296 278.769 45.3695 278.535 44.6115 278.003C43.8535 277.472 43.3166 276.68 43.1028 275.779L34.8978 241.241C34.48 239.482 34.1072 237.643 33.7837 235.745C39.8804 233.59 46.152 231.967 52.5282 230.894C54.7541 230.518 56.7809 229.38 58.2632 227.675C59.7456 225.971 60.5917 223.804 60.6576 221.545C60.7235 219.286 60.005 217.074 58.6245 215.285C57.2441 213.497 55.287 212.243 53.0868 211.737C46.5039 210.205 39.795 209.278 33.0437 208.967C34.0477 200.151 36.2486 191.514 39.5855 183.294C49.3663 183.985 59.0308 185.835 68.3764 188.805C70.7314 189.555 73.2744 189.454 75.5633 188.522C77.8522 187.589 79.7422 185.883 80.9049 183.699C82.1167 181.551 82.5263 179.042 82.0605 176.62C81.5947 174.197 80.2837 172.02 78.362 170.476C71.1391 164.378 63.2482 159.121 54.841 154.804C61.6877 142.463 72.997 133.216 86.4436 128.966C89.3424 128.006 92.4214 127.718 95.4476 128.125C98.4739 128.531 101.368 129.622 103.911 131.313C106.454 133.005 108.58 135.254 110.127 137.89C111.674 140.525 112.602 143.479 112.841 146.527L113.777 156.311C114.122 159.872 115.57 163.235 117.919 165.931C117.523 166.212 117.176 166.557 116.894 166.952L65.9072 239.856C65.5696 240.331 65.3293 240.867 65.2 241.436C65.0708 242.004 65.0551 242.592 65.1539 243.166C65.2528 243.74 65.4641 244.289 65.7759 244.781C66.0877 245.274 66.4936 245.699 66.9704 246.033C67.4471 246.367 67.9852 246.604 68.5537 246.729C69.1221 246.854 69.7097 246.865 70.2824 246.762C70.8552 246.658 71.4019 246.442 71.8909 246.126C72.3799 245.81 72.8017 245.401 73.1318 244.921L124.118 172.017C124.392 171.616 124.597 171.172 124.725 170.703C128.059 171.992 131.712 172.203 135.171 171.309L144.674 168.843C147.616 168.026 150.706 167.889 153.708 168.443C156.711 168.997 159.548 170.228 162.006 172.042C164.464 173.856 166.477 176.205 167.894 178.913C169.31 181.621 170.094 184.617 170.184 187.672C170.791 201.776 165.981 215.578 156.741 226.242ZM234.637 432.28C233.817 435.995 231.75 439.316 228.782 441.692C225.814 444.068 222.123 445.355 218.323 445.338H157.563C153.763 445.355 150.072 444.068 147.104 441.692C144.135 439.316 142.069 435.995 141.248 432.28L117.125 325.298H258.762L234.637 432.28ZM327.505 158.295L325.797 193.756C325.752 194.681 325.37 195.557 324.723 196.22C324.075 196.882 323.208 197.283 322.285 197.348L286.914 199.822C285.111 199.948 283.238 200.016 281.316 200.027C280.185 193.653 279.608 187.193 279.591 180.719C279.594 178.449 278.802 176.249 277.353 174.502C275.904 172.755 273.89 171.571 271.66 171.157C271.034 171.035 270.398 170.974 269.761 170.974C267.832 170.972 265.948 171.55 264.351 172.633C262.754 173.715 261.518 175.252 260.803 177.046C258.221 183.299 256.213 189.774 254.806 196.393C246.283 193.963 238.13 190.381 230.574 185.746C232.849 176.196 236.248 166.951 240.699 158.204C241.821 155.999 242.137 153.471 241.59 151.058C241.044 148.645 239.671 146.499 237.709 144.995C235.79 143.447 233.384 142.634 230.921 142.699C228.458 142.765 226.099 143.705 224.265 145.352C217.077 151.492 210.61 158.43 204.987 166.032C193.941 157.256 186.673 144.577 184.677 130.601C184.203 127.581 184.422 124.493 185.316 121.57C186.21 118.646 187.756 115.965 189.838 113.729C191.92 111.492 194.483 109.759 197.332 108.661C200.182 107.562 203.244 107.127 206.286 107.388L216.08 108.058C219.645 108.299 223.196 107.416 226.236 105.535C226.448 105.973 226.731 106.371 227.074 106.715L290.604 168.966C291.44 169.785 292.567 170.238 293.736 170.225C294.906 170.213 296.022 169.735 296.84 168.898C297.658 168.061 298.111 166.933 298.098 165.762C298.086 164.591 297.609 163.473 296.773 162.654L233.243 100.404C232.893 100.068 232.489 99.7926 232.048 99.5898C233.86 96.5067 234.665 92.9331 234.348 89.3695L233.467 79.5806C233.141 76.541 233.51 73.467 234.546 70.5911C235.581 67.7152 237.257 65.1128 239.445 62.9809C241.633 60.8489 244.277 59.2432 247.177 58.2852C250.076 57.3273 253.156 57.0422 256.182 57.4515C270.178 59.1512 282.994 66.1527 291.996 77.0178C284.527 82.8107 277.739 89.4338 271.763 96.76C270.158 98.6317 269.27 101.014 269.258 103.48C269.246 105.947 270.11 108.338 271.696 110.225C273.241 112.156 275.413 113.485 277.834 113.98C280.256 114.474 282.774 114.104 284.951 112.933C293.59 108.289 302.748 104.688 312.235 102.205C317.027 109.669 320.779 117.752 323.389 126.231C316.81 127.782 310.387 129.931 304.199 132.652C302.129 133.554 300.436 135.148 299.408 137.16C298.38 139.173 298.081 141.48 298.562 143.688C299.042 145.897 300.273 147.87 302.043 149.272C303.814 150.674 306.016 151.418 308.273 151.377C314.737 151.255 321.2 151.694 327.589 152.688C327.62 154.613 327.592 156.489 327.505 158.295Z" fill="white"/>
</g>
<defs>
<clipPath id="clip0_65_3778">
<rect width="441" height="313" fill="white" transform="translate(-10 0.137695)"/>
</clipPath>
</defs>
</svg>
