<svg width="199" height="169" viewBox="0 0 199 169" fill="none" xmlns="http://www.w3.org/2000/svg">
<g opacity="0.05" clip-path="url(#clip0_66_3808)">
<path d="M164.861 53.6077C170.312 53.5762 175.657 52.103 180.355 49.3377C183.901 47.3302 186.998 44.6168 189.455 41.365C191.911 38.1133 193.675 34.3924 194.636 30.4322C194.833 29.5582 194.692 28.6419 194.241 27.8677C193.79 27.0935 193.062 26.5189 192.205 26.2596C188.285 25.1437 184.179 24.8434 180.138 25.3774C176.098 25.9114 172.211 27.2682 168.716 29.3641C165.641 31.1507 162.892 33.4448 160.584 36.1493C159.909 32.6584 158.648 29.3071 156.854 26.2373C154.847 22.6907 152.133 19.5934 148.881 17.137C145.63 14.6805 141.909 12.917 137.948 11.9554C137.074 11.7582 136.158 11.8994 135.384 12.3505C134.61 12.8016 134.035 13.5292 133.776 14.3868C132.66 18.3064 132.36 22.4131 132.894 26.4532C133.428 30.4933 134.785 34.381 136.881 37.876C140.345 43.9301 145.791 48.6036 152.301 51.1078C151.15 57.351 149.37 68.3357 147.893 83.2398C146.619 80.9183 145.112 78.7326 143.395 76.7164C136.669 68.8205 127.258 64.0468 117.573 63.6189C116.678 63.5799 115.802 63.8811 115.12 64.462C114.438 65.0429 114.001 65.8605 113.897 66.7503C112.779 76.3799 115.995 86.4306 122.72 94.3261C128.625 101.401 136.971 106 146.106 107.213C145.685 115.447 145.412 124.548 145.397 134.377C144.045 132.405 142.514 130.562 140.824 128.87C133.491 121.536 123.733 117.536 114.04 117.875C113.145 117.907 112.295 118.277 111.661 118.91C111.027 119.544 110.657 120.394 110.625 121.289C110.279 130.977 114.287 140.739 121.621 148.073C128.058 154.642 136.723 158.559 145.906 159.054C146.2 165.925 146.641 173.027 147.229 180.359H57.5137C58.113 173.035 58.5539 165.934 58.8366 159.054C68.02 158.559 76.6848 154.641 83.1223 148.073C90.4563 140.739 94.4641 130.977 94.1177 121.289C94.0857 120.394 93.7156 119.544 93.082 118.91C92.4484 118.277 91.5983 117.907 90.7028 117.875C81.016 117.535 71.2529 121.536 63.9188 128.87C62.2292 130.562 60.6985 132.405 59.346 134.377C59.3309 124.548 59.0575 115.447 58.6366 107.213C67.7717 106 76.1182 101.401 82.0231 94.3263C88.7486 86.4308 91.9642 76.3798 90.8461 66.7505C90.7431 65.8603 90.3066 65.0422 89.6243 64.4611C88.9421 63.88 88.065 63.5792 87.1698 63.6192C77.4856 64.0471 68.0735 68.8207 61.3485 76.7166C59.6316 78.7328 58.1245 80.9186 56.8503 83.2401C55.3732 68.336 53.5935 57.3513 52.4422 51.108C58.9521 48.6038 64.3986 43.9303 67.8624 37.8763C69.9583 34.3812 71.3151 30.4935 71.8491 26.4533C72.3831 22.4131 72.0829 18.3064 70.967 14.3868C70.7078 13.529 70.1333 12.8013 69.3591 12.3501C68.5849 11.8989 67.6685 11.7578 66.7944 11.9552C62.8341 12.9168 59.1132 14.6803 55.8614 17.1367C52.6097 19.5932 49.8963 22.6904 47.8889 26.237C46.0951 29.3068 44.834 32.6582 44.1592 36.149C41.8509 33.4446 39.1014 31.1504 36.0272 29.3639C32.5321 27.2681 28.6444 25.9113 24.6043 25.3773C20.5642 24.8433 16.4575 25.1435 12.538 26.2593C11.6803 26.5187 10.9528 27.0933 10.5017 27.8675C10.0506 28.6417 9.90948 29.558 10.1067 30.432C11.0682 34.3922 12.8317 38.1132 15.288 41.3649C17.7444 44.6167 20.8415 47.3302 24.388 49.3377C29.0851 52.1031 34.4304 53.5763 39.881 53.6077C41.7953 53.6061 43.7044 53.4079 45.5782 53.0163C46.6823 59.1065 48.3337 69.4305 49.7135 83.093C48.2244 81.2642 46.5728 79.5741 44.7789 78.0432C36.883 71.3182 26.835 68.1029 17.2027 69.2203C16.3127 69.3235 15.4947 69.7602 14.9137 70.4423C14.3327 71.1244 14.0316 72.0014 14.0713 72.8965C14.4996 82.5812 19.2737 91.9923 27.1692 98.7178C33.778 104.451 42.2064 107.655 50.9552 107.759C51.1593 107.759 51.3631 107.745 51.5672 107.741C51.9856 115.977 52.254 125.094 52.259 134.948C50.8131 132.76 49.1504 130.724 47.2962 128.87C39.9629 121.536 30.2045 117.536 20.5122 117.875C19.6167 117.907 18.7666 118.277 18.133 118.91C17.4994 119.544 17.1294 120.394 17.0974 121.289C16.7509 130.976 20.7586 140.739 28.0928 148.074C34.38 154.482 42.7896 158.376 51.7438 159.025C51.446 165.902 50.9982 173.014 50.4004 180.359H30.3296C29.4384 180.359 28.5798 180.695 27.9252 181.3C27.2705 181.904 26.8677 182.734 26.7971 183.622L25.0607 205.461C22.9779 231.174 30.8395 256.706 47.0249 276.794L56.9876 289.197C57.3197 289.61 57.7403 289.943 58.2184 290.173C58.6966 290.402 59.22 290.521 59.7503 290.521H144.993C145.523 290.521 146.046 290.402 146.524 290.173C147.003 289.943 147.423 289.61 147.755 289.197L157.718 276.794C173.903 256.706 181.765 231.174 179.682 205.461L177.946 183.623C177.875 182.734 177.472 181.905 176.818 181.3C176.163 180.695 175.305 180.36 174.413 180.36H154.342C153.735 173.042 153.286 165.93 152.997 159.025C161.952 158.377 170.362 154.483 176.65 148.074C183.984 140.74 187.992 130.977 187.645 121.29C187.613 120.394 187.243 119.544 186.61 118.911C185.976 118.277 185.126 117.907 184.231 117.875C174.544 117.535 164.781 121.537 157.446 128.87C155.593 130.723 153.931 132.758 152.485 134.945C152.495 125.232 152.764 116.134 153.197 107.742C153.394 107.746 153.59 107.759 153.787 107.759C162.536 107.655 170.964 104.452 177.573 98.7182C185.469 91.9927 190.243 82.5816 190.671 72.897C190.711 72.0018 190.41 71.1249 189.829 70.4428C189.248 69.7606 188.43 69.324 187.54 69.2208C177.91 68.1018 167.859 71.3186 159.963 78.0437C158.186 79.561 156.548 81.2347 155.069 83.0447C156.448 69.3751 158.08 59.0882 159.172 53.0184C161.043 53.4088 162.95 53.6063 164.861 53.6077ZM68.9304 133.881C73.7378 128.968 80.0893 125.858 86.9185 125.074C86.0612 131.882 82.9624 138.21 78.1106 143.062C73.2588 147.914 66.9301 151.012 60.1224 151.87C60.9074 145.04 64.0173 138.689 68.9304 133.881ZM66.7437 81.3122C71.1442 76.0312 77.2272 72.4244 83.972 71.0971C83.6606 77.9514 81.0766 84.5071 76.6275 89.7306C72.1783 94.954 66.1171 98.5479 59.3996 99.9457C59.6367 93.0758 62.2298 86.4966 66.7437 81.3122ZM54.0127 29.8055C56.4967 25.4461 60.3181 22.002 64.9114 19.9829C65.37 24.9718 64.2609 29.9795 61.7384 34.3081C59.2159 38.6366 55.4059 42.0704 50.8392 44.1308C50.3314 39.1388 51.4441 34.116 54.0127 29.8055ZM27.9566 43.2142C23.5972 40.7299 20.1533 36.9083 18.1343 32.3148C23.1231 31.8562 28.1307 32.9655 32.4592 35.4879C36.7877 38.0104 40.2215 41.8204 42.2818 46.387C37.2898 46.8958 32.2669 45.7833 27.9566 43.2142ZM31.7651 93.3225C26.484 88.9221 22.8771 82.839 21.5499 76.0942C28.4043 76.4055 34.9601 78.9895 40.1835 83.4386C45.407 87.8878 49.001 93.949 50.3988 100.667C43.5287 100.43 36.9495 97.8365 31.7651 93.3225ZM33.1048 143.062C28.1917 138.254 25.0817 131.903 24.2967 125.074C31.1043 125.931 37.433 129.03 42.2848 133.882C47.1366 138.733 50.2354 145.062 51.0926 151.87C44.2636 151.085 37.9124 147.975 33.1048 143.062ZM152.193 272.356L143.294 283.434H61.449L52.5506 272.356C38.2084 254.554 30.8737 232.121 31.9292 209.286H172.814C173.869 232.121 166.535 254.554 152.193 272.356ZM172.313 202.198H32.4297L33.6026 187.447H53.6505H53.6591H53.6632H151.08H151.084H151.093H171.14L172.313 202.198ZM164.56 83.4387C169.744 78.9246 176.323 76.3313 183.193 76.0942C181.796 82.8118 178.202 88.8731 172.978 93.3222C167.755 97.7714 161.199 100.355 154.345 100.667C155.672 93.9219 159.279 87.839 164.56 83.4387ZM172.284 35.4878C176.594 32.9194 181.617 31.807 186.609 32.3152C184.549 36.8819 181.115 40.6919 176.786 43.2143C172.458 45.7366 167.45 46.8457 162.461 46.3867C164.48 41.7933 167.925 37.972 172.284 35.4878ZM143.004 34.3082C140.436 29.9976 139.324 24.9748 139.832 19.9828C144.398 22.0432 148.208 25.477 150.731 29.8056C153.253 34.1341 154.362 39.1418 153.904 44.1307C149.31 42.1119 145.489 38.6678 143.004 34.3082ZM128.116 89.7305C123.602 84.5461 121.008 77.9668 120.771 71.0968C127.489 72.4945 133.55 76.0884 137.999 81.3119C142.448 86.5354 145.032 93.0913 145.343 99.9457C138.599 98.6184 132.516 95.0114 128.116 89.7305ZM126.633 143.062C121.719 138.254 118.609 131.903 117.824 125.074C124.632 125.931 130.961 129.03 135.813 133.882C140.664 138.733 143.763 145.062 144.62 151.87C137.791 151.085 131.44 147.975 126.633 143.062ZM162.458 133.881C167.266 128.968 173.617 125.858 180.446 125.074C179.589 131.882 176.49 138.21 171.638 143.062C166.787 147.914 160.458 151.012 153.65 151.87C154.435 145.04 157.545 138.689 162.458 133.881Z" fill="#121212" stroke="#F8F8F8" stroke-width="1.57495"/>
</g>
<defs>
<clipPath id="clip0_66_3808">
<rect width="203.168" height="179.544" fill="white"/>
</clipPath>
</defs>
</svg>
